<?xml version="1.0" encoding="UTF-8" standalone="no"?>
<svg
   xmlns:osb="http://www.openswatchbook.org/uri/2009/osb"
   xmlns:dc="http://purl.org/dc/elements/1.1/"
   xmlns:cc="http://creativecommons.org/ns#"
   xmlns:rdf="http://www.w3.org/1999/02/22-rdf-syntax-ns#"
   xmlns:svg="http://www.w3.org/2000/svg"
   xmlns="http://www.w3.org/2000/svg"
   xmlns:xlink="http://www.w3.org/1999/xlink"
   xmlns:sodipodi="http://sodipodi.sourceforge.net/DTD/sodipodi-0.dtd"
   xmlns:inkscape="http://www.inkscape.org/namespaces/inkscape"
   inkscape:version="0.92.4 (5da689c313, 2019-01-14)"
   sodipodi:docname="coordinate.svg"
   id="svg2955"
   version="1.1"
   viewBox="0 0 472.49467 487.5042"
   height="650"
   width="630">
  <metadata
     id="metadata2959">
    <rdf:RDF>
      <cc:Work
         rdf:about="">
        <dc:format>image/svg+xml</dc:format>
        <dc:type
           rdf:resource="http://purl.org/dc/dcmitype/StillImage" />
        <dc:title>coordinate</dc:title>
      </cc:Work>
    </rdf:RDF>
  </metadata>
  <sodipodi:namedview
     inkscape:current-layer="svg2955"
     inkscape:window-maximized="1"
     inkscape:window-y="-13"
     inkscape:window-x="-13"
     inkscape:cy="366.3854"
     inkscape:cx="433.85648"
     inkscape:zoom="2"
     showgrid="false"
     id="namedview2957"
     inkscape:window-height="2055"
     inkscape:window-width="3840"
     inkscape:pageshadow="2"
     inkscape:pageopacity="0"
     guidetolerance="10"
     gridtolerance="10"
     objecttolerance="10"
     borderopacity="1"
     inkscape:document-rotation="0"
     bordercolor="#666666"
     pagecolor="#ffffff"
     units="px" />
  <defs
     id="defs2902">
    <linearGradient
       id="linearGradient14589"
       osb:paint="gradient">
      <stop
         style="stop-color:#000000;stop-opacity:1;"
         offset="0"
         id="stop14585" />
      <stop
         style="stop-color:#000000;stop-opacity:0;"
         offset="1"
         id="stop14587" />
    </linearGradient>
    <style
       id="style2900">.cls-1,.cls-11,.cls-7,.cls-9{fill:none;stroke-miterlimit:10;}.cls-1{stroke:#848484;stroke-width:0.5px;}.cls-2{opacity:0.3;}.cls-3{fill:#d6d6d6;opacity:0.87;}.cls-3,.cls-4{isolation:isolate;}.cls-4{fill:#fff;opacity:0.54;}.cls-5{fill:#333;}.cls-6{fill:gray;}.cls-7{stroke:#0b6044;}.cls-14,.cls-8{fill:#0b6044;}.cls-9{stroke:#a52176;}.cls-10,.cls-13{fill:#a52176;}.cls-11{stroke:#d3ad0f;}.cls-12,.cls-15{fill:#d3ad0f;}.cls-13,.cls-14,.cls-15{font-size:12px;font-family:LinBiolinumO, Linux Biolinum O;}</style>
    <marker
       inkscape:isstock="true"
       style="overflow:visible"
       id="marker6832-6"
       refX="0"
       refY="0"
       orient="auto"
       inkscape:stockid="Arrow2Lend">
      <path
         inkscape:connector-curvature="0"
         transform="matrix(-1.1,0,0,-1.1,-1.1,0)"
         d="M 8.7185878,4.0337352 -2.2072895,0.01601326 8.7185884,-4.0017078 c -1.7454984,2.3720609 -1.7354408,5.6174519 -6e-7,8.035443 z"
         style="fill:#000000;fill-opacity:1;fill-rule:evenodd;stroke:#000000;stroke-width:0.625;stroke-linejoin:round;stroke-opacity:1"
         id="path6830-4" />
    </marker>
    <marker
       inkscape:isstock="true"
       style="overflow:visible"
       id="marker6832"
       refX="0"
       refY="0"
       orient="auto"
       inkscape:stockid="Arrow2Lend">
      <path
         inkscape:connector-curvature="0"
         transform="matrix(-1.1,0,0,-1.1,-1.1,0)"
         d="M 8.7185878,4.0337352 -2.2072895,0.01601326 8.7185884,-4.0017078 c -1.7454984,2.3720609 -1.7354408,5.6174519 -6e-7,8.035443 z"
         style="fill:#000000;fill-opacity:1;fill-rule:evenodd;stroke:#000000;stroke-width:0.625;stroke-linejoin:round;stroke-opacity:1"
         id="path6830" />
    </marker>
    <marker
       inkscape:stockid="Arrow1Lend"
       orient="auto"
       refY="0"
       refX="0"
       id="Arrow1Lend-1"
       style="overflow:visible"
       inkscape:isstock="true"
       inkscape:collect="always">
      <path
         inkscape:connector-curvature="0"
         id="path4545-0"
         d="M 0,0 5,-5 -12.5,0 5,5 Z"
         style="fill:#000000;fill-opacity:1;fill-rule:evenodd;stroke:#000000;stroke-width:1.00000003pt;stroke-opacity:1"
         transform="matrix(-0.8,0,0,-0.8,-10,0)" />
    </marker>
    <marker
       inkscape:stockid="Arrow1Lend"
       orient="auto"
       refY="0"
       refX="0"
       id="Arrow1Lend"
       style="overflow:visible"
       inkscape:isstock="true">
      <path
         inkscape:connector-curvature="0"
         id="path4545"
         d="M 0,0 5,-5 -12.5,0 5,5 Z"
         style="fill:#000000;fill-opacity:1;fill-rule:evenodd;stroke:#000000;stroke-width:1.00000003pt;stroke-opacity:1"
         transform="matrix(-0.8,0,0,-0.8,-10,0)" />
    </marker>
    <pattern
       inkscape:collect="always"
       xlink:href="#Strips1_1"
       id="pattern9542"
       patternTransform="matrix(16.495643,0,0,16.80647,-502.05753,-138.81128)" />
    <pattern
       inkscape:isstock="true"
       inkscape:stockid="Stripes 1:1"
       id="Strips1_1"
       patternTransform="translate(0,0) scale(10,10)"
       height="1"
       width="2"
       patternUnits="userSpaceOnUse"
       inkscape:collect="always">
      <rect
         id="rect8620"
         height="2"
         width="1"
         y="-0.5"
         x="0"
         style="fill:black;stroke:none" />
    </pattern>
  </defs>
  <title
     id="title2904">coordinate</title>
  <g
     id="g14005"
     transform="rotate(-121.7743,-14.213743,429.37786)">
    <path
       style="opacity:0.87000002;isolation:isolate;fill:#d6d6d6;stroke-width:1.39933002"
       inkscape:connector-curvature="0"
       id="path2924"
       d="m 8.1117384,793.74747 c 0,0 112.9957616,4.64332 116.9752016,4.8267 a 19.590615,19.590615 0 0 0 6.79454,2.88327 c 1.99498,0.37018 2.66701,-0.64369 3.33663,-0.64752 0.66963,-0.004 1.99016,1.00974 3.49451,1.03271 a 4.6877543,4.6877543 0 0 0 3.32654,-0.97672 c -0.15317,0.8255 0.4871,1.67015 0.9597,2.49792 a 4.3099353,4.3099353 0 0 1 0.82368,1.00678 c 0.82622,0.99301 5.96719,2.20315 12.3596,2.42155 0.65331,0.007 10.13727,0.89906 12.14471,0.58842 a 12.593967,12.593967 0 0 0 7.68654,-4.60812 12.300107,12.300107 0 0 0 2.84128,-7.64204 12.593967,12.593967 0 0 0 -2.78223,-7.63235 11.096684,11.096684 0 0 0 -7.66274,-4.72378 c -1.83045,-0.1831 -11.32106,0.41835 -12.15833,0.40531 -6.32731,0.12102 -11.32034,1.25818 -12.33022,2.25205 -0.33034,0.32297 -0.5068,0.66026 -0.83714,0.98323 a 3.2884246,3.2884246 0 0 0 -1.0191,2.50078 4.7157409,4.7157409 0 0 0 -3.32429,-1.02959 c -1.42435,0.006 -3.02741,0.9753 -3.49676,0.9736 -0.46934,-0.002 -1.32308,-0.99982 -3.33052,-0.68918 a 19.590615,19.590615 0 0 0 -6.83636,2.78761 c -3.92797,-0.23075 -116.9652416,2.78937 -116.9652416,2.78937 z"
       class="cls-3" />
    <path
       style="opacity:0.96680453;isolation:isolate;fill:#f4f4f4;fill-opacity:1;stroke-width:1.39933002"
       inkscape:connector-curvature="0"
       id="path2926"
       d="m 142.98274,786.04029 v 0 a 6.9966482,6.9966482 0 0 0 -3.9779,-3.02953 c -2.65977,-1.0059 -9.64706,0.60089 -10.04194,0.42799 -0.39487,-0.1729 -0.33034,0.32297 -0.007,0.49686 0.32353,0.1739 7.49748,-0.4447 9.79684,0.89283 a 8.8717503,8.8717503 0 0 1 3.16942,3.70496 3.2744314,3.2744314 0 0 1 1.06038,-2.49311 z"
       class="cls-4" />
    <path
       style="opacity:1;fill:#333333;stroke-width:1.39933002"
       inkscape:connector-curvature="0"
       id="path2928"
       d="m 169.61292,785.41703 c -0.0158,3.00005 -3.03617,5.47105 -6.70329,5.44526 -3.66711,-0.0258 -6.64178,-2.55605 -6.63613,-5.50106 0.006,-2.94501 3.03946,-4.64497 6.69281,-4.62173 3.65336,0.0232 6.67114,1.70756 6.64661,4.67753 z"
       class="cls-5" />
    <path
       style="opacity:0.96680453;isolation:isolate;fill:#f4f4f4;fill-opacity:1;stroke-width:1.39933002"
       inkscape:connector-curvature="0"
       id="path2930"
       d="m 142.8593,803.19561 v 0 a 6.9966482,6.9966482 0 0 1 -4.0234,2.96802 c -2.64927,0.93161 -9.64096,-0.73581 -9.97074,-0.56929 -0.32978,0.16652 -0.33673,-0.3329 -0.007,-0.49942 0.32978,-0.16652 7.49764,0.55157 9.83414,-0.76542 a 8.6478573,8.6478573 0 0 0 3.1874,-3.67819 2.8686257,2.8686257 0 0 0 0.97956,2.5443 z"
       class="cls-4" />
    <path
       style="opacity:1;fill:#808080;stroke-width:1.39933002"
       inkscape:connector-curvature="0"
       id="path2932"
       d="m 131.96994,789.47612 c -2.65709,-0.0234 -7.60173,2.61713 -7.69335,5.10499 -0.0917,2.48786 4.73748,5.14874 7.5734,5.20532 a 5.1635264,5.1635264 0 1 0 0.0787,-10.31796 z"
       class="cls-6" />
    <path
       style="opacity:1;fill:#333333;stroke-width:1.39933002"
       inkscape:connector-curvature="0"
       id="path2934"
       d="m 169.48226,804.22195 c 0.0158,-3.00004 -2.96135,-5.51654 -6.62236,-5.4985 -3.66102,0.018 -6.67367,2.44776 -6.7033,5.44525 -0.0297,2.99749 2.96064,4.67671 6.62775,4.7025 3.66711,0.0258 6.66829,-1.65176 6.69791,-4.64925 z"
       class="cls-5" />
  </g>
  <rect
     style="fill:url(#pattern9542);fill-opacity:1;stroke:none;stroke-width:0.1665033;stroke-miterlimit:4;stroke-dasharray:none"
     width="129.79323"
     height="129.79323"
     x="-392.29092"
     y="152.28557"
     id="rect9530"
     transform="rotate(-90)" />
  <path
     style="fill:none;stroke:#000000;stroke-width:3.00002585;stroke-linecap:square;stroke-linejoin:miter;stroke-miterlimit:4;stroke-dasharray:none;stroke-opacity:1;marker-end:url(#Arrow1Lend)"
     d="M 45.738754,42.214854 H 420.62931"
     id="path4540"
     inkscape:connector-curvature="0" />
  <path
     style="fill:none;stroke:#000000;stroke-width:3.00002585;stroke-linecap:square;stroke-linejoin:miter;stroke-miterlimit:4;stroke-dasharray:none;stroke-opacity:1;marker-end:url(#Arrow1Lend-1)"
     d="M 45.738754,42.214854 V 417.10536"
     id="path4540-9"
     inkscape:connector-curvature="0" />
  <text
     xml:space="preserve"
     style="font-style:normal;font-weight:normal;font-size:45.78816223px;line-height:1.25;font-family:sans-serif;letter-spacing:0px;word-spacing:0px;fill:#000000;fill-opacity:1;stroke:none;stroke-width:1.14470398"
     x="72.892982"
     y="30.513906"
     id="text5879"><tspan
       sodipodi:role="line"
       id="tspan5877"
       x="72.892982"
       y="30.513906"
       style="font-style:normal;font-variant:normal;font-weight:normal;font-stretch:normal;font-size:36.6305275px;font-family:Arial;-inkscape-font-specification:Arial;stroke-width:1.14470398">x</tspan></text>
  <text
     xml:space="preserve"
     style="font-style:normal;font-variant:normal;font-weight:normal;font-stretch:normal;font-size:45.78816223px;line-height:1.25;font-family:Arial;-inkscape-font-specification:Arial;letter-spacing:0px;word-spacing:0px;fill:#000000;fill-opacity:1;stroke:none;stroke-width:1.14470398"
     x="14.330197"
     y="88.002815"
     id="text5883"><tspan
       sodipodi:role="line"
       id="tspan5881"
       x="14.330197"
       y="88.002815"
       style="font-style:normal;font-variant:normal;font-weight:normal;font-stretch:normal;font-size:36.6305275px;font-family:Arial;-inkscape-font-specification:Arial;stroke-width:1.14470398">y</tspan></text>
  <text
     xml:space="preserve"
     style="font-style:normal;font-weight:normal;font-size:45.78816223px;line-height:1.25;font-family:sans-serif;letter-spacing:0px;word-spacing:0px;fill:#000000;fill-opacity:1;stroke:none;stroke-width:1.14470398"
     x="3.7431576"
     y="463.99625"
     id="text6810"><tspan
       sodipodi:role="line"
       id="tspan6808"
       x="3.7431576"
       y="463.99625"
       style="font-style:normal;font-variant:normal;font-weight:normal;font-stretch:normal;font-size:36.6305275px;font-family:'Cambria Math';-inkscape-font-specification:'Cambria Math';stroke-width:1.14470398"><tspan
   style="font-size:28.00024033px"
   id="tspan14007">+</tspan> π/2</tspan></text>
  <text
     xml:space="preserve"
     style="font-style:normal;font-weight:normal;font-size:45.78816223px;line-height:1.25;font-family:sans-serif;letter-spacing:0px;word-spacing:0px;fill:#000000;fill-opacity:1;stroke:none;stroke-width:1.14470398"
     x="447.20541"
     y="52.446171"
     id="text6814"><tspan
       sodipodi:role="line"
       id="tspan6812"
       x="447.20541"
       y="52.446171"
       style="font-style:normal;font-variant:normal;font-weight:normal;font-stretch:normal;font-size:36.6305275px;font-family:'Cambria Math';-inkscape-font-specification:'Cambria Math';stroke-width:1.14470398">0</tspan></text>
  <path
     style="fill:none;stroke:#000000;stroke-width:1.12500966;stroke-linecap:butt;stroke-linejoin:miter;stroke-miterlimit:4;stroke-dasharray:none;stroke-opacity:1;marker-end:url(#marker6832-6)"
     d="m 307.96175,272.35903 v 60.13348"
     id="path11473-0"
     inkscape:connector-curvature="0" />
  <path
     style="fill:none;stroke:#969696;stroke-width:1.50001287;stroke-linecap:butt;stroke-linejoin:miter;stroke-miterlimit:4;stroke-dasharray:1.50001283, 3.00002567;stroke-dashoffset:0;stroke-opacity:1"
     d="m 307.96175,272.35903 h 37.92408"
     id="path12381"
     inkscape:connector-curvature="0" />
  <path
     style="fill:none;fill-opacity:1;stroke:#646464;stroke-width:1.12500966;stroke-linecap:butt;stroke-linejoin:miter;stroke-miterlimit:4;stroke-dasharray:none;stroke-dashoffset:0;stroke-opacity:1"
     id="path12387"
     sodipodi:type="arc"
     sodipodi:cx="310.69238"
     sodipodi:cy="271.57126"
     sodipodi:rx="27.416061"
     sodipodi:ry="29.66608"
     sodipodi:start="0"
     sodipodi:end="1.5707963"
     d="m 338.10844,271.57126 a 27.416061,29.66608 0 0 1 -27.41606,29.66608"
     sodipodi:open="true" />
  <path
     sodipodi:type="star"
     style="opacity:1;fill:#000000;fill-opacity:1;stroke:none;stroke-width:0.56693399;stroke-linecap:butt;stroke-linejoin:miter;stroke-miterlimit:4;stroke-dasharray:none;stroke-dashoffset:0;stroke-opacity:1"
     id="path14016"
     sodipodi:sides="3"
     sodipodi:cx="391.99866"
     sodipodi:cy="394.00339"
     sodipodi:r1="50.219952"
     sodipodi:r2="25.109976"
     sodipodi:arg1="2.1864162"
     sodipodi:arg2="3.2336138"
     inkscape:flatsided="false"
     inkscape:rounded="0"
     inkscape:randomized="0"
     d="m 362.99841,435.00374 3.99651,-43.30774 3.99651,-43.30774 35.50735,25.11495 35.50735,25.11495 -39.50386,18.19279 z"
     inkscape:transform-center-x="0.96364948"
     inkscape:transform-center-y="-0.17663098"
     transform="matrix(0.05443256,0.05114437,-0.06731968,0.04479247,317.8225,263.29897)" />
  <g
     id="g869"
     transform="translate(-81.7507,19.500169)">
    <rect
       y="86.636131"
       x="297.54617"
       height="60.803509"
       width="37.468021"
       id="rect11445"
       style="fill:none;fill-opacity:1;stroke:#969696;stroke-width:1.50001287;stroke-linecap:butt;stroke-linejoin:miter;stroke-miterlimit:4;stroke-dasharray:1.50001283, 3.00002567;stroke-dashoffset:0;stroke-opacity:1" />
    <path
       inkscape:connector-curvature="0"
       id="path11473"
       d="m 297.47575,87.348114 36.12544,58.184746"
       style="fill:none;stroke:#000000;stroke-width:1.12500966;stroke-linecap:butt;stroke-linejoin:miter;stroke-miterlimit:4;stroke-dasharray:none;stroke-opacity:1;marker-end:url(#marker6832)" />
    <path
       transform="matrix(0.96551121,-0.26036147,0.15471548,0.98795907,0,0)"
       sodipodi:open="true"
       d="m 312.20503,170.56653 a 16.492203,19.266262 0 0 1 -16.4922,19.26626"
       sodipodi:end="1.5707963"
       sodipodi:start="0"
       sodipodi:ry="19.266262"
       sodipodi:rx="16.492203"
       sodipodi:cy="170.56653"
       sodipodi:cx="295.71283"
       sodipodi:type="arc"
       id="path12387-8"
       style="fill:none;fill-opacity:1;stroke:#000000;stroke-width:1.12830496;stroke-linecap:butt;stroke-linejoin:miter;stroke-miterlimit:4;stroke-dasharray:none;stroke-dashoffset:0;stroke-opacity:1" />
    <path
       transform="matrix(0.06767749,0.02018578,-0.03794315,0.06637792,305.30792,75.80246)"
       inkscape:transform-center-y="-0.65786363"
       inkscape:transform-center-x="0.15451568"
       d="m 362.99841,435.00374 3.99651,-43.30774 3.99651,-43.30774 35.50735,25.11495 35.50735,25.11495 -39.50386,18.19279 z"
       inkscape:randomized="0"
       inkscape:rounded="0"
       inkscape:flatsided="false"
       sodipodi:arg2="3.2336138"
       sodipodi:arg1="2.1864162"
       sodipodi:r2="25.109976"
       sodipodi:r1="50.219952"
       sodipodi:cy="394.00339"
       sodipodi:cx="391.99866"
       sodipodi:sides="3"
       id="path14016-6"
       style="opacity:1;fill:#000000;fill-opacity:1;stroke:none;stroke-width:0.56693399;stroke-linecap:butt;stroke-linejoin:miter;stroke-miterlimit:4;stroke-dasharray:none;stroke-dashoffset:0;stroke-opacity:1"
       sodipodi:type="star" />
    <path
       inkscape:connector-curvature="0"
       id="path15853"
       d="m 297.28796,87.159487 31.8195,51.249443"
       style="fill:none;stroke:#000000;stroke-width:3.15002704;stroke-linecap:butt;stroke-linejoin:miter;stroke-miterlimit:4;stroke-dasharray:none;stroke-opacity:1" />
  </g>
  <path
     style="fill:none;stroke:#000000;stroke-width:3.15002704;stroke-linecap:butt;stroke-linejoin:miter;stroke-miterlimit:4;stroke-dasharray:none;stroke-opacity:1"
     d="m 307.96175,272.21995 v 51.97407"
     id="path15855"
     inkscape:connector-curvature="0" />
</svg>
