<?xml version="1.0" encoding="utf-8"?>
<!-- Generator: Adobe Illustrator 22.0.1, SVG Export Plug-In . SVG Version: 6.00 Build 0)  -->
<svg version="1.1" id="Layer_1" xmlns="http://www.w3.org/2000/svg" xmlns:xlink="http://www.w3.org/1999/xlink" x="0px" y="0px"
	 viewBox="0 0 425.8 247.4" style="enable-background:new 0 0 425.8 247.4;" xml:space="preserve">
<style type="text/css">
	.st0{fill:none;stroke:#545558;stroke-width:1.2;}
	.st1{fill:#545558;}
	.st2{fill:#A24887;}
	.st3{fill:#FFFFFF;}
	.st4{fill:#007985;}
	.st5{fill:#0075A7;}
	.st6{fill:none;stroke:#545558;stroke-width:1.665;}
	.st7{fill:#CD882A;}
	.st8{fill:none;stroke:#4B9CA4;}
	.st9{clip-path:url(#SVGID_2_);fill:#BEDDE8;}
	.st10{fill:#BEDDE8;}
	.st11{clip-path:url(#SVGID_4_);fill:#BEDDE8;}
	.st12{clip-path:url(#SVGID_6_);fill:#BEDDE8;}
	.st13{clip-path:url(#SVGID_8_);fill:#BEDDE8;}
	.st14{clip-path:url(#SVGID_10_);fill:#BEDDE8;}
	.st15{clip-path:url(#SVGID_12_);fill:#BEDDE8;}
	.st16{clip-path:url(#SVGID_14_);fill:#BEDDE8;}
	.st17{fill:#E8D3E1;}
	.st18{clip-path:url(#SVGID_16_);fill:#E8D3E1;}
	.st19{clip-path:url(#SVGID_18_);fill:#E8D3E1;}
	.st20{fill:#BEDDE0;}
	.st21{clip-path:url(#SVGID_20_);fill:#BEDDE0;}
	.st22{clip-path:url(#SVGID_22_);fill:#BEDDE0;}
	.st23{fill:#F3E1BD;}
	.st24{clip-path:url(#SVGID_24_);fill:#F3E1BD;}
	.st25{clip-path:url(#SVGID_26_);fill:#BEDDE0;}
	.st26{clip-path:url(#SVGID_28_);fill:#BEDDE0;}
	.st27{clip-path:url(#SVGID_30_);fill:#BEDDE0;}
	.st28{clip-path:url(#SVGID_32_);fill:#BEDDE0;}
	.st29{clip-path:url(#SVGID_34_);fill:#BEDDE0;}
	.st30{clip-path:url(#SVGID_36_);fill:#BEDDE0;}
	.st31{clip-path:url(#SVGID_38_);fill:#BEDDE0;}
	.st32{clip-path:url(#SVGID_40_);fill:#8BC4CA;}
	.st33{fill:#8BC4CA;}
	.st34{clip-path:url(#SVGID_42_);fill:#8BC4CA;}
	.st35{clip-path:url(#SVGID_44_);fill:#8BC4CA;}
	.st36{clip-path:url(#SVGID_46_);fill:#8BC4CA;}
</style>
<g>
	<line class="st0" x1="303" y1="81.3" x2="303" y2="188.7"/>
	<polygon class="st1" points="303,194.5 305.9,186.6 300.2,186.6 	"/>
	<path class="st2" d="M4,99.8c0,0-3.5,0-3.5,3.5v70.2c0,0,0,3.5,3.5,3.5h101.6c0,0,3.5,0,3.5-3.5v-70.2c0,0,0-3.5-3.5-3.5H4"/>
	<g>
		<path class="st3" d="M28.7,119.3v-4.2h-1.2v-1.4h1.2v-2h1.6v2h1.5v1.4h-1.5v3.8c0,0.5,0.2,0.9,0.7,0.9c0.3,0,0.6-0.1,0.7-0.3
			l0.4,1.2c-0.3,0.3-0.8,0.5-1.5,0.5C29.4,121.2,28.7,120.6,28.7,119.3z"/>
		<path class="st3" d="M33.2,113.8h1.6v1.1c0.5-0.7,1.4-1.2,2.4-1.2v1.6c-0.1,0-0.3,0-0.5,0c-0.7,0-1.5,0.5-1.9,1v4.9h-1.6V113.8z"
			/>
		<path class="st3" d="M42.8,120.3c-0.5,0.6-1.4,1-2.3,1c-1.2,0-2.5-0.8-2.5-2.4c0-1.7,1.3-2.4,2.5-2.4c1,0,1.8,0.3,2.3,0.9v-1.1
			c0-0.8-0.7-1.4-1.7-1.4c-0.8,0-1.5,0.3-2.1,0.9l-0.6-1.1c0.8-0.8,1.9-1.2,3-1.2c1.6,0,3,0.7,3,2.6v4.8h-1.6V120.3z M42.8,118.3
			c-0.4-0.5-1-0.8-1.7-0.8c-0.9,0-1.5,0.5-1.5,1.3c0,0.8,0.7,1.3,1.5,1.3c0.7,0,1.4-0.3,1.7-0.8V118.3z"/>
		<path class="st3" d="M49.7,113.6c1.4,0,2.3,0.6,2.8,1.3l-1,1c-0.4-0.6-1-0.9-1.7-0.9c-1.3,0-2.2,1-2.2,2.4c0,1.4,0.9,2.4,2.2,2.4
			c0.7,0,1.3-0.3,1.7-0.9l1,1c-0.5,0.7-1.4,1.3-2.8,1.3c-2.2,0-3.8-1.6-3.8-3.8C46,115.2,47.5,113.6,49.7,113.6z"/>
		<path class="st3" d="M56.5,118l-1,1v2h-1.6v-10h1.6v6.3l3.2-3.5h2l-3,3.3l3.1,4h-2L56.5,118z"/>
		<path class="st3" d="M61.6,111.6c0-0.5,0.5-1,1-1c0.5,0,1,0.4,1,1s-0.4,1-1,1C62.1,112.6,61.6,112.1,61.6,111.6z M61.8,113.8h1.6
			v7.3h-1.6V113.8z"/>
		<path class="st3" d="M70.3,116.5c0-1.1-0.6-1.5-1.5-1.5c-0.8,0-1.5,0.5-1.9,1v5.1h-1.6v-7.3H67v1c0.5-0.6,1.4-1.2,2.6-1.2
			c1.6,0,2.3,0.8,2.3,2.3v5.1h-1.6V116.5z"/>
		<path class="st3" d="M74.6,121.8c0.6,0.7,1.3,0.9,2.3,0.9c1,0,2.1-0.5,2.1-2v-0.9c-0.6,0.7-1.4,1.2-2.3,1.2
			c-1.8,0-3.2-1.3-3.2-3.7c0-2.3,1.4-3.7,3.2-3.7c0.9,0,1.7,0.4,2.3,1.2v-1h1.6v6.9c0,2.6-1.9,3.3-3.7,3.3c-1.2,0-2.1-0.3-3-1.1
			L74.6,121.8z M79,116c-0.3-0.5-1.1-1-1.9-1c-1.2,0-2,0.9-2,2.3c0,1.4,0.8,2.3,2,2.3c0.7,0,1.5-0.4,1.9-1V116z"/>
	</g>
	<path class="st4" d="M320.6,99.8c0,0-3.5,0-3.5,3.5v70.2c0,0,0,3.5,3.5,3.5h101.6c0,0,3.5,0,3.5-3.5v-70.2c0,0,0-3.5-3.5-3.5H320.6
		"/>
	<g>
		<path class="st3" d="M340.2,113.6c1.4,0,2.3,0.6,2.8,1.3l-1,1c-0.4-0.6-1-0.9-1.7-0.9c-1.3,0-2.2,1-2.2,2.4c0,1.4,0.9,2.4,2.2,2.4
			c0.7,0,1.3-0.3,1.7-0.9l1,1c-0.5,0.7-1.4,1.3-2.8,1.3c-2.2,0-3.8-1.6-3.8-3.8C336.5,115.2,338,113.6,340.2,113.6z"/>
		<path class="st3" d="M348.8,120.3c-0.5,0.6-1.4,1-2.3,1c-1.2,0-2.5-0.8-2.5-2.4c0-1.7,1.3-2.4,2.5-2.4c1,0,1.8,0.3,2.3,0.9v-1.1
			c0-0.8-0.7-1.4-1.7-1.4c-0.8,0-1.5,0.3-2.1,0.9l-0.6-1.1c0.8-0.8,1.9-1.2,3-1.2c1.6,0,3,0.7,3,2.6v4.8h-1.6V120.3z M348.8,118.3
			c-0.4-0.5-1-0.8-1.7-0.8c-0.9,0-1.5,0.5-1.5,1.3c0,0.8,0.7,1.3,1.5,1.3c0.7,0,1.4-0.3,1.7-0.8V118.3z"/>
		<path class="st3" d="M352.4,111h1.6v10h-1.6V111z"/>
		<path class="st3" d="M355.9,111.6c0-0.5,0.5-1,1-1c0.5,0,1,0.4,1,1s-0.4,1-1,1C356.3,112.6,355.9,112.1,355.9,111.6z M356.1,113.8
			h1.6v7.3h-1.6V113.8z"/>
		<path class="st3" d="M359.7,111h1.6v3.8c0.6-0.8,1.4-1.2,2.3-1.2c1.9,0,3.2,1.5,3.2,3.8c0,2.4-1.4,3.8-3.2,3.8
			c-0.9,0-1.8-0.5-2.3-1.2v1h-1.6V111z M363.1,119.8c1.3,0,2.1-1,2.1-2.4c0-1.4-0.8-2.4-2.1-2.4c-0.7,0-1.5,0.5-1.9,1v2.9
			C361.6,119.4,362.4,119.8,363.1,119.8z"/>
		<path class="st3" d="M368.4,113.8h1.6v1.1c0.5-0.7,1.4-1.2,2.4-1.2v1.6c-0.1,0-0.3,0-0.5,0c-0.7,0-1.5,0.5-1.9,1v4.9h-1.6V113.8z"
			/>
		<path class="st3" d="M378,120.3c-0.5,0.6-1.4,1-2.3,1c-1.2,0-2.5-0.8-2.5-2.4c0-1.7,1.3-2.4,2.5-2.4c1,0,1.8,0.3,2.3,0.9v-1.1
			c0-0.8-0.7-1.4-1.7-1.4c-0.8,0-1.5,0.3-2.1,0.9l-0.6-1.1c0.8-0.8,1.9-1.2,3-1.2c1.6,0,3,0.7,3,2.6v4.8H378V120.3z M378,118.3
			c-0.4-0.5-1-0.8-1.7-0.8c-0.9,0-1.5,0.5-1.5,1.3c0,0.8,0.7,1.3,1.5,1.3c0.7,0,1.4-0.3,1.7-0.8V118.3z"/>
		<path class="st3" d="M382,119.3v-4.2h-1.2v-1.4h1.2v-2h1.6v2h1.5v1.4h-1.5v3.8c0,0.5,0.2,0.9,0.7,0.9c0.3,0,0.6-0.1,0.7-0.3
			l0.4,1.2c-0.3,0.3-0.8,0.5-1.5,0.5C382.6,121.2,382,120.6,382,119.3z"/>
		<path class="st3" d="M386.3,111.6c0-0.5,0.5-1,1-1c0.5,0,1,0.4,1,1s-0.4,1-1,1C386.7,112.6,386.3,112.1,386.3,111.6z M386.4,113.8
			h1.6v7.3h-1.6V113.8z"/>
		<path class="st3" d="M389.6,117.4c0-2.1,1.4-3.8,3.7-3.8c2.3,0,3.7,1.7,3.7,3.8c0,2.1-1.4,3.8-3.7,3.8
			C391,121.2,389.6,119.5,389.6,117.4z M395.4,117.4c0-1.3-0.8-2.4-2.1-2.4c-1.3,0-2.1,1.1-2.1,2.4c0,1.3,0.8,2.4,2.1,2.4
			C394.7,119.8,395.4,118.7,395.4,117.4z"/>
		<path class="st3" d="M403.6,116.5c0-1.1-0.6-1.5-1.5-1.5c-0.8,0-1.5,0.5-1.9,1v5.1h-1.6v-7.3h1.6v1c0.5-0.6,1.4-1.2,2.6-1.2
			c1.6,0,2.3,0.8,2.3,2.3v5.1h-1.6V116.5z"/>
	</g>
	<path class="st5" d="M4,5c0,0-3.5,0-3.5,3.5v69.2c0,0,0,3.5,3.5,3.5h101.6c0,0,3.5,0,3.5-3.5V8.6c0,0,0-3.5-3.5-3.5H4"/>
	<g>
		<path class="st3" d="M34,18.9c1.4,0,2.3,0.6,2.8,1.3l-1,1c-0.4-0.6-1-0.9-1.7-0.9c-1.3,0-2.2,1-2.2,2.4c0,1.4,0.9,2.4,2.2,2.4
			c0.7,0,1.3-0.3,1.7-0.9l1,1c-0.5,0.7-1.4,1.3-2.8,1.3c-2.2,0-3.8-1.6-3.8-3.8C30.2,20.5,31.8,18.9,34,18.9z"/>
		<path class="st3" d="M42.6,25.5c-0.5,0.6-1.4,1-2.3,1c-1.2,0-2.5-0.8-2.5-2.4c0-1.7,1.3-2.4,2.5-2.4c1,0,1.8,0.3,2.3,0.9v-1.1
			c0-0.8-0.7-1.4-1.7-1.4c-0.8,0-1.5,0.3-2.1,0.9L38.1,20c0.8-0.8,1.9-1.2,3-1.2c1.6,0,3,0.7,3,2.6v4.8h-1.6V25.5z M42.6,23.5
			c-0.4-0.5-1-0.8-1.7-0.8c-0.9,0-1.5,0.5-1.5,1.3c0,0.8,0.7,1.3,1.5,1.3c0.7,0,1.4-0.3,1.7-0.8V23.5z"/>
		<path class="st3" d="M55.1,21.6c0-0.8-0.3-1.3-1.2-1.3c-0.7,0-1.4,0.5-1.7,1v5.1h-1.6v-4.7c0-0.8-0.3-1.3-1.2-1.3
			c-0.7,0-1.3,0.5-1.7,1v5.1h-1.6V19h1.6v1c0.3-0.5,1.3-1.2,2.4-1.2c1.1,0,1.7,0.5,2,1.3c0.4-0.7,1.4-1.3,2.5-1.3
			c1.3,0,2.1,0.7,2.1,2.2v5.2h-1.6V21.6z"/>
		<path class="st3" d="M61.9,18.9c2.2,0,3.6,1.7,3.6,3.9v0.4h-5.6c0.1,1.1,0.9,2,2.3,2c0.7,0,1.5-0.3,2.1-0.8l0.7,1
			c-0.7,0.7-1.8,1.1-2.9,1.1c-2.2,0-3.8-1.5-3.8-3.8C58.3,20.6,59.8,18.9,61.9,18.9z M59.9,22.1H64c0-0.9-0.6-1.9-2-1.9
			C60.6,20.1,60,21.2,59.9,22.1z"/>
		<path class="st3" d="M67.1,19h1.6v1.1c0.5-0.7,1.4-1.2,2.4-1.2v1.6c-0.1,0-0.3,0-0.5,0c-0.7,0-1.5,0.5-1.9,1v4.9h-1.6V19z"/>
		<path class="st3" d="M76.7,25.5c-0.5,0.6-1.4,1-2.3,1c-1.2,0-2.5-0.8-2.5-2.4c0-1.7,1.3-2.4,2.5-2.4c1,0,1.8,0.3,2.3,0.9v-1.1
			c0-0.8-0.7-1.4-1.7-1.4c-0.8,0-1.5,0.3-2.1,0.9L72.2,20c0.8-0.8,1.9-1.2,3-1.2c1.6,0,3,0.7,3,2.6v4.8h-1.6V25.5z M76.7,23.5
			c-0.4-0.5-1-0.8-1.7-0.8c-0.9,0-1.5,0.5-1.5,1.3c0,0.8,0.7,1.3,1.5,1.3c0.7,0,1.4-0.3,1.7-0.8V23.5z"/>
	</g>
	<path class="st4" d="M259.9,5c0,0-1.6,0-1.6,3.6v69.1c0,0,0,3.6,1.6,3.6h105.5c0,0,1.6,0,1.6-3.6V8.6c0,0,0-3.6-1.6-3.6H259.9"/>
	<g>
		<path class="st3" d="M276.6,24.2c0.5,0.5,1.5,1,2.5,1c0.9,0,1.4-0.3,1.4-0.9c0-0.6-0.8-0.9-1.7-1.1c-1.2-0.3-2.7-0.6-2.7-2.2
			c0-1.2,1-2.2,2.9-2.2c1.2,0,2.2,0.4,2.8,1l-0.7,1.1c-0.4-0.5-1.2-0.9-2.1-0.9c-0.8,0-1.4,0.3-1.4,0.8c0,0.6,0.7,0.8,1.6,0.9
			c1.3,0.3,2.8,0.6,2.8,2.3c0,1.3-1.1,2.3-3,2.3c-1.2,0-2.4-0.4-3.1-1.1L276.6,24.2z"/>
		<path class="st3" d="M284,24.6v-4.2h-1.2V19h1.2v-2h1.6v2h1.5v1.4h-1.5v3.8c0,0.5,0.2,0.9,0.7,0.9c0.3,0,0.6-0.1,0.7-0.3l0.4,1.2
			c-0.3,0.3-0.8,0.5-1.5,0.5C284.6,26.5,284,25.8,284,24.6z"/>
		<path class="st3" d="M288.2,16.9c0-0.5,0.5-1,1-1c0.5,0,1,0.4,1,1s-0.4,1-1,1C288.7,17.8,288.2,17.4,288.2,16.9z M288.4,19h1.6
			v7.3h-1.6V19z"/>
		<path class="st3" d="M300.9,21.6c0-0.8-0.3-1.3-1.2-1.3c-0.7,0-1.4,0.5-1.7,1v5.1h-1.6v-4.7c0-0.8-0.3-1.3-1.2-1.3
			c-0.7,0-1.3,0.5-1.7,1v5.1H292V19h1.6v1c0.3-0.5,1.3-1.2,2.4-1.2c1.1,0,1.7,0.5,2,1.3c0.4-0.7,1.4-1.3,2.5-1.3
			c1.3,0,2.1,0.7,2.1,2.2v5.2h-1.6V21.6z"/>
		<path class="st3" d="M309.4,25.3c-0.5,0.6-1.4,1.1-2.6,1.1c-1.6,0-2.3-0.8-2.3-2.3V19h1.6v4.6c0,1.1,0.6,1.5,1.5,1.5
			c0.8,0,1.5-0.5,1.9-0.9V19h1.6v7.3h-1.6V25.3z"/>
		<path class="st3" d="M313.1,16.3h1.6v10h-1.6V16.3z"/>
		<path class="st3" d="M321.1,25.5c-0.5,0.6-1.4,1-2.3,1c-1.2,0-2.5-0.8-2.5-2.4c0-1.7,1.3-2.4,2.5-2.4c1,0,1.8,0.3,2.3,0.9v-1.1
			c0-0.8-0.7-1.4-1.7-1.4c-0.8,0-1.5,0.3-2.1,0.9l-0.6-1.1c0.8-0.8,1.9-1.2,3-1.2c1.6,0,3,0.7,3,2.6v4.8h-1.6V25.5z M321.1,23.5
			c-0.4-0.5-1-0.8-1.7-0.8c-0.9,0-1.5,0.5-1.5,1.3c0,0.8,0.7,1.3,1.5,1.3c0.7,0,1.4-0.3,1.7-0.8V23.5z"/>
		<path class="st3" d="M325,24.6v-4.2h-1.2V19h1.2v-2h1.6v2h1.5v1.4h-1.5v3.8c0,0.5,0.2,0.9,0.7,0.9c0.3,0,0.6-0.1,0.7-0.3l0.4,1.2
			c-0.3,0.3-0.8,0.5-1.5,0.5C325.7,26.5,325,25.8,325,24.6z"/>
		<path class="st3" d="M329.3,16.9c0-0.5,0.5-1,1-1c0.5,0,1,0.4,1,1s-0.4,1-1,1C329.8,17.8,329.3,17.4,329.3,16.9z M329.5,19h1.6
			v7.3h-1.6V19z"/>
		<path class="st3" d="M332.7,22.7c0-2.1,1.4-3.8,3.7-3.8c2.3,0,3.7,1.7,3.7,3.8c0,2.1-1.4,3.8-3.7,3.8
			C334.1,26.5,332.7,24.7,332.7,22.7z M338.5,22.7c0-1.3-0.8-2.4-2.1-2.4c-1.3,0-2.1,1.1-2.1,2.4c0,1.3,0.8,2.4,2.1,2.4
			C337.8,25.1,338.5,23.9,338.5,22.7z"/>
		<path class="st3" d="M346.6,21.8c0-1.1-0.6-1.5-1.5-1.5c-0.8,0-1.5,0.5-1.9,1v5.1h-1.6V19h1.6v1c0.5-0.6,1.4-1.2,2.6-1.2
			c1.6,0,2.3,0.8,2.3,2.3v5.1h-1.6V21.8z"/>
	</g>
	<path class="st4" d="M141.3,99.8c0,0-3.5,0-3.5,3.5v70.2c0,0,0,3.5,3.5,3.5h101.6c0,0,3.5,0,3.5-3.5v-70.2c0,0,0-3.5-3.5-3.5H141.3
		"/>
	<g>
		<path class="st3" d="M164.5,113.6c2.2,0,3.6,1.7,3.6,3.9v0.4h-5.6c0.1,1.1,0.9,2,2.3,2c0.7,0,1.5-0.3,2.1-0.8l0.7,1
			c-0.7,0.7-1.8,1.1-2.9,1.1c-2.2,0-3.8-1.5-3.8-3.8C160.8,115.3,162.3,113.6,164.5,113.6z M162.4,116.8h4.1c0-0.9-0.6-1.9-2-1.9
			C163.1,114.9,162.5,115.9,162.4,116.8z"/>
		<path class="st3" d="M169.7,118.9c0.5,0.5,1.5,1,2.5,1c0.9,0,1.4-0.3,1.4-0.9c0-0.6-0.8-0.9-1.7-1.1c-1.2-0.3-2.7-0.6-2.7-2.2
			c0-1.2,1-2.2,2.9-2.2c1.2,0,2.2,0.4,2.8,1l-0.7,1.1c-0.4-0.5-1.2-0.9-2.1-0.9c-0.8,0-1.4,0.3-1.4,0.8c0,0.6,0.7,0.8,1.6,0.9
			c1.3,0.3,2.8,0.6,2.8,2.3c0,1.3-1.1,2.3-3,2.3c-1.2,0-2.4-0.4-3.1-1.1L169.7,118.9z"/>
		<path class="st3" d="M177,119.3v-4.2h-1.2v-1.4h1.2v-2h1.6v2h1.5v1.4h-1.5v3.8c0,0.5,0.2,0.9,0.7,0.9c0.3,0,0.6-0.1,0.7-0.3
			l0.4,1.2c-0.3,0.3-0.8,0.5-1.5,0.5C177.6,121.2,177,120.6,177,119.3z"/>
		<path class="st3" d="M181.3,111.6c0-0.5,0.5-1,1-1c0.5,0,1,0.4,1,1s-0.4,1-1,1C181.7,112.6,181.3,112.1,181.3,111.6z M181.5,113.8
			h1.6v7.3h-1.6V113.8z"/>
		<path class="st3" d="M194,116.3c0-0.8-0.3-1.3-1.2-1.3c-0.7,0-1.4,0.5-1.7,1v5.1h-1.6v-4.7c0-0.8-0.3-1.3-1.2-1.3
			c-0.7,0-1.3,0.5-1.7,1v5.1h-1.6v-7.3h1.6v1c0.3-0.5,1.3-1.2,2.4-1.2c1.1,0,1.7,0.5,2,1.3c0.4-0.7,1.4-1.3,2.5-1.3
			c1.3,0,2.1,0.7,2.1,2.2v5.2H194V116.3z"/>
		<path class="st3" d="M202,120.3c-0.5,0.6-1.4,1-2.3,1c-1.2,0-2.5-0.8-2.5-2.4c0-1.7,1.3-2.4,2.5-2.4c1,0,1.8,0.3,2.3,0.9v-1.1
			c0-0.8-0.7-1.4-1.7-1.4c-0.8,0-1.5,0.3-2.1,0.9l-0.6-1.1c0.8-0.8,1.9-1.2,3-1.2c1.6,0,3,0.7,3,2.6v4.8H202V120.3z M202,118.3
			c-0.4-0.5-1-0.8-1.7-0.8c-0.9,0-1.5,0.5-1.5,1.3c0,0.8,0.7,1.3,1.5,1.3c0.7,0,1.4-0.3,1.7-0.8V118.3z"/>
		<path class="st3" d="M206,119.3v-4.2h-1.2v-1.4h1.2v-2h1.6v2h1.5v1.4h-1.5v3.8c0,0.5,0.2,0.9,0.7,0.9c0.3,0,0.6-0.1,0.7-0.3
			l0.4,1.2c-0.3,0.3-0.8,0.5-1.5,0.5C206.6,121.2,206,120.6,206,119.3z"/>
		<path class="st3" d="M210,117.4c0-2.1,1.4-3.8,3.7-3.8c2.3,0,3.7,1.7,3.7,3.8c0,2.1-1.4,3.8-3.7,3.8
			C211.4,121.2,210,119.5,210,117.4z M215.8,117.4c0-1.3-0.8-2.4-2.1-2.4c-1.3,0-2.1,1.1-2.1,2.4c0,1.3,0.8,2.4,2.1,2.4
			C215.1,119.8,215.8,118.7,215.8,117.4z"/>
		<path class="st3" d="M219,113.8h1.6v1.1c0.5-0.7,1.4-1.2,2.4-1.2v1.6c-0.1,0-0.3,0-0.5,0c-0.7,0-1.5,0.5-1.9,1v4.9H219V113.8z"/>
	</g>
	<path class="st4" d="M4,194.5c0,0-3.5,0-3.5,3.5v45.8c0,0,0,3.5,3.5,3.5h418.1c0,0,3.5,0,3.5-3.5V198c0,0,0-3.5-3.5-3.5H4"/>
	<g>
		<path class="st3" d="M159.7,205.7h1.6v10h-1.6V205.7z"/>
		<path class="st3" d="M162.8,212.1c0-2.1,1.4-3.8,3.7-3.8c2.3,0,3.7,1.7,3.7,3.8c0,2.1-1.4,3.8-3.7,3.8
			C164.3,215.9,162.8,214.2,162.8,212.1z M168.7,212.1c0-1.3-0.8-2.4-2.1-2.4c-1.3,0-2.1,1.1-2.1,2.4c0,1.3,0.8,2.4,2.1,2.4
			C167.9,214.5,168.7,213.4,168.7,212.1z"/>
		<path class="st3" d="M172.5,216.4c0.6,0.7,1.3,0.9,2.3,0.9c1,0,2.1-0.5,2.1-2v-0.9c-0.6,0.7-1.4,1.2-2.3,1.2
			c-1.8,0-3.2-1.3-3.2-3.7c0-2.3,1.4-3.7,3.2-3.7c0.9,0,1.7,0.4,2.3,1.2v-1h1.6v6.9c0,2.6-1.9,3.3-3.7,3.3c-1.2,0-2.1-0.3-3-1.1
			L172.5,216.4z M177,210.7c-0.3-0.5-1.1-1-1.9-1c-1.2,0-2,0.9-2,2.3s0.8,2.3,2,2.3c0.7,0,1.5-0.4,1.9-1V210.7z"/>
		<path class="st3" d="M180.7,213.6c0.5,0.5,1.5,1,2.5,1c0.9,0,1.4-0.3,1.4-0.9c0-0.6-0.8-0.9-1.7-1.1c-1.2-0.3-2.7-0.6-2.7-2.2
			c0-1.2,1-2.2,2.9-2.2c1.2,0,2.2,0.4,2.8,1l-0.7,1.1c-0.4-0.5-1.2-0.9-2.1-0.9c-0.8,0-1.4,0.3-1.4,0.8c0,0.6,0.7,0.8,1.6,0.9
			c1.3,0.3,2.8,0.6,2.8,2.3c0,1.3-1.1,2.3-3,2.3c-1.2,0-2.4-0.4-3.1-1.1L180.7,213.6z"/>
		<path class="st3" d="M199.9,215.7h-2.1c-0.2-0.2-0.6-0.5-0.9-0.9c-0.8,0.6-1.7,1.1-2.8,1.1c-1.8,0-3.2-0.9-3.2-2.9
			c0-1.5,1-2.3,2.2-2.9c-0.4-0.8-0.7-1.5-0.7-2.2c0-1.4,1.2-2.4,2.7-2.4c1.4,0,2.5,0.8,2.5,2.1c0,1.5-1.2,2.2-2.5,2.8
			c0.3,0.5,0.7,0.9,1,1.2c0.3,0.4,0.7,0.8,1,1.2c0.5-0.7,0.8-1.5,1-2.1l1.3,0.6c-0.3,0.8-0.8,1.7-1.4,2.5
			C198.6,214.4,199.2,215,199.9,215.7z M196.1,213.9c-0.5-0.5-1-1.1-1.2-1.4c-0.4-0.4-0.8-0.9-1.1-1.4c-0.6,0.4-1.1,1-1.1,1.8
			c0,1.1,0.8,1.7,1.7,1.7C195,214.6,195.6,214.4,196.1,213.9z M194.5,209.5c0.9-0.5,1.7-0.9,1.7-1.8c0-0.6-0.4-1-1-1
			c-0.7,0-1.2,0.5-1.2,1.2C194,208.4,194.2,208.9,194.5,209.5z"/>
		<path class="st3" d="M213.9,211c0-0.8-0.3-1.3-1.2-1.3c-0.7,0-1.4,0.5-1.7,1v5.1h-1.6V211c0-0.8-0.3-1.3-1.2-1.3
			c-0.7,0-1.3,0.5-1.7,1v5.1h-1.6v-7.3h1.6v1c0.3-0.5,1.3-1.2,2.4-1.2c1.1,0,1.7,0.5,2,1.3c0.4-0.7,1.4-1.3,2.5-1.3
			c1.3,0,2.1,0.7,2.1,2.2v5.2h-1.6V211z"/>
		<path class="st3" d="M220.8,208.3c2.2,0,3.6,1.7,3.6,3.9v0.4h-5.6c0.1,1.1,0.9,2,2.3,2c0.7,0,1.5-0.3,2.1-0.8l0.7,1
			c-0.7,0.7-1.8,1.1-2.9,1.1c-2.2,0-3.8-1.5-3.8-3.8C217.1,210,218.6,208.3,220.8,208.3z M218.8,211.5h4.1c0-0.9-0.6-1.9-2-1.9
			C219.4,209.6,218.8,210.6,218.8,211.5z"/>
		<path class="st3" d="M226.2,214v-4.2H225v-1.4h1.2v-2h1.6v2h1.5v1.4h-1.5v3.8c0,0.5,0.2,0.9,0.7,0.9c0.3,0,0.6-0.1,0.7-0.3
			l0.4,1.2c-0.3,0.3-0.8,0.5-1.5,0.5C226.9,215.9,226.2,215.2,226.2,214z"/>
		<path class="st3" d="M235.1,214.9c-0.5,0.6-1.4,1-2.3,1c-1.2,0-2.5-0.8-2.5-2.4c0-1.7,1.3-2.4,2.5-2.4c1,0,1.8,0.3,2.3,0.9V211
			c0-0.8-0.7-1.4-1.7-1.4c-0.8,0-1.5,0.3-2.1,0.9l-0.6-1.1c0.8-0.8,1.9-1.2,3-1.2c1.6,0,3,0.7,3,2.6v4.8h-1.6V214.9z M235.1,213
			c-0.4-0.5-1-0.8-1.7-0.8c-0.9,0-1.5,0.5-1.5,1.3c0,0.8,0.7,1.3,1.5,1.3c0.7,0,1.4-0.3,1.7-0.8V213z"/>
		<path class="st3" d="M243.9,214.7c-0.6,0.7-1.4,1.2-2.3,1.2c-1.9,0-3.2-1.4-3.2-3.8c0-2.3,1.4-3.8,3.2-3.8c0.9,0,1.7,0.4,2.3,1.2
			v-3.8h1.6v10h-1.6V214.7z M243.9,210.7c-0.4-0.5-1.1-1-1.9-1c-1.2,0-2,1-2,2.4c0,1.4,0.8,2.4,2,2.4c0.8,0,1.5-0.4,1.9-1V210.7z"/>
		<path class="st3" d="M251.9,214.9c-0.5,0.6-1.4,1-2.3,1c-1.2,0-2.5-0.8-2.5-2.4c0-1.7,1.3-2.4,2.5-2.4c1,0,1.8,0.3,2.3,0.9V211
			c0-0.8-0.7-1.4-1.7-1.4c-0.8,0-1.5,0.3-2.1,0.9l-0.6-1.1c0.8-0.8,1.9-1.2,3-1.2c1.6,0,3,0.7,3,2.6v4.8h-1.6V214.9z M251.9,213
			c-0.4-0.5-1-0.8-1.7-0.8c-0.9,0-1.5,0.5-1.5,1.3c0,0.8,0.7,1.3,1.5,1.3c0.7,0,1.4-0.3,1.7-0.8V213z"/>
		<path class="st3" d="M255.8,214v-4.2h-1.2v-1.4h1.2v-2h1.6v2h1.5v1.4h-1.5v3.8c0,0.5,0.2,0.9,0.7,0.9c0.3,0,0.6-0.1,0.7-0.3
			l0.4,1.2c-0.3,0.3-0.8,0.5-1.5,0.5C256.5,215.9,255.8,215.2,255.8,214z"/>
		<path class="st3" d="M264.8,214.9c-0.5,0.6-1.4,1-2.3,1c-1.2,0-2.5-0.8-2.5-2.4c0-1.7,1.3-2.4,2.5-2.4c1,0,1.8,0.3,2.3,0.9V211
			c0-0.8-0.7-1.4-1.7-1.4c-0.8,0-1.5,0.3-2.1,0.9l-0.6-1.1c0.8-0.8,1.9-1.2,3-1.2c1.6,0,3,0.7,3,2.6v4.8h-1.6V214.9z M264.8,213
			c-0.4-0.5-1-0.8-1.7-0.8c-0.9,0-1.5,0.5-1.5,1.3c0,0.8,0.7,1.3,1.5,1.3c0.7,0,1.4-0.3,1.7-0.8V213z"/>
	</g>
	<path class="st6" d="M58.4,81.4V96 M55.1,81.4V96"/>
	<polygon class="st1" points="56.8,100.1 61.7,94.8 51.8,94.8 	"/>
	<path class="st6" d="M58.4,177.1v13.3 M55.1,177.1v13.3"/>
	<polygon class="st1" points="56.8,194.5 61.7,189.2 51.8,189.2 	"/>
	<line class="st0" x1="372.9" y1="177.1" x2="372.9" y2="188.7"/>
	<polygon class="st1" points="372.9,194.5 375.8,186.6 370.1,186.6 	"/>
	<path class="st0" d="M404.3,100.1c0-16.2-6-34.1-31.4-34.1"/>
	<polygon class="st1" points="367.2,66 375,68.9 375,63.2 	"/>
	<path class="st7" d="M143,5c0,0-3.5,0-3.5,3.5v69.2c0,0,0,3.5,3.5,3.5h99.7c0,0,3.5,0,3.5-3.5V8.6c0,0,0-3.5-3.5-3.5H143"/>
	<g>
		<path class="st3" d="M161.1,24.6v-4.2h-1.2V19h1.2v-2h1.6v2h1.5v1.4h-1.5v3.8c0,0.5,0.2,0.9,0.7,0.9c0.3,0,0.6-0.1,0.7-0.3
			l0.4,1.2c-0.3,0.3-0.8,0.5-1.5,0.5C161.8,26.5,161.1,25.8,161.1,24.6z"/>
		<path class="st3" d="M165.6,19h1.6v1.1c0.5-0.7,1.4-1.2,2.4-1.2v1.6c-0.1,0-0.3,0-0.5,0c-0.7,0-1.5,0.5-1.9,1v4.9h-1.6V19z"/>
		<path class="st3" d="M170.6,16.9c0-0.5,0.5-1,1-1c0.5,0,1,0.4,1,1s-0.4,1-1,1C171,17.8,170.6,17.4,170.6,16.9z M170.8,19h1.6v7.3
			h-1.6V19z"/>
		<path class="st3" d="M175.1,27c0.6,0.7,1.3,0.9,2.3,0.9c1,0,2.1-0.5,2.1-2v-0.9c-0.6,0.7-1.4,1.2-2.3,1.2c-1.8,0-3.2-1.3-3.2-3.7
			c0-2.3,1.4-3.7,3.2-3.7c0.9,0,1.7,0.4,2.3,1.2v-1h1.6v6.9c0,2.6-1.9,3.3-3.7,3.3c-1.2,0-2.1-0.3-3-1.1L175.1,27z M179.5,21.2
			c-0.3-0.5-1.1-1-1.9-1c-1.2,0-2,0.9-2,2.3c0,1.4,0.8,2.3,2,2.3c0.7,0,1.5-0.4,1.9-1V21.2z"/>
		<path class="st3" d="M183.8,27c0.6,0.7,1.3,0.9,2.3,0.9c1,0,2.1-0.5,2.1-2v-0.9c-0.6,0.7-1.4,1.2-2.3,1.2c-1.8,0-3.2-1.3-3.2-3.7
			c0-2.3,1.4-3.7,3.2-3.7c0.9,0,1.7,0.4,2.3,1.2v-1h1.6v6.9c0,2.6-1.9,3.3-3.7,3.3c-1.2,0-2.1-0.3-3-1.1L183.8,27z M188.2,21.2
			c-0.3-0.5-1.1-1-1.9-1c-1.2,0-2,0.9-2,2.3c0,1.4,0.8,2.3,2,2.3c0.7,0,1.5-0.4,1.9-1V21.2z"/>
		<path class="st3" d="M195.1,18.9c2.2,0,3.6,1.7,3.6,3.9v0.4H193c0.1,1.1,0.9,2,2.3,2c0.7,0,1.5-0.3,2.1-0.8l0.7,1
			c-0.7,0.7-1.8,1.1-2.9,1.1c-2.2,0-3.8-1.5-3.8-3.8C191.4,20.6,192.9,18.9,195.1,18.9z M193,22.1h4.1c0-0.9-0.6-1.9-2-1.9
			C193.7,20.1,193.1,21.2,193,22.1z"/>
		<path class="st3" d="M200.2,19h1.6v1.1c0.5-0.7,1.4-1.2,2.4-1.2v1.6c-0.1,0-0.3,0-0.5,0c-0.7,0-1.5,0.5-1.9,1v4.9h-1.6V19z"/>
		<path class="st3" d="M205.2,16.9c0-0.5,0.5-1,1-1c0.5,0,1,0.4,1,1s-0.4,1-1,1C205.7,17.8,205.2,17.4,205.2,16.9z M205.4,19h1.6
			v7.3h-1.6V19z"/>
		<path class="st3" d="M213.9,21.8c0-1.1-0.6-1.5-1.5-1.5c-0.8,0-1.5,0.5-1.9,1v5.1H209V19h1.6v1c0.5-0.6,1.4-1.2,2.6-1.2
			c1.6,0,2.3,0.8,2.3,2.3v5.1h-1.6V21.8z"/>
		<path class="st3" d="M218.2,27c0.6,0.7,1.3,0.9,2.3,0.9c1,0,2.1-0.5,2.1-2v-0.9c-0.6,0.7-1.4,1.2-2.3,1.2c-1.8,0-3.2-1.3-3.2-3.7
			c0-2.3,1.4-3.7,3.2-3.7c0.9,0,1.7,0.4,2.3,1.2v-1h1.6v6.9c0,2.6-1.9,3.3-3.7,3.3c-1.2,0-2.1-0.3-3-1.1L218.2,27z M222.6,21.2
			c-0.3-0.5-1.1-1-1.9-1c-1.2,0-2,0.9-2,2.3c0,1.4,0.8,2.3,2,2.3c0.7,0,1.5-0.4,1.9-1V21.2z"/>
	</g>
	<path class="st0" d="M246.3,119.6c15.7,0,33.1-6.3,33.1-32.5"/>
	<polygon class="st1" points="279.3,81.3 276.5,89.1 282.2,89.1 	"/>
	<path class="st6" d="M246.3,18.7h7.9 M246.3,22.1h7.9"/>
	<polygon class="st1" points="258.3,20.4 253,15.5 253,25.3 	"/>
	<line class="st0" x1="192" y1="194.5" x2="192" y2="182.8"/>
	<polygon class="st1" points="192,177.1 194.9,184.9 189.2,184.9 	"/>
	<path class="st8" d="M56.8,194.5c0,4.8,3.3,7,6.1,7h119.1c7.9,0,10.1-1.7,10.1-7"/>
	<rect x="27.6" y="40.8" class="st5" width="53.9" height="7"/>
	<g>
		<defs>
			<polyline id="SVGID_1_" points="81.5,47.7 27.6,47.7 27.6,40.8 81.5,40.8 81.5,47.7 			"/>
		</defs>
		<clipPath id="SVGID_2_">
			<use xlink:href="#SVGID_1_"  style="overflow:visible;"/>
		</clipPath>
		<polygon class="st9" points="32.1,41.1 31.1,41.1 29.9,46.6 28.7,41.1 27.6,41.1 29.2,47.7 30.6,47.7 32.1,41.1 		"/>
	</g>
	<path class="st10" d="M34.7,47.7v-4.9h-1.1v4.9H34.7L34.7,47.7z M34.6,41.8c0.1-0.1,0.2-0.2,0.2-0.4v-0.1c0-0.2-0.1-0.3-0.2-0.4
		c-0.1-0.1-0.3-0.1-0.5-0.1c-0.2,0-0.4,0-0.5,0.1c-0.1,0.1-0.2,0.2-0.2,0.4v0.1c0,0.2,0.1,0.3,0.2,0.4c0.1,0.1,0.3,0.1,0.5,0.1
		C34.3,41.9,34.5,41.9,34.6,41.8L34.6,41.8z"/>
	<g>
		<defs>
			<polyline id="SVGID_3_" points="81.5,47.7 27.6,47.7 27.6,40.8 81.5,40.8 81.5,47.7 			"/>
		</defs>
		<clipPath id="SVGID_4_">
			<use xlink:href="#SVGID_3_"  style="overflow:visible;"/>
		</clipPath>
		<path class="st11" d="M37.8,46.7c-0.1-0.1-0.1-0.3-0.1-0.6v-1.6c0-0.3,0.1-0.5,0.2-0.7c0.1-0.1,0.3-0.2,0.5-0.2
			c0.1,0,0.2,0,0.3,0.1c0.1,0,0.2,0.1,0.3,0.2v2.4c-0.1,0.2-0.2,0.4-0.4,0.5c-0.1,0.1-0.3,0.1-0.4,0.1C38,46.9,37.9,46.8,37.8,46.7
			L37.8,46.7z M39,46.9v0.7h1.1v-6.5H39v1.8c-0.1-0.1-0.3-0.1-0.4-0.2c-0.1,0-0.3-0.1-0.4-0.1c-0.5,0-0.9,0.1-1.2,0.4
			c-0.3,0.3-0.4,0.7-0.4,1.3v1.7c0,0.5,0.1,0.9,0.3,1.2c0.2,0.3,0.5,0.4,0.9,0.4c0.3,0,0.5-0.1,0.7-0.2s0.3-0.3,0.4-0.6H39L39,46.9z
			 M44.4,46.3c-0.1,0.2-0.2,0.4-0.3,0.5C44,46.9,43.8,47,43.6,47c-0.3,0-0.4-0.1-0.6-0.2c-0.1-0.1-0.2-0.4-0.2-0.7v-0.6h2.5v-1
			c0-0.6-0.2-1-0.5-1.3c-0.3-0.3-0.8-0.5-1.3-0.5c-0.6,0-1,0.2-1.3,0.5c-0.3,0.3-0.5,0.7-0.5,1.3V46c0,0.5,0.2,1,0.5,1.3
			c0.3,0.3,0.7,0.5,1.3,0.5c0.5,0,0.8-0.1,1.2-0.3c0.3-0.2,0.5-0.5,0.6-0.9L44.4,46.3L44.4,46.3z M43,43.7c0.1-0.1,0.3-0.2,0.5-0.2
			c0.2,0,0.4,0.1,0.5,0.2c0.1,0.2,0.2,0.4,0.2,0.8v0.3h-1.3v-0.3C42.9,44.1,42.9,43.8,43,43.7L43,43.7z M50,47.3
			c0.3-0.3,0.5-0.8,0.5-1.3v-1.5c0-0.6-0.2-1-0.5-1.3c-0.3-0.3-0.8-0.5-1.3-0.5c-0.6,0-1,0.2-1.3,0.5c-0.3,0.3-0.5,0.8-0.5,1.3V46
			c0,0.6,0.2,1,0.5,1.3c0.3,0.3,0.8,0.5,1.3,0.5S49.7,47.6,50,47.3L50,47.3z M48.2,46.7c-0.1-0.1-0.2-0.4-0.2-0.7v-1.4
			c0-0.3,0.1-0.6,0.2-0.7c0.1-0.2,0.3-0.2,0.5-0.2c0.2,0,0.4,0.1,0.5,0.2c0.1,0.2,0.2,0.4,0.2,0.7v1.4c0,0.3-0.1,0.6-0.2,0.7
			c-0.1,0.2-0.3,0.2-0.5,0.2C48.5,46.9,48.3,46.8,48.2,46.7L48.2,46.7z"/>
	</g>
	<path class="st10" d="M55.8,47.2c0.4-0.4,0.6-0.8,0.6-1.4c0-0.5-0.1-0.9-0.4-1.1c-0.3-0.3-0.7-0.5-1.4-0.7c-0.5-0.2-0.9-0.3-1-0.5
		c-0.2-0.1-0.3-0.3-0.3-0.6c0-0.3,0.1-0.5,0.2-0.6c0.2-0.1,0.4-0.2,0.7-0.2c0.3,0,0.5,0.1,0.8,0.2c0.3,0.1,0.6,0.3,0.8,0.5l0.2-0.8
		c-0.2-0.2-0.5-0.3-0.9-0.5c-0.3-0.1-0.7-0.2-1-0.2c-0.6,0-1.1,0.2-1.4,0.5c-0.4,0.3-0.5,0.8-0.5,1.4c0,0.5,0.1,0.9,0.4,1.2
		c0.3,0.3,0.8,0.5,1.4,0.7c0.5,0.2,0.8,0.3,1,0.5c0.2,0.1,0.3,0.3,0.3,0.6c0,0.3-0.1,0.5-0.2,0.7c-0.2,0.2-0.4,0.2-0.7,0.2
		c-0.3,0-0.6-0.1-1-0.2c-0.3-0.1-0.6-0.3-0.9-0.5l-0.2,0.9c0.3,0.2,0.6,0.4,1,0.5c0.4,0.1,0.7,0.2,1.1,0.2
		C54.9,47.7,55.4,47.5,55.8,47.2L55.8,47.2z"/>
	<g>
		<defs>
			<polyline id="SVGID_5_" points="81.5,47.7 27.6,47.7 27.6,40.8 81.5,40.8 81.5,47.7 			"/>
		</defs>
		<clipPath id="SVGID_6_">
			<use xlink:href="#SVGID_5_"  style="overflow:visible;"/>
		</clipPath>
		<path class="st12" d="M61,47.3c0.3-0.3,0.5-0.8,0.5-1.3v-1.5c0-0.6-0.2-1-0.5-1.3c-0.3-0.3-0.8-0.5-1.3-0.5c-0.6,0-1,0.2-1.3,0.5
			c-0.3,0.3-0.5,0.8-0.5,1.3V46c0,0.6,0.2,1,0.5,1.3c0.3,0.3,0.8,0.5,1.3,0.5S60.7,47.6,61,47.3L61,47.3z M59.2,46.7
			c-0.1-0.1-0.2-0.4-0.2-0.7v-1.4c0-0.3,0.1-0.6,0.2-0.7c0.1-0.2,0.3-0.2,0.5-0.2c0.2,0,0.4,0.1,0.5,0.2c0.1,0.2,0.2,0.4,0.2,0.7
			v1.4c0,0.3-0.1,0.6-0.2,0.7c-0.1,0.2-0.3,0.2-0.5,0.2C59.4,46.9,59.3,46.8,59.2,46.7L59.2,46.7z M64.9,47.5
			c0.2-0.1,0.3-0.3,0.4-0.6h0.2v0.7h1.1v-4.9h-1.1v3.4c-0.1,0.2-0.2,0.4-0.4,0.5c-0.1,0.1-0.3,0.2-0.5,0.2c-0.2,0-0.3-0.1-0.4-0.2
			c-0.1-0.1-0.1-0.3-0.1-0.6v-3.3h-1.1v3.5c0,0.5,0.1,0.8,0.3,1.1c0.2,0.3,0.5,0.4,0.8,0.4C64.5,47.8,64.7,47.7,64.9,47.5L64.9,47.5
			z"/>
	</g>
	<path class="st10" d="M69.4,47.7v-3.5c0.1-0.2,0.2-0.3,0.3-0.5c0.1-0.1,0.3-0.2,0.4-0.2c0.1,0,0.2,0,0.3,0.1
		c0.1,0.1,0.1,0.2,0.1,0.4v0.7h1V44c0-0.4-0.1-0.7-0.2-0.9c-0.2-0.2-0.4-0.3-0.7-0.3c-0.2,0-0.4,0.1-0.6,0.2
		c-0.2,0.1-0.3,0.3-0.4,0.6h-0.2v-0.7h-1.1v4.9H69.4L69.4,47.7z"/>
	<g>
		<defs>
			<polyline id="SVGID_7_" points="81.5,47.7 27.6,47.7 27.6,40.8 81.5,40.8 81.5,47.7 			"/>
		</defs>
		<clipPath id="SVGID_8_">
			<use xlink:href="#SVGID_7_"  style="overflow:visible;"/>
		</clipPath>
		<path class="st13" d="M75.9,47.4c0.3-0.3,0.5-0.7,0.5-1.2l-1.1-0.1c0,0.3-0.1,0.5-0.2,0.6c-0.1,0.1-0.3,0.2-0.5,0.2
			c-0.3,0-0.5-0.1-0.6-0.2c-0.1-0.1-0.2-0.4-0.2-0.7v-1.6c0-0.3,0.1-0.6,0.2-0.7c0.1-0.1,0.3-0.2,0.6-0.2c0.3,0,0.4,0.1,0.5,0.2
			c0.1,0.1,0.2,0.4,0.2,0.7l1.1-0.1c0-0.6-0.2-1-0.5-1.3c-0.3-0.3-0.7-0.4-1.3-0.4c-0.6,0-1,0.1-1.3,0.4c-0.3,0.3-0.5,0.7-0.5,1.3
			V46c0,0.5,0.2,1,0.5,1.3c0.3,0.3,0.8,0.4,1.4,0.4C75.2,47.8,75.6,47.6,75.9,47.4L75.9,47.4z M80.6,46.3c-0.1,0.2-0.2,0.4-0.3,0.5
			C80.2,46.9,80,47,79.8,47c-0.3,0-0.4-0.1-0.6-0.2c-0.1-0.1-0.2-0.4-0.2-0.7v-0.6h2.5v-1c0-0.6-0.2-1-0.5-1.3
			c-0.3-0.3-0.8-0.5-1.3-0.5c-0.6,0-1,0.2-1.3,0.5c-0.3,0.3-0.5,0.7-0.5,1.3V46c0,0.5,0.2,1,0.5,1.3c0.3,0.3,0.7,0.5,1.3,0.5
			c0.5,0,0.8-0.1,1.2-0.3c0.3-0.2,0.5-0.5,0.6-0.9L80.6,46.3L80.6,46.3z M79.2,43.7c0.1-0.1,0.3-0.2,0.5-0.2c0.2,0,0.4,0.1,0.5,0.2
			c0.1,0.2,0.2,0.4,0.2,0.8v0.3h-1.3v-0.3C79.1,44.1,79.1,43.8,79.2,43.7L79.2,43.7z"/>
	</g>
	<rect x="38.6" y="62.6" class="st5" width="32.7" height="6.7"/>
	<g>
		<defs>
			<polyline id="SVGID_9_" points="71.3,69.3 38.6,69.3 38.6,62.6 71.3,62.6 71.3,69.3 			"/>
		</defs>
		<clipPath id="SVGID_10_">
			<use xlink:href="#SVGID_9_"  style="overflow:visible;"/>
		</clipPath>
		<path class="st14" d="M42.3,68.8c0.4-0.4,0.6-0.9,0.6-1.7L41.8,67c0,0.5-0.1,0.9-0.3,1.1c-0.2,0.2-0.4,0.3-0.8,0.3
			c-0.4,0-0.7-0.1-0.8-0.3c-0.2-0.2-0.2-0.5-0.2-1v-2.3c0-0.5,0.1-0.9,0.2-1.1c0.2-0.2,0.4-0.3,0.8-0.3c0.4,0,0.6,0.1,0.8,0.3
			c0.2,0.2,0.3,0.6,0.3,1.1l1.1-0.1c0-0.8-0.2-1.3-0.6-1.7c-0.4-0.4-0.9-0.6-1.6-0.6c-0.8,0-1.3,0.2-1.7,0.6
			c-0.4,0.4-0.5,0.9-0.5,1.6v2.4c0,0.7,0.2,1.2,0.5,1.6c0.4,0.4,0.9,0.6,1.7,0.6C41.5,69.4,42,69.2,42.3,68.8L42.3,68.8z M45.6,68.4
			c-0.1-0.1-0.1-0.3-0.1-0.5c0-0.3,0-0.4,0.1-0.5c0.1-0.1,0.2-0.1,0.4-0.1h0.9v0.9c-0.1,0.2-0.2,0.3-0.4,0.4
			c-0.2,0.1-0.3,0.1-0.5,0.1C45.8,68.6,45.7,68.5,45.6,68.4L45.6,68.4z M46.6,69.1c0.2-0.1,0.4-0.3,0.6-0.6h0.2
			c0.1,0.3,0.2,0.5,0.5,0.7c0.2,0.1,0.5,0.1,0.9,0v-0.9c-0.3,0.1-0.4,0-0.6,0C48,68.3,48,68.2,48,67.9v-2.2c0-0.5-0.1-0.9-0.4-1.1
			c-0.3-0.2-0.7-0.3-1.2-0.3c-0.5,0-0.9,0.1-1.2,0.3c-0.3,0.2-0.5,0.6-0.6,1.1l0.9,0.2c0.1-0.3,0.1-0.6,0.2-0.7s0.3-0.2,0.5-0.2
			c0.2,0,0.4,0.1,0.5,0.2c0.1,0.1,0.2,0.3,0.2,0.5v0.8h-1.1c-0.4,0-0.8,0.1-1,0.4c-0.3,0.2-0.4,0.6-0.4,1s0.1,0.8,0.4,1
			c0.2,0.2,0.6,0.4,1,0.4C46.1,69.4,46.3,69.3,46.6,69.1L46.6,69.1z"/>
	</g>
	<path class="st10" d="M51.6,65.3c0.1-0.1,0.2-0.1,0.4-0.1c0.1,0,0.2,0.1,0.3,0.2c0.1,0.1,0.1,0.3,0.1,0.5v3.5h1.1v-3.5
		c0.1-0.2,0.2-0.3,0.3-0.4c0.1-0.1,0.2-0.1,0.4-0.1c0.1,0,0.2,0.1,0.3,0.2c0.1,0.1,0.1,0.3,0.1,0.5v3.5h1.1v-3.5
		c0-0.5-0.1-0.8-0.3-1.1c-0.2-0.3-0.4-0.4-0.7-0.4c-0.2,0-0.4,0.1-0.6,0.2c-0.2,0.1-0.3,0.3-0.4,0.5h-0.3c-0.1-0.2-0.2-0.4-0.3-0.6
		c-0.2-0.1-0.3-0.2-0.5-0.2c-0.2,0-0.4,0.1-0.6,0.2c-0.2,0.1-0.3,0.3-0.4,0.5h-0.2v-0.7h-1.1v4.9h1.1v-3.5
		C51.4,65.5,51.5,65.4,51.6,65.3L51.6,65.3z"/>
	<g>
		<defs>
			<polyline id="SVGID_11_" points="71.3,69.3 38.6,69.3 38.6,62.6 71.3,62.6 71.3,69.3 			"/>
		</defs>
		<clipPath id="SVGID_12_">
			<use xlink:href="#SVGID_11_"  style="overflow:visible;"/>
		</clipPath>
		<path class="st15" d="M59.8,67.9c-0.1,0.2-0.2,0.4-0.3,0.5c-0.1,0.1-0.3,0.1-0.5,0.1c-0.3,0-0.4-0.1-0.6-0.2
			c-0.1-0.1-0.2-0.4-0.2-0.7V67h2.5v-1c0-0.6-0.2-1-0.5-1.3c-0.3-0.3-0.8-0.5-1.3-0.5c-0.6,0-1,0.2-1.3,0.5
			c-0.3,0.3-0.5,0.7-0.5,1.3v1.6c0,0.5,0.2,1,0.5,1.3c0.3,0.3,0.7,0.5,1.3,0.5c0.5,0,0.8-0.1,1.2-0.3c0.3-0.2,0.5-0.5,0.6-0.9
			L59.8,67.9L59.8,67.9z M58.5,65.3c0.1-0.1,0.3-0.2,0.5-0.2c0.2,0,0.4,0.1,0.5,0.2c0.1,0.2,0.2,0.4,0.2,0.8v0.3h-1.3V66
			C58.3,65.7,58.3,65.4,58.5,65.3L58.5,65.3z"/>
	</g>
	<path class="st10" d="M63.5,69.3v-3.5c0.1-0.2,0.2-0.3,0.3-0.5c0.1-0.1,0.3-0.2,0.4-0.2c0.1,0,0.2,0,0.3,0.1
		c0.1,0.1,0.1,0.2,0.1,0.4v0.7h1v-0.9c0-0.4-0.1-0.7-0.2-0.9c-0.2-0.2-0.4-0.3-0.7-0.3c-0.2,0-0.4,0.1-0.6,0.2
		c-0.2,0.1-0.3,0.3-0.4,0.6h-0.2v-0.7h-1.1v4.9H63.5L63.5,69.3z"/>
	<g>
		<defs>
			<polyline id="SVGID_13_" points="71.3,69.3 38.6,69.3 38.6,62.6 71.3,62.6 71.3,69.3 			"/>
		</defs>
		<clipPath id="SVGID_14_">
			<use xlink:href="#SVGID_13_"  style="overflow:visible;"/>
		</clipPath>
		<path class="st16" d="M68.2,68.4c-0.1-0.1-0.1-0.3-0.1-0.5c0-0.3,0-0.4,0.1-0.5c0.1-0.1,0.2-0.1,0.4-0.1h0.9v0.9
			c-0.1,0.2-0.2,0.3-0.4,0.4c-0.2,0.1-0.3,0.1-0.5,0.1C68.4,68.6,68.2,68.5,68.2,68.4L68.2,68.4z M69.1,69.1
			c0.2-0.1,0.4-0.3,0.6-0.6h0.2c0.1,0.3,0.2,0.5,0.5,0.7c0.2,0.1,0.5,0.1,0.9,0v-0.9c-0.3,0.1-0.4,0-0.6,0c-0.1-0.1-0.2-0.2-0.2-0.5
			v-2.2c0-0.5-0.1-0.9-0.4-1.1c-0.3-0.2-0.7-0.3-1.2-0.3c-0.5,0-0.9,0.1-1.2,0.3c-0.3,0.2-0.5,0.6-0.6,1.1l0.9,0.2
			c0.1-0.3,0.1-0.6,0.2-0.7s0.3-0.2,0.5-0.2c0.2,0,0.4,0.1,0.5,0.2c0.1,0.1,0.2,0.3,0.2,0.5v0.8h-1.1c-0.4,0-0.8,0.1-1,0.4
			c-0.3,0.2-0.4,0.6-0.4,1s0.1,0.8,0.4,1c0.2,0.2,0.6,0.4,1,0.4C68.6,69.4,68.9,69.3,69.1,69.1L69.1,69.1z"/>
	</g>
	<rect x="17" y="135.9" class="st2" width="76" height="8.5"/>
	<path class="st17" d="M18.1,142.8v-2.5h2.1v-0.9h-2.1v-2.3h2.6v-0.9H17v6.5H18.1L18.1,142.8z M23.3,142.8v-3.5
		c0.1-0.2,0.2-0.3,0.3-0.5c0.1-0.1,0.3-0.2,0.4-0.2c0.1,0,0.2,0,0.3,0.1c0.1,0.1,0.1,0.2,0.1,0.4v0.7h1v-0.9c0-0.4-0.1-0.7-0.2-0.9
		c-0.2-0.2-0.4-0.3-0.7-0.3c-0.2,0-0.4,0.1-0.6,0.2c-0.2,0.1-0.3,0.3-0.4,0.6h-0.2v-0.7h-1.1v4.9H23.3L23.3,142.8z M27.9,141.9
		c-0.1-0.1-0.1-0.3-0.1-0.5c0-0.3,0-0.4,0.1-0.5c0.1-0.1,0.2-0.1,0.4-0.1h0.9v0.9c-0.1,0.2-0.2,0.3-0.4,0.4
		c-0.2,0.1-0.3,0.1-0.5,0.1C28.2,142.1,28,142,27.9,141.9L27.9,141.9z M28.9,142.7c0.2-0.1,0.4-0.3,0.6-0.6h0.2
		c0.1,0.3,0.2,0.5,0.5,0.7c0.2,0.1,0.5,0.1,0.9,0V142c-0.3,0.1-0.4,0-0.6,0c-0.1-0.1-0.2-0.2-0.2-0.5v-2.2c0-0.5-0.1-0.9-0.4-1.1
		c-0.3-0.2-0.7-0.3-1.2-0.3c-0.5,0-0.9,0.1-1.2,0.3c-0.3,0.2-0.5,0.6-0.6,1.1l0.9,0.2c0.1-0.3,0.1-0.6,0.2-0.7s0.3-0.2,0.5-0.2
		c0.2,0,0.4,0.1,0.5,0.2c0.1,0.1,0.2,0.3,0.2,0.5v0.8h-1.1c-0.4,0-0.8,0.1-1,0.4c-0.3,0.2-0.4,0.6-0.4,1s0.1,0.8,0.4,1
		c0.2,0.2,0.6,0.4,1,0.4C28.4,142.9,28.7,142.8,28.9,142.7L28.9,142.7z M33.9,138.8c0.1-0.1,0.2-0.1,0.4-0.1c0.1,0,0.2,0.1,0.3,0.2
		c0.1,0.1,0.1,0.3,0.1,0.5v3.5h1.1v-3.5c0.1-0.2,0.2-0.3,0.3-0.4c0.1-0.1,0.2-0.1,0.4-0.1c0.1,0,0.2,0.1,0.3,0.2
		c0.1,0.1,0.1,0.3,0.1,0.5v3.5h1.1v-3.5c0-0.5-0.1-0.8-0.3-1.1c-0.2-0.3-0.4-0.4-0.7-0.4c-0.2,0-0.4,0.1-0.6,0.2
		c-0.2,0.1-0.3,0.3-0.4,0.5h-0.3c-0.1-0.2-0.2-0.4-0.3-0.6c-0.2-0.1-0.3-0.2-0.5-0.2c-0.2,0-0.4,0.1-0.6,0.2
		c-0.2,0.1-0.3,0.3-0.4,0.5h-0.2v-0.7h-1.1v4.9h1.1v-3.5C33.7,139.1,33.8,138.9,33.9,138.8L33.9,138.8z M42.1,141.4
		c-0.1,0.2-0.2,0.4-0.3,0.5c-0.1,0.1-0.3,0.1-0.5,0.1c-0.3,0-0.4-0.1-0.6-0.2c-0.1-0.1-0.2-0.4-0.2-0.7v-0.6h2.5v-1
		c0-0.6-0.2-1-0.5-1.3c-0.3-0.3-0.8-0.5-1.3-0.5c-0.6,0-1,0.2-1.3,0.5c-0.3,0.3-0.5,0.7-0.5,1.3v1.6c0,0.5,0.2,1,0.5,1.3
		c0.3,0.3,0.7,0.5,1.3,0.5c0.5,0,0.8-0.1,1.2-0.3c0.3-0.2,0.5-0.5,0.6-0.9L42.1,141.4L42.1,141.4z M40.8,138.8
		c0.1-0.1,0.3-0.2,0.5-0.2c0.2,0,0.4,0.1,0.5,0.2c0.1,0.2,0.2,0.4,0.2,0.8v0.3h-1.3v-0.3C40.6,139.2,40.7,139,40.8,138.8L40.8,138.8
		z M46.7,142.8c0.7,0,1.2-0.2,1.6-0.6c0.4-0.4,0.6-0.9,0.6-1.6v-2.2c0-0.7-0.2-1.2-0.6-1.6c-0.4-0.4-0.9-0.6-1.6-0.6h-2.1v6.5H46.7
		L46.7,142.8z M45.8,137.1h0.8c0.4,0,0.7,0.1,0.9,0.3c0.2,0.2,0.3,0.6,0.3,1.1v2.1c0,0.5-0.1,0.8-0.3,1c-0.2,0.2-0.5,0.3-0.9,0.3
		h-0.8V137.1L45.8,137.1z M51.9,142.8v-4.9h-1.1v4.9H51.9L51.9,142.8z M51.8,136.9c0.1-0.1,0.2-0.2,0.2-0.4v-0.1
		c0-0.2-0.1-0.3-0.2-0.4c-0.1-0.1-0.3-0.1-0.5-0.1c-0.2,0-0.4,0-0.5,0.1c-0.1,0.1-0.2,0.2-0.2,0.4v0.1c0,0.2,0.1,0.3,0.2,0.4
		c0.1,0.1,0.3,0.1,0.5,0.1C51.5,137,51.7,137,51.8,136.9L51.8,136.9z M56.9,142.5c0.3-0.3,0.5-0.6,0.5-1.1c0-0.4-0.1-0.7-0.3-0.9
		c-0.2-0.2-0.6-0.4-1-0.5c-0.4-0.1-0.7-0.2-0.9-0.3c-0.2-0.1-0.2-0.2-0.2-0.5c0-0.2,0.1-0.3,0.2-0.4c0.1-0.1,0.3-0.1,0.5-0.1
		c0.2,0,0.4,0,0.7,0.1c0.2,0.1,0.5,0.2,0.7,0.4l0.2-0.7c-0.2-0.2-0.5-0.3-0.8-0.4c-0.3-0.1-0.6-0.2-0.9-0.2c-0.5,0-0.9,0.1-1.2,0.4
		c-0.3,0.3-0.4,0.6-0.4,1.1c0,0.5,0.1,0.8,0.4,1c0.3,0.2,0.6,0.4,1,0.5c0.4,0.1,0.7,0.2,0.8,0.3c0.1,0.1,0.2,0.2,0.2,0.5
		c0,0.2-0.1,0.3-0.2,0.4c-0.1,0.1-0.3,0.1-0.5,0.1c-0.3,0-0.5-0.1-0.8-0.2c-0.3-0.1-0.5-0.2-0.8-0.4l-0.3,0.7
		c0.2,0.2,0.5,0.3,0.8,0.4c0.3,0.1,0.7,0.2,1,0.2C56.1,142.9,56.6,142.7,56.9,142.5L56.9,142.5z M60.4,142c-0.1,0-0.2-0.1-0.3-0.2
		v-2.5c0.1-0.2,0.2-0.3,0.4-0.4c0.1-0.1,0.3-0.1,0.4-0.1c0.2,0,0.3,0.1,0.4,0.2c0.1,0.1,0.1,0.3,0.1,0.6v1.6c0,0.3-0.1,0.5-0.2,0.7
		c-0.1,0.1-0.3,0.2-0.5,0.2C60.6,142,60.5,142,60.4,142L60.4,142z M62.1,142.4c0.3-0.3,0.4-0.7,0.4-1.3v-1.7c0-0.5-0.1-0.9-0.3-1.2
		c-0.2-0.3-0.5-0.4-0.9-0.4c-0.3,0-0.5,0.1-0.7,0.2c-0.2,0.1-0.3,0.3-0.4,0.6H60v-0.7h-1.1v6.5H60v-1.8c0.1,0.1,0.3,0.1,0.4,0.2
		c0.1,0,0.3,0.1,0.4,0.1C61.4,142.9,61.8,142.7,62.1,142.4L62.1,142.4z M65.3,141.9c-0.1-0.1-0.1-0.3-0.1-0.5c0-0.3,0-0.4,0.1-0.5
		c0.1-0.1,0.2-0.1,0.4-0.1h0.9v0.9c-0.1,0.2-0.2,0.3-0.4,0.4c-0.2,0.1-0.3,0.1-0.5,0.1C65.6,142.1,65.4,142,65.3,141.9L65.3,141.9z
		 M66.3,142.7c0.2-0.1,0.4-0.3,0.6-0.6h0.2c0.1,0.3,0.2,0.5,0.5,0.7c0.2,0.1,0.5,0.1,0.9,0V142c-0.3,0.1-0.4,0-0.6,0
		c-0.1-0.1-0.2-0.2-0.2-0.5v-2.2c0-0.5-0.1-0.9-0.4-1.1c-0.3-0.2-0.7-0.3-1.2-0.3c-0.5,0-0.9,0.1-1.2,0.3c-0.3,0.2-0.5,0.6-0.6,1.1
		l0.9,0.2c0.1-0.3,0.1-0.6,0.2-0.7s0.3-0.2,0.5-0.2c0.2,0,0.4,0.1,0.5,0.2c0.1,0.1,0.2,0.3,0.2,0.5v0.8h-1.1c-0.4,0-0.8,0.1-1,0.4
		c-0.3,0.2-0.4,0.6-0.4,1s0.1,0.8,0.4,1c0.2,0.2,0.6,0.4,1,0.4C65.8,142.9,66.1,142.8,66.3,142.7L66.3,142.7z"/>
	<path class="st17" d="M72.3,142.8c0.2,0,0.3-0.1,0.4-0.1l-0.1-0.8c-0.1,0.1-0.2,0.1-0.3,0.1c-0.1,0-0.2,0-0.3,0
		c-0.2,0-0.3-0.1-0.4-0.2c-0.1-0.1-0.2-0.3-0.2-0.6v-2.5h1.3v-0.8h-1.3v-1.6h-1.1v1.6h-0.7v0.8h0.7v2.6c0,0.5,0.1,0.9,0.4,1.2
		c0.3,0.3,0.6,0.4,1.1,0.4C71.9,142.9,72.1,142.9,72.3,142.8L72.3,142.8z M77.3,142.5c0.3-0.3,0.5-0.7,0.5-1.2l-1.1-0.1
		c0,0.3-0.1,0.5-0.2,0.6c-0.1,0.1-0.3,0.2-0.5,0.2c-0.3,0-0.5-0.1-0.6-0.2c-0.1-0.1-0.2-0.4-0.2-0.7v-1.6c0-0.3,0.1-0.6,0.2-0.7
		c0.1-0.1,0.3-0.2,0.6-0.2c0.3,0,0.4,0.1,0.5,0.2c0.1,0.1,0.2,0.4,0.2,0.7l1.1-0.1c0-0.6-0.2-1-0.5-1.3c-0.3-0.3-0.7-0.4-1.3-0.4
		c-0.6,0-1,0.1-1.3,0.4c-0.3,0.3-0.5,0.7-0.5,1.3v1.6c0,0.5,0.2,1,0.5,1.3c0.3,0.3,0.8,0.4,1.4,0.4C76.6,142.9,77,142.7,77.3,142.5
		L77.3,142.5z M80.5,142.8v-3.4c0.1-0.2,0.2-0.4,0.4-0.5c0.1-0.1,0.3-0.2,0.5-0.2c0.2,0,0.3,0.1,0.4,0.2c0.1,0.1,0.1,0.3,0.1,0.6
		v3.3h1.1v-3.5c0-0.5-0.1-0.8-0.3-1.1c-0.2-0.3-0.5-0.4-0.8-0.4c-0.3,0-0.5,0.1-0.7,0.2c-0.2,0.1-0.4,0.3-0.4,0.6h-0.2v-2.3h-1.1
		v6.5H80.5L80.5,142.8z M87.2,141.4c-0.1,0.2-0.2,0.4-0.3,0.5c-0.1,0.1-0.3,0.1-0.5,0.1c-0.3,0-0.4-0.1-0.6-0.2
		c-0.1-0.1-0.2-0.4-0.2-0.7v-0.6h2.5v-1c0-0.6-0.2-1-0.5-1.3c-0.3-0.3-0.8-0.5-1.3-0.5c-0.6,0-1,0.2-1.3,0.5
		c-0.3,0.3-0.5,0.7-0.5,1.3v1.6c0,0.5,0.2,1,0.5,1.3c0.3,0.3,0.7,0.5,1.3,0.5c0.5,0,0.8-0.1,1.2-0.3c0.3-0.2,0.5-0.5,0.6-0.9
		L87.2,141.4L87.2,141.4z M85.8,138.8c0.1-0.1,0.3-0.2,0.5-0.2c0.2,0,0.4,0.1,0.5,0.2c0.1,0.2,0.2,0.4,0.2,0.8v0.3h-1.3v-0.3
		C85.7,139.2,85.7,139,85.8,138.8L85.8,138.8z"/>
	<g>
		<defs>
			<polyline id="SVGID_15_" points="93,144.4 17,144.4 17,135.9 93,135.9 93,144.4 			"/>
		</defs>
		<clipPath id="SVGID_16_">
			<use xlink:href="#SVGID_15_"  style="overflow:visible;"/>
		</clipPath>
		<path class="st18" d="M90.8,142.8v-3.5c0.1-0.2,0.2-0.3,0.3-0.5c0.1-0.1,0.3-0.2,0.4-0.2c0.1,0,0.2,0,0.3,0.1
			c0.1,0.1,0.1,0.2,0.1,0.4v0.7h1v-0.9c0-0.4-0.1-0.7-0.2-0.9c-0.2-0.2-0.4-0.3-0.7-0.3c-0.2,0-0.4,0.1-0.6,0.2
			c-0.2,0.1-0.3,0.3-0.4,0.6h-0.2v-0.7h-1.1v4.9H90.8L90.8,142.8z"/>
	</g>
	<rect x="37.4" y="157.5" class="st2" width="34.8" height="8.5"/>
	<path class="st17" d="M38.5,164.4v-2.2h0.9c0.6,0,1-0.1,1.3-0.4s0.4-0.7,0.4-1.3v-0.8c0-0.6-0.1-1-0.4-1.3
		c-0.3-0.3-0.7-0.4-1.3-0.4h-2v6.5H38.5L38.5,164.4z M38.5,158.7h0.7c0.3,0,0.5,0.1,0.6,0.2c0.1,0.1,0.2,0.4,0.2,0.7v0.7
		c0,0.3-0.1,0.6-0.2,0.7c-0.1,0.1-0.3,0.2-0.6,0.2h-0.7V158.7L38.5,158.7z M44,164.4v-4.9h-1.1v4.9H44L44,164.4z M44,158.5
		c0.1-0.1,0.2-0.2,0.2-0.4V158c0-0.2-0.1-0.3-0.2-0.4c-0.1-0.1-0.3-0.1-0.5-0.1c-0.2,0-0.4,0-0.5,0.1c-0.1,0.1-0.2,0.2-0.2,0.4v0.1
		c0,0.2,0.1,0.3,0.2,0.4c0.1,0.1,0.3,0.1,0.5,0.1C43.6,158.6,43.8,158.6,44,158.5L44,158.5z M47.3,163.6c-0.1,0-0.2-0.1-0.3-0.2
		v-2.5c0.1-0.2,0.2-0.3,0.4-0.4c0.1-0.1,0.3-0.1,0.4-0.1c0.2,0,0.3,0.1,0.4,0.2c0.1,0.1,0.1,0.3,0.1,0.6v1.6c0,0.3-0.1,0.5-0.2,0.7
		c-0.1,0.1-0.3,0.2-0.5,0.2C47.6,163.6,47.4,163.6,47.3,163.6L47.3,163.6z M49,164c0.3-0.3,0.4-0.7,0.4-1.3v-1.7
		c0-0.5-0.1-0.9-0.3-1.2c-0.2-0.3-0.5-0.4-0.9-0.4c-0.3,0-0.5,0.1-0.7,0.2c-0.2,0.1-0.3,0.3-0.4,0.6H47v-0.7h-1.1v6.5H47v-1.8
		c0.1,0.1,0.3,0.1,0.4,0.2c0.1,0,0.3,0.1,0.4,0.1C48.4,164.5,48.8,164.3,49,164L49,164z M53.7,163c-0.1,0.2-0.2,0.4-0.3,0.5
		c-0.1,0.1-0.3,0.1-0.5,0.1c-0.3,0-0.4-0.1-0.6-0.2c-0.1-0.1-0.2-0.4-0.2-0.7v-0.6h2.5v-1c0-0.6-0.2-1-0.5-1.3
		c-0.3-0.3-0.8-0.5-1.3-0.5c-0.6,0-1,0.2-1.3,0.5c-0.3,0.3-0.5,0.7-0.5,1.3v1.6c0,0.5,0.2,1,0.5,1.3c0.3,0.3,0.7,0.5,1.3,0.5
		c0.5,0,0.8-0.1,1.2-0.3c0.3-0.2,0.5-0.5,0.6-0.9L53.7,163L53.7,163z M52.3,160.4c0.1-0.1,0.3-0.2,0.5-0.2c0.2,0,0.4,0.1,0.5,0.2
		c0.1,0.2,0.2,0.4,0.2,0.8v0.3h-1.3v-0.3C52.2,160.8,52.2,160.6,52.3,160.4L52.3,160.4z M58.4,164.4c0.2,0,0.3-0.1,0.4-0.2l-0.2-0.8
		c-0.1,0-0.2,0.1-0.3,0.1c-0.1,0-0.2,0-0.3,0c-0.2,0-0.3-0.1-0.4-0.2c-0.1-0.1-0.1-0.4-0.1-0.6v-4.9h-1.1v4.9c0,0.6,0.1,1,0.4,1.3
		c0.3,0.3,0.6,0.5,1.1,0.5C58.1,164.5,58.3,164.4,58.4,164.4L58.4,164.4z M61.6,164.4v-4.9h-1.1v4.9H61.6L61.6,164.4z M61.5,158.5
		c0.1-0.1,0.2-0.2,0.2-0.4V158c0-0.2-0.1-0.3-0.2-0.4c-0.1-0.1-0.3-0.1-0.5-0.1c-0.2,0-0.4,0-0.5,0.1c-0.1,0.1-0.2,0.2-0.2,0.4v0.1
		c0,0.2,0.1,0.3,0.2,0.4c0.1,0.1,0.3,0.1,0.5,0.1C61.2,158.6,61.4,158.6,61.5,158.5L61.5,158.5z M64.6,164.4V161
		c0.1-0.2,0.2-0.4,0.4-0.5c0.1-0.1,0.3-0.2,0.5-0.2c0.2,0,0.3,0.1,0.4,0.2c0.1,0.1,0.1,0.3,0.1,0.6v3.3H67v-3.5
		c0-0.5-0.1-0.8-0.3-1.1c-0.2-0.3-0.5-0.4-0.8-0.4c-0.3,0-0.5,0.1-0.7,0.2c-0.2,0.1-0.4,0.3-0.4,0.6h-0.2v-0.7h-1.1v4.9H64.6
		L64.6,164.4z"/>
	<g>
		<defs>
			<polyline id="SVGID_17_" points="72.2,166 37.4,166 37.4,157.5 72.2,157.5 72.2,166 			"/>
		</defs>
		<clipPath id="SVGID_18_">
			<use xlink:href="#SVGID_17_"  style="overflow:visible;"/>
		</clipPath>
		<path class="st19" d="M71.3,163c-0.1,0.2-0.2,0.4-0.3,0.5c-0.1,0.1-0.3,0.1-0.5,0.1c-0.3,0-0.4-0.1-0.6-0.2
			c-0.1-0.1-0.2-0.4-0.2-0.7v-0.6h2.5v-1c0-0.6-0.2-1-0.5-1.3c-0.3-0.3-0.8-0.5-1.3-0.5c-0.6,0-1,0.2-1.3,0.5
			c-0.3,0.3-0.5,0.7-0.5,1.3v1.6c0,0.5,0.2,1,0.5,1.3c0.3,0.3,0.7,0.5,1.3,0.5c0.5,0,0.8-0.1,1.2-0.3c0.3-0.2,0.5-0.5,0.6-0.9
			L71.3,163L71.3,163z M69.9,160.4c0.1-0.1,0.3-0.2,0.5-0.2c0.2,0,0.4,0.1,0.5,0.2c0.1,0.2,0.2,0.4,0.2,0.8v0.3h-1.3v-0.3
			C69.8,160.8,69.8,160.6,69.9,160.4L69.9,160.4z"/>
	</g>
	<rect x="170.3" y="142.4" class="st4" width="43.7" height="7"/>
	<path class="st20" d="M173.9,149.3v-0.9h-2.5v-2.2h2.2v-0.9h-2.2v-1.7h2.5v-0.9h-3.6v6.5H173.9L173.9,149.3z M178.6,149
		c0.3-0.3,0.5-0.6,0.5-1.1c0-0.4-0.1-0.7-0.3-0.9c-0.2-0.2-0.6-0.4-1-0.5c-0.4-0.1-0.7-0.2-0.9-0.3c-0.2-0.1-0.2-0.2-0.2-0.5
		c0-0.2,0.1-0.3,0.2-0.4c0.1-0.1,0.3-0.1,0.5-0.1c0.2,0,0.4,0,0.7,0.1c0.2,0.1,0.5,0.2,0.7,0.4l0.2-0.7c-0.2-0.2-0.5-0.3-0.8-0.4
		c-0.3-0.1-0.6-0.2-0.9-0.2c-0.5,0-0.9,0.1-1.2,0.4c-0.3,0.3-0.4,0.6-0.4,1.1c0,0.5,0.1,0.8,0.4,1c0.3,0.2,0.6,0.4,1,0.5
		c0.4,0.1,0.7,0.2,0.8,0.3c0.1,0.1,0.2,0.2,0.2,0.5c0,0.2-0.1,0.3-0.2,0.4c-0.1,0.1-0.3,0.1-0.5,0.1c-0.3,0-0.5-0.1-0.8-0.2
		c-0.3-0.1-0.5-0.2-0.8-0.4l-0.3,0.7c0.2,0.2,0.5,0.3,0.8,0.4c0.3,0.1,0.7,0.2,1,0.2C177.9,149.4,178.3,149.3,178.6,149L178.6,149z"
		/>
	<g>
		<defs>
			<polyline id="SVGID_19_" points="214,149.4 170.3,149.4 170.3,142.4 214,142.4 214,149.4 			"/>
		</defs>
		<clipPath id="SVGID_20_">
			<use xlink:href="#SVGID_19_"  style="overflow:visible;"/>
		</clipPath>
		<path class="st21" d="M183.3,149.3c0.2,0,0.3-0.1,0.4-0.1l-0.1-0.8c-0.1,0.1-0.2,0.1-0.3,0.1c-0.1,0-0.2,0-0.3,0
			c-0.2,0-0.3-0.1-0.4-0.2c-0.1-0.1-0.2-0.3-0.2-0.6v-2.5h1.3v-0.8h-1.3v-1.6h-1.1v1.6h-0.7v0.8h0.7v2.6c0,0.5,0.1,0.9,0.4,1.2
			c0.3,0.3,0.6,0.4,1.1,0.4C183,149.4,183.2,149.4,183.3,149.3L183.3,149.3z"/>
	</g>
	<path class="st20" d="M186.7,149.3v-4.9h-1.1v4.9H186.7L186.7,149.3z M186.6,143.4c0.1-0.1,0.2-0.2,0.2-0.4V143
		c0-0.2-0.1-0.3-0.2-0.4c-0.1-0.1-0.3-0.1-0.5-0.1c-0.2,0-0.4,0-0.5,0.1c-0.1,0.1-0.2,0.2-0.2,0.4v0.1c0,0.2,0.1,0.3,0.2,0.4
		c0.1,0.1,0.3,0.1,0.5,0.1C186.3,143.6,186.5,143.5,186.6,143.4L186.6,143.4z M190,145.4c0.1-0.1,0.2-0.1,0.4-0.1
		c0.1,0,0.2,0.1,0.3,0.2c0.1,0.1,0.1,0.3,0.1,0.5v3.5h1.1v-3.5c0.1-0.2,0.2-0.3,0.3-0.4c0.1-0.1,0.2-0.1,0.4-0.1
		c0.1,0,0.2,0.1,0.3,0.2c0.1,0.1,0.1,0.3,0.1,0.5v3.5h1.1v-3.5c0-0.5-0.1-0.8-0.3-1.1c-0.2-0.3-0.4-0.4-0.7-0.4
		c-0.2,0-0.4,0.1-0.6,0.2c-0.2,0.1-0.3,0.3-0.4,0.5h-0.3c-0.1-0.2-0.2-0.4-0.3-0.6c-0.2-0.1-0.3-0.2-0.5-0.2c-0.2,0-0.4,0.1-0.6,0.2
		c-0.2,0.1-0.3,0.3-0.4,0.5h-0.2v-0.7h-1.1v4.9h1.1v-3.5C189.8,145.6,189.9,145.5,190,145.4L190,145.4z"/>
	<g>
		<defs>
			<polyline id="SVGID_21_" points="214,149.4 170.3,149.4 170.3,142.4 214,142.4 214,149.4 			"/>
		</defs>
		<clipPath id="SVGID_22_">
			<use xlink:href="#SVGID_21_"  style="overflow:visible;"/>
		</clipPath>
		<path class="st22" d="M196.8,148.4c-0.1-0.1-0.1-0.3-0.1-0.5c0-0.3,0-0.4,0.1-0.5c0.1-0.1,0.2-0.1,0.4-0.1h0.9v0.9
			c-0.1,0.2-0.2,0.3-0.4,0.4c-0.2,0.1-0.3,0.1-0.5,0.1C197.1,148.6,196.9,148.6,196.8,148.4L196.8,148.4z M197.8,149.2
			c0.2-0.1,0.4-0.3,0.6-0.6h0.2c0.1,0.3,0.2,0.5,0.5,0.7c0.2,0.1,0.5,0.1,0.9,0v-0.9c-0.3,0.1-0.4,0-0.6,0c-0.1-0.1-0.2-0.2-0.2-0.5
			v-2.2c0-0.5-0.1-0.9-0.4-1.1c-0.3-0.2-0.7-0.3-1.2-0.3c-0.5,0-0.9,0.1-1.2,0.3c-0.3,0.2-0.5,0.6-0.6,1.1l0.9,0.2
			c0.1-0.3,0.1-0.6,0.2-0.7s0.3-0.2,0.5-0.2c0.2,0,0.4,0.1,0.5,0.2c0.1,0.1,0.2,0.3,0.2,0.5v0.8H197c-0.4,0-0.8,0.1-1,0.4
			c-0.3,0.2-0.4,0.6-0.4,1s0.1,0.8,0.4,1c0.2,0.2,0.6,0.4,1,0.4C197.3,149.4,197.6,149.3,197.8,149.2L197.8,149.2z M203.7,149.3
			c0.2,0,0.3-0.1,0.4-0.1l-0.1-0.8c-0.1,0.1-0.2,0.1-0.3,0.1c-0.1,0-0.2,0-0.3,0c-0.2,0-0.3-0.1-0.4-0.2c-0.1-0.1-0.2-0.3-0.2-0.6
			v-2.5h1.3v-0.8h-1.3v-1.6h-1.1v1.6h-0.7v0.8h0.7v2.6c0,0.5,0.1,0.9,0.4,1.2c0.3,0.3,0.6,0.4,1.1,0.4
			C203.4,149.4,203.5,149.4,203.7,149.3L203.7,149.3z"/>
		<path class="st22" d="M208.7,148.9c0.3-0.3,0.5-0.8,0.5-1.3v-1.5c0-0.6-0.2-1-0.5-1.3c-0.3-0.3-0.8-0.5-1.3-0.5
			c-0.6,0-1,0.2-1.3,0.5c-0.3,0.3-0.5,0.8-0.5,1.3v1.5c0,0.6,0.2,1,0.5,1.3c0.3,0.3,0.8,0.5,1.3,0.5S208.4,149.2,208.7,148.9
			L208.7,148.9z M206.9,148.3c-0.1-0.1-0.2-0.4-0.2-0.7v-1.4c0-0.3,0.1-0.6,0.2-0.7c0.1-0.2,0.3-0.2,0.5-0.2c0.2,0,0.4,0.1,0.5,0.2
			c0.1,0.2,0.2,0.4,0.2,0.7v1.4c0,0.3-0.1,0.6-0.2,0.7c-0.1,0.2-0.3,0.2-0.5,0.2C207.2,148.6,207,148.5,206.9,148.3L206.9,148.3z
			 M211.9,149.3v-3.5c0.1-0.2,0.2-0.3,0.3-0.5c0.1-0.1,0.3-0.2,0.4-0.2c0.1,0,0.2,0,0.3,0.1c0.1,0.1,0.1,0.2,0.1,0.4v0.7h1v-0.9
			c0-0.4-0.1-0.7-0.2-0.9c-0.2-0.2-0.4-0.3-0.7-0.3c-0.2,0-0.4,0.1-0.6,0.2c-0.2,0.1-0.3,0.3-0.4,0.6h-0.2v-0.7h-1.1v4.9H211.9
			L211.9,149.3z"/>
	</g>
	<rect x="175.4" y="51.7" class="st7" width="33.4" height="8.6"/>
	<path class="st23" d="M178,58.6v-5.7h1.5V52h-4.2v0.9h1.5v5.7H178L178,58.6z M182,58.6v-3.5c0.1-0.2,0.2-0.3,0.3-0.5
		c0.1-0.1,0.3-0.2,0.4-0.2c0.1,0,0.2,0,0.3,0.1c0.1,0.1,0.1,0.2,0.1,0.4v0.7h1v-0.9c0-0.4-0.1-0.7-0.2-0.9c-0.2-0.2-0.4-0.3-0.7-0.3
		c-0.2,0-0.4,0.1-0.6,0.2c-0.2,0.1-0.3,0.3-0.4,0.6H182v-0.7h-1.1v4.9H182L182,58.6z M186.8,58.6v-4.9h-1.1v4.9H186.8L186.8,58.6z
		 M186.8,52.7c0.1-0.1,0.2-0.2,0.2-0.4v-0.1c0-0.2-0.1-0.3-0.2-0.4c-0.1-0.1-0.3-0.1-0.5-0.1c-0.2,0-0.4,0-0.5,0.1
		c-0.1,0.1-0.2,0.2-0.2,0.4v0.1c0,0.2,0.1,0.3,0.2,0.4c0.1,0.1,0.3,0.1,0.5,0.1C186.5,52.8,186.7,52.8,186.8,52.7L186.8,52.7z
		 M192.5,57.9c-0.2-0.2-0.6-0.3-1-0.3h-1.4c-0.1,0-0.2,0-0.3-0.1c-0.1-0.1-0.1-0.2-0.1-0.4c0-0.2,0-0.3,0.1-0.4
		c0.1-0.1,0.2-0.1,0.3-0.1h0.6c0.6,0,1-0.1,1.3-0.3s0.4-0.5,0.4-0.9v-0.2c0-0.2,0-0.4-0.1-0.5c-0.1-0.2-0.2-0.3-0.4-0.3v-0.2l1,0.2
		v-0.8h-2.2c-0.5,0-1,0.1-1.2,0.3c-0.3,0.2-0.4,0.5-0.4,0.9v0.2c0,0.2,0.1,0.4,0.2,0.6c0.1,0.2,0.3,0.3,0.5,0.4v0.2
		c-0.3,0-0.5,0.1-0.6,0.3c-0.2,0.2-0.2,0.4-0.2,0.7c0,0.3,0.1,0.5,0.2,0.6c0.1,0.1,0.2,0.2,0.4,0.3v0.2c-0.2,0-0.4,0.1-0.5,0.3
		c-0.1,0.2-0.2,0.4-0.2,0.6c0,0.4,0.1,0.7,0.4,0.9c0.3,0.2,0.6,0.3,1.1,0.3h1.2c0.5,0,0.8-0.1,1.1-0.4c0.3-0.2,0.4-0.6,0.4-1
		C192.9,58.5,192.8,58.2,192.5,57.9L192.5,57.9z M190.2,55.9c-0.1-0.1-0.1-0.3-0.1-0.5v-0.3c0-0.2,0-0.4,0.1-0.5
		c0.1-0.1,0.3-0.2,0.5-0.2c0.2,0,0.4,0.1,0.5,0.2c0.1,0.1,0.1,0.3,0.1,0.5v0.3c0,0.2,0,0.4-0.1,0.5c-0.1,0.1-0.3,0.2-0.5,0.2
		C190.5,56.1,190.3,56,190.2,55.9L190.2,55.9z M189.9,59.4c-0.1-0.1-0.1-0.3-0.1-0.5v-0.5h1.7c0.2,0,0.3,0,0.4,0.1
		c0.1,0.1,0.2,0.2,0.2,0.4c0,0.2-0.1,0.4-0.2,0.4c-0.1,0.1-0.3,0.1-0.4,0.1h-1.2C190.1,59.6,190,59.5,189.9,59.4L189.9,59.4z
		 M198.3,57.9c-0.2-0.2-0.6-0.3-1-0.3h-1.4c-0.1,0-0.2,0-0.3-0.1c-0.1-0.1-0.1-0.2-0.1-0.4c0-0.2,0-0.3,0.1-0.4
		c0.1-0.1,0.2-0.1,0.3-0.1h0.6c0.6,0,1-0.1,1.3-0.3s0.4-0.5,0.4-0.9v-0.2c0-0.2,0-0.4-0.1-0.5c-0.1-0.2-0.2-0.3-0.4-0.3v-0.2l1,0.2
		v-0.8h-2.2c-0.5,0-1,0.1-1.2,0.3c-0.3,0.2-0.4,0.5-0.4,0.9v0.2c0,0.2,0.1,0.4,0.2,0.6c0.1,0.2,0.3,0.3,0.5,0.4v0.2
		c-0.3,0-0.5,0.1-0.6,0.3c-0.2,0.2-0.2,0.4-0.2,0.7c0,0.3,0.1,0.5,0.2,0.6c0.1,0.1,0.2,0.2,0.4,0.3v0.2c-0.2,0-0.4,0.1-0.5,0.3
		c-0.1,0.2-0.2,0.4-0.2,0.6c0,0.4,0.1,0.7,0.4,0.9c0.3,0.2,0.6,0.3,1.1,0.3h1.2c0.5,0,0.8-0.1,1.1-0.4c0.3-0.2,0.4-0.6,0.4-1
		C198.7,58.5,198.6,58.2,198.3,57.9L198.3,57.9z M196,55.9c-0.1-0.1-0.1-0.3-0.1-0.5v-0.3c0-0.2,0-0.4,0.1-0.5
		c0.1-0.1,0.3-0.2,0.5-0.2c0.2,0,0.4,0.1,0.5,0.2c0.1,0.1,0.1,0.3,0.1,0.5v0.3c0,0.2,0,0.4-0.1,0.5c-0.1,0.1-0.3,0.2-0.5,0.2
		C196.3,56.1,196.1,56,196,55.9L196,55.9z M195.7,59.4c-0.1-0.1-0.1-0.3-0.1-0.5v-0.5h1.7c0.2,0,0.3,0,0.4,0.1
		c0.1,0.1,0.2,0.2,0.2,0.4c0,0.2-0.1,0.4-0.2,0.4c-0.1,0.1-0.3,0.1-0.4,0.1H196C195.9,59.6,195.8,59.5,195.7,59.4L195.7,59.4z
		 M202.9,57.2c-0.1,0.2-0.2,0.4-0.3,0.5c-0.1,0.1-0.3,0.1-0.5,0.1c-0.3,0-0.4-0.1-0.6-0.2c-0.1-0.1-0.2-0.4-0.2-0.7v-0.6h2.5v-1
		c0-0.6-0.2-1-0.5-1.3c-0.3-0.3-0.8-0.5-1.3-0.5c-0.6,0-1,0.2-1.3,0.5c-0.3,0.3-0.5,0.7-0.5,1.3v1.6c0,0.5,0.2,1,0.5,1.3
		c0.3,0.3,0.7,0.5,1.3,0.5c0.5,0,0.8-0.1,1.2-0.3c0.3-0.2,0.5-0.5,0.6-0.9L202.9,57.2L202.9,57.2z M201.6,54.6
		c0.1-0.1,0.3-0.2,0.5-0.2c0.2,0,0.4,0.1,0.5,0.2c0.1,0.2,0.2,0.4,0.2,0.8v0.3h-1.3v-0.3C201.4,55,201.5,54.7,201.6,54.6L201.6,54.6
		z"/>
	<g>
		<defs>
			<polyline id="SVGID_23_" points="208.7,60.3 175.4,60.3 175.4,51.7 208.7,51.7 208.7,60.3 			"/>
		</defs>
		<clipPath id="SVGID_24_">
			<use xlink:href="#SVGID_23_"  style="overflow:visible;"/>
		</clipPath>
		<path class="st24" d="M206.6,58.6v-3.5c0.1-0.2,0.2-0.3,0.3-0.5c0.1-0.1,0.3-0.2,0.4-0.2c0.1,0,0.2,0,0.3,0.1
			c0.1,0.1,0.1,0.2,0.1,0.4v0.7h1v-0.9c0-0.4-0.1-0.7-0.2-0.9c-0.2-0.2-0.4-0.3-0.7-0.3c-0.2,0-0.4,0.1-0.6,0.2
			c-0.2,0.1-0.3,0.3-0.4,0.6h-0.2v-0.7h-1.1v4.9H206.6L206.6,58.6z"/>
	</g>
	<rect x="294" y="41.1" class="st4" width="37.7" height="6.6"/>
	<g>
		<defs>
			<polyline id="SVGID_25_" points="331.7,47.7 294,47.7 294,41.1 331.7,41.1 331.7,47.7 			"/>
		</defs>
		<clipPath id="SVGID_26_">
			<use xlink:href="#SVGID_25_"  style="overflow:visible;"/>
		</clipPath>
		<path class="st25" d="M295.1,47.7v-2.2h0.9c0.6,0,1-0.1,1.3-0.4s0.4-0.7,0.4-1.3v-0.8c0-0.6-0.1-1-0.4-1.3
			c-0.3-0.3-0.7-0.4-1.3-0.4h-2v6.5H295.1L295.1,47.7z M295.1,42h0.7c0.3,0,0.5,0.1,0.6,0.2c0.1,0.1,0.2,0.4,0.2,0.7v0.7
			c0,0.3-0.1,0.6-0.2,0.7c-0.1,0.1-0.3,0.2-0.6,0.2h-0.7V42L295.1,42z"/>
	</g>
	<path class="st20" d="M300.3,47.7v-3.5c0.1-0.2,0.2-0.3,0.3-0.5c0.1-0.1,0.3-0.2,0.4-0.2c0.1,0,0.2,0,0.3,0.1
		c0.1,0.1,0.1,0.2,0.1,0.4v0.7h1V44c0-0.4-0.1-0.7-0.2-0.9c-0.2-0.2-0.4-0.3-0.7-0.3c-0.2,0-0.4,0.1-0.6,0.2
		c-0.2,0.1-0.3,0.3-0.4,0.6h-0.2v-0.7h-1.1v4.9H300.3L300.3,47.7z"/>
	<g>
		<defs>
			<polyline id="SVGID_27_" points="331.7,47.7 294,47.7 294,41.1 331.7,41.1 331.7,47.7 			"/>
		</defs>
		<clipPath id="SVGID_28_">
			<use xlink:href="#SVGID_27_"  style="overflow:visible;"/>
		</clipPath>
		<path class="st26" d="M306.9,47.3c0.3-0.3,0.5-0.8,0.5-1.3v-1.5c0-0.6-0.2-1-0.5-1.3c-0.3-0.3-0.8-0.5-1.3-0.5
			c-0.6,0-1,0.2-1.3,0.5c-0.3,0.3-0.5,0.8-0.5,1.3V46c0,0.6,0.2,1,0.5,1.3c0.3,0.3,0.8,0.5,1.3,0.5S306.5,47.6,306.9,47.3
			L306.9,47.3z M305,46.7c-0.1-0.1-0.2-0.4-0.2-0.7v-1.4c0-0.3,0.1-0.6,0.2-0.7c0.1-0.2,0.3-0.2,0.5-0.2c0.2,0,0.4,0.1,0.5,0.2
			c0.1,0.2,0.2,0.4,0.2,0.7v1.4c0,0.3-0.1,0.6-0.2,0.7c-0.1,0.2-0.3,0.2-0.5,0.2C305.3,46.9,305.1,46.8,305,46.7L305,46.7z
			 M311.6,47.7c0.2,0,0.3-0.1,0.4-0.1l-0.1-0.8c-0.1,0.1-0.2,0.1-0.3,0.1c-0.1,0-0.2,0-0.3,0c-0.2,0-0.3-0.1-0.4-0.2
			c-0.1-0.1-0.2-0.3-0.2-0.6v-2.5h1.3v-0.8h-1.3v-1.6h-1.1v1.6h-0.7v0.8h0.7v2.6c0,0.5,0.1,0.9,0.4,1.2c0.3,0.3,0.6,0.4,1.1,0.4
			C311.2,47.8,311.4,47.7,311.6,47.7L311.6,47.7z M316.6,47.3c0.3-0.3,0.5-0.8,0.5-1.3v-1.5c0-0.6-0.2-1-0.5-1.3
			c-0.3-0.3-0.8-0.5-1.3-0.5c-0.6,0-1,0.2-1.3,0.5c-0.3,0.3-0.5,0.8-0.5,1.3V46c0,0.6,0.2,1,0.5,1.3c0.3,0.3,0.8,0.5,1.3,0.5
			S316.3,47.6,316.6,47.3L316.6,47.3z M314.8,46.7c-0.1-0.1-0.2-0.4-0.2-0.7v-1.4c0-0.3,0.1-0.6,0.2-0.7c0.1-0.2,0.3-0.2,0.5-0.2
			c0.2,0,0.4,0.1,0.5,0.2c0.1,0.2,0.2,0.4,0.2,0.7v1.4c0,0.3-0.1,0.6-0.2,0.7c-0.1,0.2-0.3,0.2-0.5,0.2
			C315,46.9,314.9,46.8,314.8,46.7L314.8,46.7z M321.8,47.4c0.3-0.3,0.5-0.7,0.5-1.2l-1.1-0.1c0,0.3-0.1,0.5-0.2,0.6
			c-0.1,0.1-0.3,0.2-0.5,0.2c-0.3,0-0.5-0.1-0.6-0.2c-0.1-0.1-0.2-0.4-0.2-0.7v-1.6c0-0.3,0.1-0.6,0.2-0.7c0.1-0.1,0.3-0.2,0.6-0.2
			c0.3,0,0.4,0.1,0.5,0.2c0.1,0.1,0.2,0.4,0.2,0.7l1.1-0.1c0-0.6-0.2-1-0.5-1.3c-0.3-0.3-0.7-0.4-1.3-0.4c-0.6,0-1,0.1-1.3,0.4
			c-0.3,0.3-0.5,0.7-0.5,1.3V46c0,0.5,0.2,1,0.5,1.3c0.3,0.3,0.8,0.4,1.4,0.4C321.1,47.8,321.5,47.6,321.8,47.4L321.8,47.4z
			 M326.9,47.3c0.3-0.3,0.5-0.8,0.5-1.3v-1.5c0-0.6-0.2-1-0.5-1.3c-0.3-0.3-0.8-0.5-1.3-0.5c-0.6,0-1,0.2-1.3,0.5
			c-0.3,0.3-0.5,0.8-0.5,1.3V46c0,0.6,0.2,1,0.5,1.3c0.3,0.3,0.8,0.5,1.3,0.5S326.6,47.6,326.9,47.3L326.9,47.3z M325.1,46.7
			c-0.1-0.1-0.2-0.4-0.2-0.7v-1.4c0-0.3,0.1-0.6,0.2-0.7c0.1-0.2,0.3-0.2,0.5-0.2c0.2,0,0.4,0.1,0.5,0.2c0.1,0.2,0.2,0.4,0.2,0.7
			v1.4c0,0.3-0.1,0.6-0.2,0.7c-0.1,0.2-0.3,0.2-0.5,0.2C325.4,46.9,325.2,46.8,325.1,46.7L325.1,46.7z M331.2,47.7
			c0.2,0,0.3-0.1,0.4-0.2l-0.2-0.8c-0.1,0-0.2,0.1-0.3,0.1c-0.1,0-0.2,0-0.3,0c-0.2,0-0.3-0.1-0.4-0.2c-0.1-0.1-0.1-0.4-0.1-0.6
			v-4.9h-1.1V46c0,0.6,0.1,1,0.4,1.3c0.3,0.3,0.6,0.5,1.1,0.5C330.9,47.7,331.1,47.7,331.2,47.7L331.2,47.7z"/>
	</g>
	<rect x="293.5" y="62.4" class="st4" width="38.5" height="7"/>
	<g>
		<defs>
			<polyline id="SVGID_29_" points="332,69.3 293.5,69.3 293.5,62.4 332,62.4 332,69.3 			"/>
		</defs>
		<clipPath id="SVGID_30_">
			<use xlink:href="#SVGID_29_"  style="overflow:visible;"/>
		</clipPath>
		<path class="st27" d="M297.1,68.8c0.4-0.4,0.6-0.8,0.6-1.4c0-0.5-0.1-0.9-0.4-1.1c-0.3-0.3-0.7-0.5-1.4-0.7
			c-0.5-0.2-0.9-0.3-1-0.5c-0.2-0.1-0.3-0.3-0.3-0.6c0-0.3,0.1-0.5,0.2-0.6c0.2-0.1,0.4-0.2,0.7-0.2c0.3,0,0.5,0.1,0.8,0.2
			c0.3,0.1,0.6,0.3,0.8,0.5l0.2-0.8c-0.2-0.2-0.5-0.3-0.9-0.5c-0.3-0.1-0.7-0.2-1-0.2c-0.6,0-1.1,0.2-1.4,0.5
			c-0.4,0.3-0.5,0.8-0.5,1.4c0,0.5,0.1,0.9,0.4,1.2c0.3,0.3,0.8,0.5,1.4,0.7c0.5,0.2,0.8,0.3,1,0.5c0.2,0.1,0.3,0.3,0.3,0.6
			c0,0.3-0.1,0.5-0.2,0.7c-0.2,0.2-0.4,0.2-0.7,0.2c-0.3,0-0.6-0.1-1-0.2c-0.3-0.1-0.6-0.3-0.9-0.5l-0.2,0.9c0.3,0.2,0.6,0.4,1,0.5
			c0.4,0.1,0.7,0.2,1.1,0.2C296.2,69.3,296.7,69.1,297.1,68.8L297.1,68.8z M301.9,69.3c0.2,0,0.3-0.1,0.4-0.1l-0.1-0.8
			c-0.1,0.1-0.2,0.1-0.3,0.1c-0.1,0-0.2,0-0.3,0c-0.2,0-0.3-0.1-0.4-0.2c-0.1-0.1-0.2-0.3-0.2-0.6v-2.5h1.3v-0.8h-1.3v-1.6h-1.1v1.6
			h-0.7v0.8h0.7v2.6c0,0.5,0.1,0.9,0.4,1.2c0.3,0.3,0.6,0.4,1.1,0.4C301.5,69.4,301.7,69.3,301.9,69.3L301.9,69.3z"/>
	</g>
	<path class="st20" d="M305.2,69.3v-4.9h-1.1v4.9H305.2L305.2,69.3z M305.2,63.4c0.1-0.1,0.2-0.2,0.2-0.4v-0.1
		c0-0.2-0.1-0.3-0.2-0.4c-0.1-0.1-0.3-0.1-0.5-0.1c-0.2,0-0.4,0-0.5,0.1c-0.1,0.1-0.2,0.2-0.2,0.4V63c0,0.2,0.1,0.3,0.2,0.4
		c0.1,0.1,0.3,0.1,0.5,0.1C304.9,63.5,305,63.5,305.2,63.4L305.2,63.4z M308.5,65.3c0.1-0.1,0.2-0.1,0.4-0.1c0.1,0,0.2,0.1,0.3,0.2
		c0.1,0.1,0.1,0.3,0.1,0.5v3.5h1.1v-3.5c0.1-0.2,0.2-0.3,0.3-0.4c0.1-0.1,0.2-0.1,0.4-0.1c0.1,0,0.2,0.1,0.3,0.2
		c0.1,0.1,0.1,0.3,0.1,0.5v3.5h1.1v-3.5c0-0.5-0.1-0.8-0.3-1.1c-0.2-0.3-0.4-0.4-0.7-0.4c-0.2,0-0.4,0.1-0.6,0.2
		c-0.2,0.1-0.3,0.3-0.4,0.5h-0.3c-0.1-0.2-0.2-0.4-0.3-0.6c-0.2-0.1-0.3-0.2-0.5-0.2c-0.2,0-0.4,0.1-0.6,0.2
		c-0.2,0.1-0.3,0.3-0.4,0.5h-0.2v-0.7h-1.1v4.9h1.1v-3.5C308.3,65.5,308.4,65.4,308.5,65.3L308.5,65.3z"/>
	<g>
		<defs>
			<polyline id="SVGID_31_" points="332,69.3 293.5,69.3 293.5,62.4 332,62.4 332,69.3 			"/>
		</defs>
		<clipPath id="SVGID_32_">
			<use xlink:href="#SVGID_31_"  style="overflow:visible;"/>
		</clipPath>
		<path class="st28" d="M316,69.1c0.2-0.1,0.3-0.3,0.4-0.6h0.2v0.7h1.1v-4.9h-1.1v3.4c-0.1,0.2-0.2,0.4-0.4,0.5s-0.3,0.2-0.5,0.2
			c-0.2,0-0.3-0.1-0.4-0.2c-0.1-0.1-0.1-0.3-0.1-0.6v-3.3h-1.1v3.5c0,0.5,0.1,0.8,0.3,1.1c0.2,0.3,0.5,0.4,0.8,0.4
			C315.5,69.4,315.8,69.3,316,69.1L316,69.1z"/>
	</g>
	<path class="st20" d="M321.5,69.3c0.2,0,0.3-0.1,0.4-0.2l-0.2-0.8c-0.1,0-0.2,0.1-0.3,0.1c-0.1,0-0.2,0-0.3,0
		c-0.2,0-0.3-0.1-0.4-0.2c-0.1-0.1-0.1-0.4-0.1-0.6v-4.9h-1.1v4.9c0,0.6,0.1,1,0.4,1.3c0.3,0.3,0.6,0.5,1.1,0.5
		C321.2,69.3,321.4,69.3,321.5,69.3L321.5,69.3z"/>
	<g>
		<defs>
			<polyline id="SVGID_33_" points="332,69.3 293.5,69.3 293.5,62.4 332,62.4 332,69.3 			"/>
		</defs>
		<clipPath id="SVGID_34_">
			<use xlink:href="#SVGID_33_"  style="overflow:visible;"/>
		</clipPath>
		<path class="st29" d="M325.1,69.1c0.2-0.1,0.3-0.3,0.4-0.6h0.2v0.7h1.1v-4.9h-1.1v3.4c-0.1,0.2-0.2,0.4-0.4,0.5s-0.3,0.2-0.5,0.2
			c-0.2,0-0.3-0.1-0.4-0.2c-0.1-0.1-0.1-0.3-0.1-0.6v-3.3h-1.1v3.5c0,0.5,0.1,0.8,0.3,1.1c0.2,0.3,0.5,0.4,0.8,0.4
			C324.7,69.4,324.9,69.3,325.1,69.1L325.1,69.1z M331.5,68.9c0.3-0.3,0.5-0.6,0.5-1.1c0-0.4-0.1-0.7-0.3-0.9
			c-0.2-0.2-0.6-0.4-1-0.5c-0.4-0.1-0.7-0.2-0.9-0.3c-0.2-0.1-0.2-0.2-0.2-0.5c0-0.2,0.1-0.3,0.2-0.4c0.1-0.1,0.3-0.1,0.5-0.1
			c0.2,0,0.4,0,0.7,0.1c0.2,0.1,0.5,0.2,0.7,0.4l0.2-0.7c-0.2-0.2-0.5-0.3-0.8-0.4c-0.3-0.1-0.6-0.2-0.9-0.2c-0.5,0-0.9,0.1-1.2,0.4
			c-0.3,0.3-0.4,0.6-0.4,1.1c0,0.5,0.1,0.8,0.4,1c0.3,0.2,0.6,0.4,1,0.5c0.4,0.1,0.7,0.2,0.8,0.3c0.1,0.1,0.2,0.2,0.2,0.5
			c0,0.2-0.1,0.3-0.2,0.4c-0.1,0.1-0.3,0.1-0.5,0.1c-0.3,0-0.5-0.1-0.8-0.2c-0.3-0.1-0.5-0.2-0.8-0.4l-0.3,0.7
			c0.2,0.2,0.5,0.3,0.8,0.4c0.3,0.1,0.7,0.2,1,0.2C330.8,69.3,331.2,69.2,331.5,68.9L331.5,68.9z"/>
	</g>
	<rect x="348" y="142.4" class="st4" width="46.9" height="7"/>
	<g>
		<defs>
			<polyline id="SVGID_35_" points="395,149.4 348,149.4 348,142.4 395,142.4 395,149.4 			"/>
		</defs>
		<clipPath id="SVGID_36_">
			<use xlink:href="#SVGID_35_"  style="overflow:visible;"/>
		</clipPath>
		<path class="st30" d="M351.8,148.8c0.4-0.4,0.6-0.9,0.6-1.7l-1.1-0.1c0,0.5-0.1,0.9-0.3,1.1c-0.2,0.2-0.4,0.3-0.8,0.3
			c-0.4,0-0.7-0.1-0.8-0.3c-0.2-0.2-0.2-0.5-0.2-1v-2.3c0-0.5,0.1-0.9,0.2-1.1c0.2-0.2,0.4-0.3,0.8-0.3c0.4,0,0.6,0.1,0.8,0.3
			c0.2,0.2,0.3,0.6,0.3,1.1l1.1-0.1c0-0.8-0.2-1.3-0.6-1.7c-0.4-0.4-0.9-0.6-1.6-0.6c-0.8,0-1.3,0.2-1.7,0.6
			c-0.4,0.4-0.5,0.9-0.5,1.6v2.4c0,0.7,0.2,1.2,0.5,1.6c0.4,0.4,0.9,0.6,1.7,0.6C350.9,149.4,351.4,149.2,351.8,148.8L351.8,148.8z
			 M355.1,148.4c-0.1-0.1-0.1-0.3-0.1-0.5c0-0.3,0-0.4,0.1-0.5c0.1-0.1,0.2-0.1,0.4-0.1h0.9v0.9c-0.1,0.2-0.2,0.3-0.4,0.4
			c-0.2,0.1-0.3,0.1-0.5,0.1C355.3,148.6,355.2,148.6,355.1,148.4L355.1,148.4z M356.1,149.2c0.2-0.1,0.4-0.3,0.6-0.6h0.2
			c0.1,0.3,0.2,0.5,0.5,0.7c0.2,0.1,0.5,0.1,0.9,0v-0.9c-0.3,0.1-0.4,0-0.6,0c-0.1-0.1-0.2-0.2-0.2-0.5v-2.2c0-0.5-0.1-0.9-0.4-1.1
			c-0.3-0.2-0.7-0.3-1.2-0.3c-0.5,0-0.9,0.1-1.2,0.3c-0.3,0.2-0.5,0.6-0.6,1.1l0.9,0.2c0.1-0.3,0.1-0.6,0.2-0.7
			c0.1-0.1,0.3-0.2,0.5-0.2c0.2,0,0.4,0.1,0.5,0.2c0.1,0.1,0.2,0.3,0.2,0.5v0.8h-1.1c-0.4,0-0.8,0.1-1,0.4c-0.3,0.2-0.4,0.6-0.4,1
			s0.1,0.8,0.4,1c0.2,0.2,0.6,0.4,1,0.4C355.5,149.4,355.8,149.3,356.1,149.2L356.1,149.2z"/>
	</g>
	<path class="st20" d="M361.8,149.3c0.2,0,0.3-0.1,0.4-0.2l-0.2-0.8c-0.1,0-0.2,0.1-0.3,0.1c-0.1,0-0.2,0-0.3,0
		c-0.2,0-0.3-0.1-0.4-0.2c-0.1-0.1-0.1-0.4-0.1-0.6v-4.9h-1.1v4.9c0,0.6,0.1,1,0.4,1.3c0.3,0.3,0.6,0.5,1.1,0.5
		C361.4,149.4,361.6,149.4,361.8,149.3L361.8,149.3z M364.9,149.3v-4.9h-1.1v4.9H364.9L364.9,149.3z M364.9,143.4
		c0.1-0.1,0.2-0.2,0.2-0.4V143c0-0.2-0.1-0.3-0.2-0.4c-0.1-0.1-0.3-0.1-0.5-0.1c-0.2,0-0.4,0-0.5,0.1c-0.1,0.1-0.2,0.2-0.2,0.4v0.1
		c0,0.2,0.1,0.3,0.2,0.4c0.1,0.1,0.3,0.1,0.5,0.1C364.5,143.6,364.7,143.5,364.9,143.4L364.9,143.4z M369.9,149
		c0.3-0.3,0.5-0.7,0.5-1.3V146c0-0.5-0.1-1-0.3-1.2c-0.2-0.3-0.5-0.4-0.9-0.4c-0.3,0-0.5,0.1-0.7,0.2c-0.2,0.1-0.3,0.3-0.4,0.6h-0.2
		v-2.3h-1.1v6c0.2,0.2,0.5,0.3,0.8,0.4c0.3,0.1,0.6,0.1,1,0.1C369.1,149.4,369.6,149.2,369.9,149L369.9,149z M368.2,148.5
		c-0.1,0-0.2-0.1-0.3-0.2v-2.5c0.1-0.2,0.2-0.3,0.4-0.4c0.1-0.1,0.3-0.1,0.4-0.1c0.2,0,0.3,0.1,0.4,0.2c0.1,0.1,0.1,0.3,0.1,0.6v1.6
		c0,0.3-0.1,0.5-0.2,0.7c-0.1,0.1-0.3,0.2-0.5,0.2C368.4,148.6,368.3,148.5,368.2,148.5L368.2,148.5z M373.1,149.3v-3.5
		c0.1-0.2,0.2-0.3,0.3-0.5c0.1-0.1,0.3-0.2,0.4-0.2c0.1,0,0.2,0,0.3,0.1c0.1,0.1,0.1,0.2,0.1,0.4v0.7h1v-0.9c0-0.4-0.1-0.7-0.2-0.9
		c-0.2-0.2-0.4-0.3-0.7-0.3c-0.2,0-0.4,0.1-0.6,0.2c-0.2,0.1-0.3,0.3-0.4,0.6h-0.2v-0.7h-1.1v4.9H373.1L373.1,149.3z"/>
	<g>
		<defs>
			<polyline id="SVGID_37_" points="395,149.4 348,149.4 348,142.4 395,142.4 395,149.4 			"/>
		</defs>
		<clipPath id="SVGID_38_">
			<use xlink:href="#SVGID_37_"  style="overflow:visible;"/>
		</clipPath>
		<path class="st31" d="M377.8,148.4c-0.1-0.1-0.1-0.3-0.1-0.5c0-0.3,0-0.4,0.1-0.5c0.1-0.1,0.2-0.1,0.4-0.1h0.9v0.9
			c-0.1,0.2-0.2,0.3-0.4,0.4c-0.2,0.1-0.3,0.1-0.5,0.1C378,148.6,377.9,148.6,377.8,148.4L377.8,148.4z M378.8,149.2
			c0.2-0.1,0.4-0.3,0.6-0.6h0.2c0.1,0.3,0.2,0.5,0.5,0.7c0.2,0.1,0.5,0.1,0.9,0v-0.9c-0.3,0.1-0.4,0-0.6,0c-0.1-0.1-0.2-0.2-0.2-0.5
			v-2.2c0-0.5-0.1-0.9-0.4-1.1c-0.3-0.2-0.7-0.3-1.2-0.3c-0.5,0-0.9,0.1-1.2,0.3c-0.3,0.2-0.5,0.6-0.6,1.1l0.9,0.2
			c0.1-0.3,0.1-0.6,0.2-0.7c0.1-0.1,0.3-0.2,0.5-0.2c0.2,0,0.4,0.1,0.5,0.2c0.1,0.1,0.2,0.3,0.2,0.5v0.8H378c-0.4,0-0.8,0.1-1,0.4
			c-0.3,0.2-0.4,0.6-0.4,1s0.1,0.8,0.4,1c0.2,0.2,0.6,0.4,1,0.4C378.2,149.4,378.5,149.3,378.8,149.2L378.8,149.2z M384.6,149.3
			c0.2,0,0.3-0.1,0.4-0.1l-0.1-0.8c-0.1,0.1-0.2,0.1-0.3,0.1c-0.1,0-0.2,0-0.3,0c-0.2,0-0.3-0.1-0.4-0.2c-0.1-0.1-0.2-0.3-0.2-0.6
			v-2.5h1.3v-0.8h-1.3v-1.6h-1.1v1.6h-0.7v0.8h0.7v2.6c0,0.5,0.1,0.9,0.4,1.2c0.3,0.3,0.6,0.4,1.1,0.4
			C384.3,149.4,384.5,149.4,384.6,149.3L384.6,149.3z"/>
		<path class="st31" d="M389.7,148.9c0.3-0.3,0.5-0.8,0.5-1.3v-1.5c0-0.6-0.2-1-0.5-1.3c-0.3-0.3-0.8-0.5-1.3-0.5
			c-0.6,0-1,0.2-1.3,0.5c-0.3,0.3-0.5,0.8-0.5,1.3v1.5c0,0.6,0.2,1,0.5,1.3c0.3,0.3,0.8,0.5,1.3,0.5S389.3,149.2,389.7,148.9
			L389.7,148.9z M387.8,148.3c-0.1-0.1-0.2-0.4-0.2-0.7v-1.4c0-0.3,0.1-0.6,0.2-0.7c0.1-0.2,0.3-0.2,0.5-0.2c0.2,0,0.4,0.1,0.5,0.2
			c0.1,0.2,0.2,0.4,0.2,0.7v1.4c0,0.3-0.1,0.6-0.2,0.7c-0.1,0.2-0.3,0.2-0.5,0.2C388.1,148.6,387.9,148.5,387.8,148.3L387.8,148.3z
			 M392.8,149.3v-3.5c0.1-0.2,0.2-0.3,0.3-0.5c0.1-0.1,0.3-0.2,0.4-0.2c0.1,0,0.2,0,0.3,0.1c0.1,0.1,0.1,0.2,0.1,0.4v0.7h1v-0.9
			c0-0.4-0.1-0.7-0.2-0.9c-0.2-0.2-0.4-0.3-0.7-0.3c-0.2,0-0.4,0.1-0.6,0.2c-0.2,0.1-0.3,0.3-0.4,0.6h-0.2v-0.7h-1.1v4.9H392.8
			L392.8,149.3z"/>
	</g>
	<rect x="102.9" y="229.8" class="st4" width="63.8" height="6.7"/>
	<g>
		<defs>
			<polyline id="SVGID_39_" points="166.7,236.5 102.9,236.5 102.9,229.8 166.7,229.8 166.7,236.5 			"/>
		</defs>
		<clipPath id="SVGID_40_">
			<use xlink:href="#SVGID_39_"  style="overflow:visible;"/>
		</clipPath>
		<path class="st32" d="M104.9,236.4c0.7,0,1.2-0.2,1.6-0.6c0.4-0.4,0.6-0.9,0.6-1.6v-2.2c0-0.7-0.2-1.2-0.6-1.6
			c-0.4-0.4-0.9-0.6-1.6-0.6h-2.1v6.5H104.9L104.9,236.4z M104,230.7h0.8c0.4,0,0.7,0.1,0.9,0.3c0.2,0.2,0.3,0.6,0.3,1.1v2.1
			c0,0.5-0.1,0.8-0.3,1c-0.2,0.2-0.5,0.3-0.9,0.3H104V230.7L104,230.7z M109.9,235.5c-0.1-0.1-0.1-0.3-0.1-0.5c0-0.3,0-0.4,0.1-0.5
			c0.1-0.1,0.2-0.1,0.4-0.1h0.9v0.9c-0.1,0.2-0.2,0.3-0.4,0.4c-0.2,0.1-0.3,0.1-0.5,0.1C110.1,235.7,110,235.7,109.9,235.5
			L109.9,235.5z M110.9,236.3c0.2-0.1,0.4-0.3,0.6-0.6h0.2c0.1,0.3,0.2,0.5,0.5,0.7c0.2,0.1,0.5,0.1,0.9,0v-0.9
			c-0.3,0.1-0.4,0-0.6,0c-0.1-0.1-0.2-0.2-0.2-0.5v-2.2c0-0.5-0.1-0.9-0.4-1.1c-0.3-0.2-0.7-0.3-1.2-0.3c-0.5,0-0.9,0.1-1.2,0.3
			c-0.3,0.2-0.5,0.6-0.6,1.1l0.9,0.2c0.1-0.3,0.1-0.6,0.2-0.7s0.3-0.2,0.5-0.2c0.2,0,0.4,0.1,0.5,0.2c0.1,0.1,0.2,0.3,0.2,0.5v0.8
			h-1.1c-0.4,0-0.8,0.1-1,0.4c-0.3,0.2-0.4,0.6-0.4,1s0.1,0.8,0.4,1c0.2,0.2,0.6,0.4,1,0.4C110.3,236.5,110.6,236.4,110.9,236.3
			L110.9,236.3z"/>
		<path class="st32" d="M116.7,236.5c0.2,0,0.3-0.1,0.4-0.1l-0.1-0.8c-0.1,0.1-0.2,0.1-0.3,0.1c-0.1,0-0.2,0-0.3,0
			c-0.2,0-0.3-0.1-0.4-0.2c-0.1-0.1-0.2-0.3-0.2-0.6v-2.5h1.3v-0.8h-1.3v-1.6h-1.1v1.6H114v0.8h0.7v2.6c0,0.5,0.1,0.9,0.4,1.2
			c0.3,0.3,0.6,0.4,1.1,0.4C116.4,236.5,116.6,236.5,116.7,236.5L116.7,236.5z M119.9,235.5c-0.1-0.1-0.1-0.3-0.1-0.5
			c0-0.3,0-0.4,0.1-0.5c0.1-0.1,0.2-0.1,0.4-0.1h0.9v0.9c-0.1,0.2-0.2,0.3-0.4,0.4c-0.2,0.1-0.3,0.1-0.5,0.1
			C120.1,235.7,120,235.7,119.9,235.5L119.9,235.5z M120.9,236.3c0.2-0.1,0.4-0.3,0.6-0.6h0.2c0.1,0.3,0.2,0.5,0.5,0.7
			c0.2,0.1,0.5,0.1,0.9,0v-0.9c-0.3,0.1-0.4,0-0.6,0c-0.1-0.1-0.2-0.2-0.2-0.5v-2.2c0-0.5-0.1-0.9-0.4-1.1c-0.3-0.2-0.7-0.3-1.2-0.3
			c-0.5,0-0.9,0.1-1.2,0.3c-0.3,0.2-0.5,0.6-0.6,1.1l0.9,0.2c0.1-0.3,0.1-0.6,0.2-0.7s0.3-0.2,0.5-0.2c0.2,0,0.4,0.1,0.5,0.2
			c0.1,0.1,0.2,0.3,0.2,0.5v0.8h-1.1c-0.4,0-0.8,0.1-1,0.4c-0.3,0.2-0.4,0.6-0.4,1s0.1,0.8,0.4,1c0.2,0.2,0.6,0.4,1,0.4
			C120.4,236.5,120.7,236.4,120.9,236.3L120.9,236.3z M128.2,236c0.4-0.4,0.6-0.9,0.6-1.7l-1.1-0.1c0,0.5-0.1,0.9-0.3,1.1
			c-0.2,0.2-0.4,0.3-0.8,0.3c-0.4,0-0.7-0.1-0.8-0.3c-0.2-0.2-0.2-0.5-0.2-1V232c0-0.5,0.1-0.9,0.2-1.1c0.2-0.2,0.4-0.3,0.8-0.3
			c0.4,0,0.6,0.1,0.8,0.3c0.2,0.2,0.3,0.6,0.3,1.1l1.1-0.1c0-0.8-0.2-1.3-0.6-1.7c-0.4-0.4-0.9-0.6-1.6-0.6c-0.8,0-1.3,0.2-1.7,0.6
			c-0.4,0.4-0.5,0.9-0.5,1.6v2.4c0,0.7,0.2,1.2,0.5,1.6c0.4,0.4,0.9,0.6,1.7,0.6C127.4,236.5,127.9,236.3,128.2,236L128.2,236z
			 M133.4,236c0.3-0.3,0.5-0.8,0.5-1.3v-1.5c0-0.6-0.2-1-0.5-1.3c-0.3-0.3-0.8-0.5-1.3-0.5c-0.6,0-1,0.2-1.3,0.5
			c-0.3,0.3-0.5,0.8-0.5,1.3v1.5c0,0.6,0.2,1,0.5,1.3c0.3,0.3,0.8,0.5,1.3,0.5S133,236.3,133.4,236L133.4,236z M131.5,235.4
			c-0.1-0.1-0.2-0.4-0.2-0.7v-1.4c0-0.3,0.1-0.6,0.2-0.7c0.1-0.2,0.3-0.2,0.5-0.2c0.2,0,0.4,0.1,0.5,0.2c0.1,0.2,0.2,0.4,0.2,0.7
			v1.4c0,0.3-0.1,0.6-0.2,0.7c-0.1,0.2-0.3,0.2-0.5,0.2C131.8,235.7,131.6,235.6,131.5,235.4L131.5,235.4z"/>
	</g>
	<path class="st33" d="M137.7,236.4c0.2,0,0.3-0.1,0.4-0.2l-0.2-0.8c-0.1,0-0.2,0.1-0.3,0.1c-0.1,0-0.2,0-0.3,0
		c-0.2,0-0.3-0.1-0.4-0.2c-0.1-0.1-0.1-0.4-0.1-0.6v-4.9h-1.1v4.9c0,0.6,0.1,1,0.4,1.3c0.3,0.3,0.6,0.5,1.1,0.5
		C137.4,236.5,137.5,236.5,137.7,236.4L137.7,236.4z M141.6,236.4c0.2,0,0.3-0.1,0.4-0.2l-0.2-0.8c-0.1,0-0.2,0.1-0.3,0.1
		c-0.1,0-0.2,0-0.3,0c-0.2,0-0.3-0.1-0.4-0.2c-0.1-0.1-0.1-0.4-0.1-0.6v-4.9h-1.1v4.9c0,0.6,0.1,1,0.4,1.3c0.3,0.3,0.6,0.5,1.1,0.5
		C141.3,236.5,141.5,236.5,141.6,236.4L141.6,236.4z"/>
	<g>
		<defs>
			<polyline id="SVGID_41_" points="166.7,236.5 102.9,236.5 102.9,229.8 166.7,229.8 166.7,236.5 			"/>
		</defs>
		<clipPath id="SVGID_42_">
			<use xlink:href="#SVGID_41_"  style="overflow:visible;"/>
		</clipPath>
		<path class="st34" d="M146,235.1c-0.1,0.2-0.2,0.4-0.3,0.5c-0.1,0.1-0.3,0.1-0.5,0.1c-0.3,0-0.4-0.1-0.6-0.2
			c-0.1-0.1-0.2-0.4-0.2-0.7v-0.6h2.5v-1c0-0.6-0.2-1-0.5-1.3c-0.3-0.3-0.8-0.5-1.3-0.5c-0.6,0-1,0.2-1.3,0.5
			c-0.3,0.3-0.5,0.7-0.5,1.3v1.6c0,0.5,0.2,1,0.5,1.3c0.3,0.3,0.7,0.5,1.3,0.5c0.5,0,0.8-0.1,1.2-0.3c0.3-0.2,0.5-0.5,0.6-0.9
			L146,235.1L146,235.1z M144.6,232.4c0.1-0.1,0.3-0.2,0.5-0.2c0.2,0,0.4,0.1,0.5,0.2c0.1,0.2,0.2,0.4,0.2,0.8v0.3h-1.3v-0.3
			C144.5,232.8,144.5,232.6,144.6,232.4L144.6,232.4z M151.7,236.1c0.3-0.3,0.5-0.7,0.5-1.2l-1.1-0.1c0,0.3-0.1,0.5-0.2,0.6
			c-0.1,0.1-0.3,0.2-0.5,0.2c-0.3,0-0.5-0.1-0.6-0.2c-0.1-0.1-0.2-0.4-0.2-0.7v-1.6c0-0.3,0.1-0.6,0.2-0.7c0.1-0.1,0.3-0.2,0.6-0.2
			c0.3,0,0.4,0.1,0.5,0.2c0.1,0.1,0.2,0.4,0.2,0.7l1.1-0.1c0-0.6-0.2-1-0.5-1.3c-0.3-0.3-0.7-0.4-1.3-0.4c-0.6,0-1,0.1-1.3,0.4
			c-0.3,0.3-0.5,0.7-0.5,1.3v1.6c0,0.5,0.2,1,0.5,1.3c0.3,0.3,0.8,0.4,1.4,0.4C150.9,236.5,151.4,236.4,151.7,236.1L151.7,236.1z
			 M156.3,236.5c0.2,0,0.3-0.1,0.4-0.1l-0.1-0.8c-0.1,0.1-0.2,0.1-0.3,0.1c-0.1,0-0.2,0-0.3,0c-0.2,0-0.3-0.1-0.4-0.2
			c-0.1-0.1-0.2-0.3-0.2-0.6v-2.5h1.3v-0.8h-1.3v-1.6h-1.1v1.6h-0.7v0.8h0.7v2.6c0,0.5,0.1,0.9,0.4,1.2c0.3,0.3,0.6,0.4,1.1,0.4
			C156,236.5,156.1,236.5,156.3,236.5L156.3,236.5z M161.3,236c0.3-0.3,0.5-0.8,0.5-1.3v-1.5c0-0.6-0.2-1-0.5-1.3
			c-0.3-0.3-0.8-0.5-1.3-0.5c-0.6,0-1,0.2-1.3,0.5c-0.3,0.3-0.5,0.8-0.5,1.3v1.5c0,0.6,0.2,1,0.5,1.3c0.3,0.3,0.8,0.5,1.3,0.5
			S161,236.3,161.3,236L161.3,236z M159.5,235.4c-0.1-0.1-0.2-0.4-0.2-0.7v-1.4c0-0.3,0.1-0.6,0.2-0.7c0.1-0.2,0.3-0.2,0.5-0.2
			c0.2,0,0.4,0.1,0.5,0.2c0.1,0.2,0.2,0.4,0.2,0.7v1.4c0,0.3-0.1,0.6-0.2,0.7c-0.1,0.2-0.3,0.2-0.5,0.2
			C159.8,235.7,159.6,235.6,159.5,235.4L159.5,235.4z M164.5,236.4V233c0.1-0.2,0.2-0.3,0.3-0.5c0.1-0.1,0.3-0.2,0.4-0.2
			c0.1,0,0.2,0,0.3,0.1c0.1,0.1,0.1,0.2,0.1,0.4v0.7h1v-0.9c0-0.4-0.1-0.7-0.2-0.9c-0.2-0.2-0.4-0.3-0.7-0.3c-0.2,0-0.4,0.1-0.6,0.2
			c-0.2,0.1-0.3,0.3-0.4,0.6h-0.2v-0.7h-1.1v4.9H164.5L164.5,236.4z"/>
	</g>
	<rect x="271.3" y="229.9" class="st4" width="55.8" height="6.6"/>
	<g>
		<defs>
			<polyline id="SVGID_43_" points="327,236.5 271.3,236.5 271.3,229.9 327,229.9 327,236.5 			"/>
		</defs>
		<clipPath id="SVGID_44_">
			<use xlink:href="#SVGID_43_"  style="overflow:visible;"/>
		</clipPath>
		<path class="st35" d="M272.9,233.8l0.6-2.9l0.6,2.9H272.9L272.9,233.8z M275.8,236.4l-1.5-6.5h-1.4l-1.6,6.5h1l0.4-1.8h1.6
			l0.4,1.8H275.8L275.8,236.4z M280,236.1c0.3-0.3,0.5-0.7,0.5-1.2l-1.1-0.1c0,0.3-0.1,0.5-0.2,0.6c-0.1,0.1-0.3,0.2-0.5,0.2
			c-0.3,0-0.5-0.1-0.6-0.2c-0.1-0.1-0.2-0.4-0.2-0.7v-1.6c0-0.3,0.1-0.6,0.2-0.7c0.1-0.1,0.3-0.2,0.6-0.2c0.3,0,0.4,0.1,0.5,0.2
			c0.1,0.1,0.2,0.4,0.2,0.7l1.1-0.1c0-0.6-0.2-1-0.5-1.3s-0.7-0.4-1.3-0.4c-0.6,0-1,0.1-1.3,0.4c-0.3,0.3-0.5,0.7-0.5,1.3v1.6
			c0,0.5,0.2,1,0.5,1.3c0.3,0.3,0.8,0.4,1.4,0.4C279.3,236.5,279.7,236.4,280,236.1L280,236.1z M285.2,236.1
			c0.3-0.3,0.5-0.7,0.5-1.2l-1.1-0.1c0,0.3-0.1,0.5-0.2,0.6c-0.1,0.1-0.3,0.2-0.5,0.2c-0.3,0-0.5-0.1-0.6-0.2
			c-0.1-0.1-0.2-0.4-0.2-0.7v-1.6c0-0.3,0.1-0.6,0.2-0.7c0.1-0.1,0.3-0.2,0.6-0.2c0.3,0,0.4,0.1,0.5,0.2c0.1,0.1,0.2,0.4,0.2,0.7
			l1.1-0.1c0-0.6-0.2-1-0.5-1.3c-0.3-0.3-0.7-0.4-1.3-0.4c-0.6,0-1,0.1-1.3,0.4c-0.3,0.3-0.5,0.7-0.5,1.3v1.6c0,0.5,0.2,1,0.5,1.3
			c0.3,0.3,0.8,0.4,1.4,0.4C284.5,236.5,284.9,236.4,285.2,236.1L285.2,236.1z M289.1,236.3c0.2-0.1,0.3-0.3,0.4-0.6h0.2v0.7h1.1
			v-4.9h-1.1v3.4c-0.1,0.2-0.2,0.4-0.4,0.5c-0.1,0.1-0.3,0.2-0.5,0.2c-0.2,0-0.3-0.1-0.4-0.2c-0.1-0.1-0.1-0.3-0.1-0.6v-3.3h-1.1
			v3.5c0,0.5,0.1,0.8,0.3,1.1c0.2,0.3,0.5,0.4,0.8,0.4C288.7,236.5,288.9,236.4,289.1,236.3L289.1,236.3z"/>
	</g>
	<path class="st33" d="M293.8,232.5c0.1-0.1,0.2-0.1,0.4-0.1c0.1,0,0.2,0.1,0.3,0.2c0.1,0.1,0.1,0.3,0.1,0.5v3.5h1.1v-3.5
		c0.1-0.2,0.2-0.3,0.3-0.4c0.1-0.1,0.2-0.1,0.4-0.1c0.1,0,0.2,0.1,0.3,0.2c0.1,0.1,0.1,0.3,0.1,0.5v3.5h1.1v-3.5
		c0-0.5-0.1-0.8-0.3-1.1c-0.2-0.3-0.4-0.4-0.7-0.4c-0.2,0-0.4,0.1-0.6,0.2c-0.2,0.1-0.3,0.3-0.4,0.5h-0.3c-0.1-0.2-0.2-0.4-0.3-0.6
		c-0.2-0.1-0.3-0.2-0.5-0.2c-0.2,0-0.4,0.1-0.6,0.2c-0.2,0.1-0.3,0.3-0.4,0.5h-0.2v-0.7h-1.1v4.9h1.1v-3.5
		C293.6,232.7,293.7,232.6,293.8,232.5L293.8,232.5z"/>
	<g>
		<defs>
			<polyline id="SVGID_45_" points="327,236.5 271.3,236.5 271.3,229.9 327,229.9 327,236.5 			"/>
		</defs>
		<clipPath id="SVGID_46_">
			<use xlink:href="#SVGID_45_"  style="overflow:visible;"/>
		</clipPath>
		<path class="st36" d="M301.3,236.3c0.2-0.1,0.3-0.3,0.4-0.6h0.2v0.7h1.1v-4.9h-1.1v3.4c-0.1,0.2-0.2,0.4-0.4,0.5s-0.3,0.2-0.5,0.2
			c-0.2,0-0.3-0.1-0.4-0.2c-0.1-0.1-0.1-0.3-0.1-0.6v-3.3h-1.1v3.5c0,0.5,0.1,0.8,0.3,1.1c0.2,0.3,0.5,0.4,0.8,0.4
			C300.9,236.5,301.1,236.4,301.3,236.3L301.3,236.3z M306.8,236.4c0.2,0,0.3-0.1,0.4-0.2l-0.2-0.8c-0.1,0-0.2,0.1-0.3,0.1
			c-0.1,0-0.2,0-0.3,0c-0.2,0-0.3-0.1-0.4-0.2c-0.1-0.1-0.1-0.4-0.1-0.6v-4.9h-1.1v4.9c0,0.6,0.1,1,0.4,1.3c0.3,0.3,0.6,0.5,1.1,0.5
			C306.5,236.5,306.7,236.5,306.8,236.4L306.8,236.4z"/>
		<path class="st36" d="M309.8,235.5c-0.1-0.1-0.1-0.3-0.1-0.5c0-0.3,0-0.4,0.1-0.5c0.1-0.1,0.2-0.1,0.4-0.1h0.9v0.9
			c-0.1,0.2-0.2,0.3-0.4,0.4c-0.2,0.1-0.3,0.1-0.5,0.1C310,235.7,309.9,235.7,309.8,235.5L309.8,235.5z M310.8,236.3
			c0.2-0.1,0.4-0.3,0.6-0.6h0.2c0.1,0.3,0.2,0.5,0.5,0.7c0.2,0.1,0.5,0.1,0.9,0v-0.9c-0.3,0.1-0.4,0-0.6,0c-0.1-0.1-0.2-0.2-0.2-0.5
			v-2.2c0-0.5-0.1-0.9-0.4-1.1c-0.3-0.2-0.7-0.3-1.2-0.3c-0.5,0-0.9,0.1-1.2,0.3c-0.3,0.2-0.5,0.6-0.6,1.1l0.9,0.2
			c0.1-0.3,0.1-0.6,0.2-0.7c0.1-0.1,0.3-0.2,0.5-0.2c0.2,0,0.4,0.1,0.5,0.2c0.1,0.1,0.2,0.3,0.2,0.5v0.8H310c-0.4,0-0.8,0.1-1,0.4
			c-0.3,0.2-0.4,0.6-0.4,1s0.1,0.8,0.4,1c0.2,0.2,0.6,0.4,1,0.4C310.3,236.5,310.6,236.4,310.8,236.3L310.8,236.3z M316.7,236.5
			c0.2,0,0.3-0.1,0.4-0.1l-0.1-0.8c-0.1,0.1-0.2,0.1-0.3,0.1c-0.1,0-0.2,0-0.3,0c-0.2,0-0.3-0.1-0.4-0.2c-0.1-0.1-0.2-0.3-0.2-0.6
			v-2.5h1.3v-0.8h-1.3v-1.6h-1.1v1.6h-0.7v0.8h0.7v2.6c0,0.5,0.1,0.9,0.4,1.2c0.3,0.3,0.6,0.4,1.1,0.4
			C316.4,236.5,316.5,236.5,316.7,236.5L316.7,236.5z"/>
		<path class="st36" d="M321.7,236c0.3-0.3,0.5-0.8,0.5-1.3v-1.5c0-0.6-0.2-1-0.5-1.3c-0.3-0.3-0.8-0.5-1.3-0.5
			c-0.6,0-1,0.2-1.3,0.5c-0.3,0.3-0.5,0.8-0.5,1.3v1.5c0,0.6,0.2,1,0.5,1.3c0.3,0.3,0.8,0.5,1.3,0.5S321.4,236.3,321.7,236
			L321.7,236z M319.9,235.4c-0.1-0.1-0.2-0.4-0.2-0.7v-1.4c0-0.3,0.1-0.6,0.2-0.7c0.1-0.2,0.3-0.2,0.5-0.2c0.2,0,0.4,0.1,0.5,0.2
			c0.1,0.2,0.2,0.4,0.2,0.7v1.4c0,0.3-0.1,0.6-0.2,0.7c-0.1,0.2-0.3,0.2-0.5,0.2C320.2,235.7,320,235.6,319.9,235.4L319.9,235.4z
			 M324.9,236.4V233c0.1-0.2,0.2-0.3,0.3-0.5c0.1-0.1,0.3-0.2,0.4-0.2c0.1,0,0.2,0,0.3,0.1c0.1,0.1,0.1,0.2,0.1,0.4v0.7h1v-0.9
			c0-0.4-0.1-0.7-0.2-0.9c-0.2-0.2-0.4-0.3-0.7-0.3c-0.2,0-0.4,0.1-0.6,0.2c-0.2,0.1-0.3,0.3-0.4,0.6h-0.2v-0.7h-1.1v4.9H324.9
			L324.9,236.4z"/>
	</g>
</g>
</svg>
