<svg id="Layer_1" data-name="Layer 1" xmlns="http://www.w3.org/2000/svg" xmlns:xlink="http://www.w3.org/1999/xlink" viewBox="0 0 177.38 146.12"><defs><style>.cls-1,.cls-12,.cls-14,.cls-4,.cls-6,.cls-7,.cls-9{fill:none;}.cls-2{clip-path:url(#clip-path);}.cls-3{fill:#e6e6e6;}.cls-4{stroke:#e6e6e6;}.cls-13,.cls-14,.cls-4,.cls-6{stroke-miterlimit:10;}.cls-4,.cls-6{stroke-width:0.3px;}.cls-5{fill:#b3b3b3;}.cls-6{stroke:#b3b3b3;}.cls-7,.cls-9{stroke:#231f20;}.cls-12,.cls-7,.cls-9{stroke-linejoin:round;}.cls-7{stroke-width:0.27px;}.cls-8{fill:#fff;}.cls-9{stroke-width:0.9px;}.cls-10,.cls-11{font-size:8px;font-family:ArialMT, Arial;}.cls-10{fill:#333;}.cls-11{fill:#666;}.cls-12,.cls-13,.cls-14{stroke:#666;stroke-width:0.25px;}.cls-13{fill:#231f20;}.cls-13,.cls-14{stroke-linecap:square;}</style><clipPath id="clip-path" transform="translate(-18.62 -24.64)"><rect class="cls-1" x="45.89" y="36.87" width="149.98" height="111.76"/></clipPath></defs><title>portugues2011</title><g class="cls-2"><rect class="cls-3" x="27.27" y="12.23" width="25" height="111.76"/><rect class="cls-4" x="27.27" y="12.23" width="25" height="111.76"/></g><g class="cls-2"><rect class="cls-3" x="102.26" y="12.23" width="25" height="111.76"/><rect class="cls-4" x="102.26" y="12.23" width="25" height="111.76"/></g><g class="cls-2"><rect class="cls-5" x="77.27" y="12.23" width="25" height="111.76"/><rect class="cls-6" x="77.27" y="12.23" width="25" height="111.76"/></g><g class="cls-2"><rect class="cls-5" x="127.26" y="12.23" width="25" height="111.76"/><rect class="cls-6" x="127.26" y="12.23" width="25" height="111.76"/></g><line class="cls-7" x1="64.41" y1="123.88" x2="64.41" y2="122.45"/><rect class="cls-8" x="52.03" y="12.48" width="24.77" height="111.4"/><path class="cls-9" d="M50,88.26l8.28.27,8.25,9.76,8.27-28.13,8.25,0,8.24,6.61,8.28,57.75,8.25-7.25,8.28-8,8.24-41.07,8.28,1.22,8.24-.38,8.28,39.83,8.25,7.38,8.24.24L173.89,48l8.24,18.06,8.28,9.22m0-4v7.86m-8.28-18.3v10.3m-6.85-30.84-2.78,0,1.39.47V56m-8.28,66.56v7.73m-8.24-7.83v7.62m-8.25-15.59v8.78m-8.28-49.51V84.23m-8.24-8.75v7.73m-8.28-9.15V82.8m-8.24,30.57v11.86m-8.28-1.79v7.69m-8.25-.3v7.45M92.7,81.58,89.88,72m1.39,0v9.59m-9.63-7,0-8.67,1.39.2v8.27M73.36,75m0-9.62,1.42-.1V75m-9.67,26.5,2.79-6.44-2.79,0,1.4,0v6.44m-9.44-9.29,0-7.32,1.19,0v7.32M50,84.63v7.59" transform="translate(-18.62 -24.64)"/><text class="cls-10" transform="translate(8.06 6.87)">Gain: </text><text class="cls-11" transform="translate(37.61 134.7)">2</text><text class="cls-11" transform="translate(62.6 134.7)">5</text><text class="cls-11" transform="translate(87.6 134.7)">8</text><text class="cls-11" transform="translate(111.43 134.7)">11</text><text class="cls-11" transform="translate(136.42 134.7)">14</text><text class="cls-11" transform="translate(161.42 134.7)">17</text><text class="cls-10" transform="translate(79.06 143.52)">Trial number</text><text class="cls-11" transform="translate(10.98 114.56)">0.6</text><text class="cls-11" transform="translate(10.98 92.21)">0.8</text><text class="cls-11" transform="translate(10.98 69.86)">1.0</text><text class="cls-11" transform="translate(10.98 47.51)">1.2</text><text class="cls-11" transform="translate(10.98 25.16)">1.4</text><line class="cls-12" x1="39.77" y1="124.24" x2="39.77" y2="126.76"/><line class="cls-12" x1="64.77" y1="124.24" x2="64.77" y2="126.76"/><line class="cls-12" x1="114.76" y1="124.24" x2="114.76" y2="126.76"/><line class="cls-12" x1="139.76" y1="124.24" x2="139.76" y2="126.76"/><line class="cls-12" x1="164.75" y1="124.24" x2="164.75" y2="126.76"/><line class="cls-12" x1="27.27" y1="113.06" x2="24.75" y2="113.06"/><line class="cls-12" x1="27.27" y1="90.71" x2="24.75" y2="90.71"/><line class="cls-12" x1="27.27" y1="68.36" x2="24.75" y2="68.36"/><line class="cls-12" x1="27.27" y1="46.01" x2="24.75" y2="46.01"/><line class="cls-12" x1="27.27" y1="23.65" x2="24.75" y2="23.65"/><line class="cls-13" x1="27.27" y1="124.24" x2="27.27" y2="12.48"/><line class="cls-14" x1="27.27" y1="124.24" x2="177.25" y2="124.24"/><text class="cls-11" transform="translate(36.94 6.87)">1</text><text class="cls-11" transform="translate(58.37 6.87)">1.5</text><text class="cls-11" transform="translate(83.13 6.87)">0.5</text><text class="cls-11" transform="translate(111.23 6.87)">1</text><text class="cls-11" transform="translate(132.66 6.87)">0.5</text><text class="cls-11" transform="translate(157.76 6.87)">1.5</text><text class="cls-10" transform="translate(6.87 113.9) rotate(-90)">Relative inter-bout interval</text></svg>