<?xml version="1.0" encoding="UTF-8" standalone="no"?>
<!-- Generator: Adobe Illustrator 23.0.2, SVG Export Plug-In . SVG Version: 6.00 Build 0)  -->

<svg
   xmlns:dc="http://purl.org/dc/elements/1.1/"
   xmlns:cc="http://creativecommons.org/ns#"
   xmlns:rdf="http://www.w3.org/1999/02/22-rdf-syntax-ns#"
   xmlns:svg="http://www.w3.org/2000/svg"
   xmlns="http://www.w3.org/2000/svg"
   xmlns:xlink="http://www.w3.org/1999/xlink"
   xmlns:sodipodi="http://sodipodi.sourceforge.net/DTD/sodipodi-0.dtd"
   xmlns:inkscape="http://www.inkscape.org/namespaces/inkscape"
   version="1.1"
   id="Layer_1"
   x="0px"
   y="0px"
   viewBox="0 0 510.88 191.45"
   style="enable-background:new 0 0 510.88 191.45;"
   xml:space="preserve"
   sodipodi:docname="example_bouts.svg"
   inkscape:version="0.92.1 r15371"><metadata
     id="metadata193"><rdf:RDF><cc:Work
         rdf:about=""><dc:format>image/svg+xml</dc:format><dc:type
           rdf:resource="http://purl.org/dc/dcmitype/StillImage" /></cc:Work></rdf:RDF></metadata><defs
     id="defs191" /><sodipodi:namedview
     pagecolor="#ffffff"
     bordercolor="#666666"
     borderopacity="1"
     objecttolerance="10"
     gridtolerance="10"
     guidetolerance="10"
     inkscape:pageopacity="0"
     inkscape:pageshadow="2"
     inkscape:window-width="3829"
     inkscape:window-height="2054"
     id="namedview189"
     showgrid="false"
     inkscape:zoom="2.9896466"
     inkscape:cx="81.684855"
     inkscape:cy="178.50132"
     inkscape:window-x="0"
     inkscape:window-y="0"
     inkscape:window-maximized="0"
     inkscape:current-layer="Layer_1" /><style
     type="text/css"
     id="style2">
	.st0{fill:none;stroke:#058299;stroke-linecap:square;stroke-linejoin:round;stroke-miterlimit:10;}
	.st1{fill:none;stroke:#666666;stroke-width:0.5;stroke-linecap:square;stroke-miterlimit:10;}
	.st2{fill:none;stroke:#C65250;stroke-linecap:square;stroke-linejoin:round;stroke-miterlimit:10;}
	.st3{fill:none;stroke:#AC7730;stroke-linecap:square;stroke-linejoin:round;stroke-miterlimit:10;}
	.st4{fill:none;stroke:#8A4EA6;stroke-linecap:square;stroke-linejoin:round;stroke-miterlimit:10;}
	.st5{fill:none;stroke:#5A8F40;stroke-linecap:square;stroke-linejoin:round;stroke-miterlimit:10;}
	.st6{font-family:'ArialMT';}
	.st7{font-size:10px;}
	.st8{fill:#666666;}
	.st9{fill:none;stroke:#666666;stroke-width:0.5;stroke-linejoin:round;stroke-miterlimit:10;}
	.st10{fill:#333333;}
	.st11{fill:none;}
	.st12{opacity:0.39;clip-path:url(#SVGID_2_);}
	.st13{opacity:0.16;}
	.st14{fill:#808080;}
</style><polyline
     class="st0"
     points="77.77,70.84 77.8,70.84 77.81,70.83 77.92,70.82 77.92,70.82 78.18,70.8 78.28,70.79 78.4,70.71   78.43,70.36 77.5,68.47 76.42,66.64 74.77,65 73.25,63.49 72.07,62.3 71.41,61.23 72.13,60.26 73.92,59.5 76.58,58.85 79.57,58.56   83.24,58.39 86.91,58.3 89.54,58.21 91.42,57.56 93.01,56.04 94.4,53.84 95.25,51.64 95.52,49.94 96.41,48.51 97.7,47.68   100.09,47.03 102.94,46.72 105.24,46.83 107.58,46.54 109.34,46 110.83,45 111.7,43.74 112.44,42.36 113.37,40.96 114.54,39.72   115.71,38.95 117.32,38.22 118.45,38.11 119.6,37.95 120.53,37.73 121.48,37.41 122.33,36.91 122.93,36.46 123.61,35.83   124.28,35.23 124.66,34.86 125.07,34.58 125.63,34.26 126.07,34.03 126.4,33.87 126.76,33.69 127.11,33.53 127.45,33.36   127.86,33.08 128.18,32.84 128.57,32.57 128.86,32.37 129.08,32.23 129.21,32.14 129.44,31.98 129.66,31.83 129.83,31.73   130.1,31.55 130.21,31.46 130.45,31.32 130.55,31.23 130.79,31.06 131,30.93 131.12,30.85 131.28,30.75 131.41,30.67 131.56,30.58   131.73,30.44 "
     id="polyline4"
     transform="matrix(1.0639046,0,0,1.0639046,-32.423895,6.2146186)"
     style="fill:none;stroke:#058299;stroke-width:0.93993396;stroke-linecap:square;stroke-linejoin:round;stroke-miterlimit:10" /><polyline
     class="st1"
     points="31.32,92.09 31.32,131.79 71.01,131.79 "
     id="polyline6"
     transform="matrix(1.0639046,0,0,1.0639046,-32.423895,6.2146186)"
     style="fill:none;stroke:#666666;stroke-width:0.46996698;stroke-linecap:square;stroke-miterlimit:10" /><polyline
     class="st2"
     points="77.77,70.84 77.81,70.84 77.92,70.82 77.91,70.83 77.82,70.81 77.86,70.81 77.86,70.83 78.04,71.14   77.67,71.93 76.54,73.07 75.17,74.39 73.92,75.95 72.78,77.68 71.39,79.28 70.29,81.06 69.67,82.51 69.69,83.75 70.45,84.83   71.83,85.72 73.4,86.36 75.12,86.91 77.2,87.79 78.74,88.47 79.53,88.95 79.67,89.39 79.68,90.11 79.6,90.9 79.64,91.62   80.19,92.46 80.75,92.98 81.83,93.58 82.42,93.63 83.46,94.01 84.02,94.32 84.52,94.95 84.42,95.33 84.59,96.03 84.86,96.79   84.86,97.23 84.95,97.6 85.13,97.85 85.53,98.17 85.98,98.53 86.35,98.85 86.51,99.05 86.62,99.26 86.66,99.45 86.58,99.52   86.41,99.5 86.41,99.61 86.35,99.64 86.4,99.76 86.46,99.86 86.44,99.87 86.44,99.93 86.43,99.98 86.43,100.05 86.37,100.06   86.29,100.03 86.24,100.07 86.21,100.12 86.12,100.09 86.03,100.07 "
     id="polyline8"
     transform="matrix(1.0639046,0,0,1.0639046,-32.423895,6.2146186)"
     style="fill:none;stroke:#c65250;stroke-width:0.93993396;stroke-linecap:square;stroke-linejoin:round;stroke-miterlimit:10" /><polyline
     class="st3"
     points="77.77,70.84 77.73,70.81 77.81,70.78 77.8,70.76 77.84,70.73 77.92,70.73 77.76,70.83 77.68,71.13   77.12,71.92 76.12,72.93 75.34,74.18 74.87,75.68 74.37,77.28 73.95,78.64 74.42,79.86 75.48,80.75 76.99,81.2 79.15,81.51   81.32,81.64 82.95,81.49 84.23,81.57 85.06,82.02 85.62,82.78 85.54,83.78 85.46,84.77 85.85,85.99 86.33,86.85 87.13,87.47   88.07,87.8 89.54,88.1 90.63,88.14 91.61,88.26 92.27,88.48 92.8,88.9 93.2,89.46 93.29,89.98 93.53,90.58 93.89,91.16 94.39,91.73   95.03,92.25 95.43,92.51 95.74,92.66 95.91,92.73 96.05,92.83 96.11,92.94 96.18,93.08 96.2,93.19 96.23,93.28 96.31,93.37   96.4,93.45 96.61,93.58 96.74,93.67 96.83,93.75 96.9,93.83 96.97,93.9 97,93.97 97.05,94.04 97.01,94.02 97.03,94.05 97.03,94.05   97.07,94.07 97.11,94.09 "
     id="polyline10"
     transform="matrix(1.0639046,0,0,1.0639046,-32.423895,6.2146186)"
     style="fill:none;stroke:#ac7730;stroke-width:0.93993396;stroke-linecap:square;stroke-linejoin:round;stroke-miterlimit:10" /><polyline
     class="st4"
     points="77.77,70.84 77.58,70.78 77.12,70.6 76.72,70.25 76.52,69.75 76.69,69.23 77.08,68.87 77.78,68.83   78.69,69.28 79.83,70.16 80.88,71.19 81.66,72.12 82.35,72.68 83.27,72.77 84.27,72.33 85.23,71.46 86.38,70.38 87.8,69.3   88.88,68.57 89.93,68.41 90.89,68.81 92.45,70.15 93.71,71.09 94.81,71.56 95.95,71.53 97.12,71.1 98.11,70.52 99,69.95 99.66,69.6   100.25,69.45 100.77,69.54 101.17,69.84 101.68,70.15 102.2,70.39 102.92,70.58 103.71,70.7 104.31,70.73 104.71,70.7 105.12,70.65   105.35,70.62 105.62,70.6 105.82,70.58 106.08,70.59 106.35,70.59 106.58,70.6 106.7,70.58 106.94,70.55 107.1,70.52 107.29,70.48   107.42,70.45 107.53,70.43 107.64,70.4 107.8,70.39 107.92,70.4 108.05,70.39 108.04,70.39 108.24,70.38 108.32,70.37 "
     id="polyline12"
     transform="matrix(1.0639046,0,0,1.0639046,-32.423895,6.2146186)"
     style="fill:none;stroke:#8a4ea6;stroke-width:0.93993396;stroke-linecap:square;stroke-linejoin:round;stroke-miterlimit:10" /><polyline
     class="st5"
     points="77.77,70.84 77.7,70.84 77.77,70.81 77.8,70.81 77.83,70.8 77.86,70.8 77.99,70.74 77.5,70.44   77.16,69.78 76.46,68.73 75.68,67.39 75.29,65.76 75.22,64.17 75.57,62.89 76.29,61.84 77.22,61.35 78.68,61.33 81.23,61.59   84.38,62.3 87.57,63.22 90.34,64.03 92.26,64.35 93.9,63.93 94.89,62.88 95.32,61.51 95.99,59.97 96.76,58.81 98.2,57.88   99.64,57.58 101.14,57.84 102.55,58.35 104.28,58.77 105.79,58.99 107.69,58.82 109.11,58.38 110.29,57.7 110.91,57.09   111.48,56.53 111.99,56.13 112.6,55.85 112.93,55.82 113.27,55.9 113.76,55.95 114.03,56.03 114.34,55.98 114.81,55.84   115.43,55.63 115.89,55.44 116.19,55.31 116.46,55.18 116.55,55.09 116.63,55.03 116.83,54.98 117.07,54.94 117.39,54.89   117.64,54.83 117.94,54.76 118.16,54.69 118.39,54.63 118.54,54.59 118.68,54.54 118.85,54.49 119.02,54.45 119.21,54.39   119.31,54.37 119.41,54.35 119.51,54.32 "
     id="polyline14"
     transform="matrix(1.0639046,0,0,1.0639046,-32.423895,6.2146186)"
     style="fill:none;stroke:#5a8f40;stroke-width:0.93993396;stroke-linecap:square;stroke-linejoin:round;stroke-miterlimit:10" /><text
     class="st6 st7"
     id="text16"
     style="font-style:normal;font-variant:normal;font-weight:normal;font-stretch:normal;font-size:10.63904572px;font-family:sans-serif;-inkscape-font-specification:sans-serif;stroke-width:1;"
     x="0.89270145"
     y="29.166019"><tspan
       style="font-style:normal;font-variant:normal;font-weight:normal;font-stretch:normal;font-family:sans-serif;-inkscape-font-specification:sans-serif;stroke-width:0.93993402;"
       id="tspan4670">Trajectories</tspan></text>
<text
     class="st6 st7"
     id="text18"
     style="font-style:normal;font-variant:normal;font-weight:normal;font-stretch:normal;font-size:10.63904572px;font-family:sans-serif;-inkscape-font-specification:sans-serif;stroke-width:1;"
     x="6.3417015"
     y="141.0993">1 mm</text>
<line
     class="st8"
     x1="170.00523"
     y1="161.01274"
     x2="170.00523"
     y2="164.7364"
     id="line20"
     style="fill:#666666;stroke-width:1" /><line
     class="st9"
     x1="170.00523"
     y1="161.01274"
     x2="170.00523"
     y2="164.7364"
     id="line22"
     style="fill:none;stroke:#666666;stroke-width:0.5;stroke-linejoin:round;stroke-miterlimit:10" /><text
     class="st8 st6 st7"
     id="text24"
     style="font-style:normal;font-variant:normal;font-weight:normal;font-stretch:normal;font-size:10.63904572px;font-family:sans-serif;-inkscape-font-specification:sans-serif;fill:#666666;stroke-width:1;"
     x="162.60471"
     y="176.07368">0.0</text>
<line
     class="st8"
     x1="220.91307"
     y1="161.01274"
     x2="220.91307"
     y2="164.7364"
     id="line26"
     style="fill:#666666;stroke-width:1" /><line
     class="st9"
     x1="220.91307"
     y1="161.01274"
     x2="220.91307"
     y2="164.7364"
     id="line28"
     style="fill:none;stroke:#666666;stroke-width:0.5;stroke-linejoin:round;stroke-miterlimit:10" /><text
     class="st8 st6 st7"
     id="text30"
     style="font-style:normal;font-variant:normal;font-weight:normal;font-stretch:normal;font-size:10.63904572px;font-family:sans-serif;-inkscape-font-specification:sans-serif;fill:#666666;stroke-width:1;"
     x="213.52042"
     y="176.07368">0.1</text>
<line
     class="st8"
     x1="271.83154"
     y1="161.01274"
     x2="271.83154"
     y2="164.7364"
     id="line32"
     style="fill:#666666;stroke-width:1" /><line
     class="st9"
     x1="271.83154"
     y1="161.01274"
     x2="271.83154"
     y2="164.7364"
     id="line34"
     style="fill:none;stroke:#666666;stroke-width:0.5;stroke-linejoin:round;stroke-miterlimit:10" /><text
     class="st8 st6 st7"
     id="text36"
     style="font-style:normal;font-variant:normal;font-weight:normal;font-stretch:normal;font-size:10.63904572px;font-family:sans-serif;-inkscape-font-specification:sans-serif;fill:#666666;stroke-width:1;"
     x="264.43665"
     y="176.07368">0.2</text>
<text
     class="st10 st6 st7"
     id="text38"
     style="font-style:normal;font-variant:normal;font-weight:normal;font-stretch:normal;font-size:10.63904572px;font-family:sans-serif;-inkscape-font-specification:sans-serif;fill:#333333;stroke-width:1;"
     x="206.86578"
     y="190.05403">Time [s]</text>
<line
     class="st8"
     x1="163.46222"
     y1="154.32079"
     x2="159.73856"
     y2="154.32079"
     id="line40"
     style="fill:#666666;stroke-width:1" /><line
     class="st9"
     x1="163.46222"
     y1="154.32079"
     x2="159.73856"
     y2="154.32079"
     id="line42"
     style="fill:none;stroke:#666666;stroke-width:0.5;stroke-linejoin:round;stroke-miterlimit:10" /><text
     class="st8 st6 st7"
     id="text44"
     style="font-style:normal;font-variant:normal;font-weight:normal;font-stretch:normal;font-size:10.63904572px;font-family:sans-serif;-inkscape-font-specification:sans-serif;fill:#666666;stroke-width:1;"
     x="150.10117"
     y="158.12338">0</text>
<line
     class="st8"
     x1="163.46222"
     y1="126.82948"
     x2="159.73856"
     y2="126.82948"
     id="line46"
     style="fill:#666666;stroke-width:1" /><line
     class="st9"
     x1="163.46222"
     y1="126.82948"
     x2="159.73856"
     y2="126.82948"
     id="line48"
     style="fill:none;stroke:#666666;stroke-width:0.5;stroke-linejoin:round;stroke-miterlimit:10" /><text
     class="st8 st6 st7"
     id="text50"
     style="font-style:normal;font-variant:normal;font-weight:normal;font-stretch:normal;font-size:10.63904572px;font-family:sans-serif;-inkscape-font-specification:sans-serif;fill:#666666;stroke-width:1;"
     x="150.10117"
     y="130.63742">5</text>
<line
     class="st8"
     x1="163.46222"
     y1="99.348831"
     x2="159.73856"
     y2="99.348831"
     id="line52"
     style="fill:#666666;stroke-width:1" /><line
     class="st9"
     x1="163.46222"
     y1="99.348831"
     x2="159.73856"
     y2="99.348831"
     id="line54"
     style="fill:none;stroke:#666666;stroke-width:0.5;stroke-linejoin:round;stroke-miterlimit:10" /><text
     class="st8 st6 st7"
     id="text56"
     style="font-style:normal;font-variant:normal;font-weight:normal;font-stretch:normal;font-size:10.63904572px;font-family:sans-serif;-inkscape-font-specification:sans-serif;fill:#666666;stroke-width:1;"
     x="144.1832"
     y="103.1525">10</text>
<line
     class="st8"
     x1="163.46222"
     y1="71.857536"
     x2="159.73856"
     y2="71.857536"
     id="line58"
     style="fill:#666666;stroke-width:1" /><line
     class="st9"
     x1="163.46222"
     y1="71.857536"
     x2="159.73856"
     y2="71.857536"
     id="line60"
     style="fill:none;stroke:#666666;stroke-width:0.5;stroke-linejoin:round;stroke-miterlimit:10" /><text
     class="st8 st6 st7"
     id="text62"
     style="font-style:normal;font-variant:normal;font-weight:normal;font-stretch:normal;font-size:10.63904572px;font-family:sans-serif;-inkscape-font-specification:sans-serif;fill:#666666;stroke-width:1;"
     x="144.1832"
     y="75.666626">15</text>
<line
     class="st8"
     x1="163.46222"
     y1="44.376877"
     x2="159.73856"
     y2="44.376877"
     id="line64"
     style="fill:#666666;stroke-width:1" /><line
     class="st9"
     x1="163.46222"
     y1="44.376877"
     x2="159.73856"
     y2="44.376877"
     id="line66"
     style="fill:none;stroke:#666666;stroke-width:0.5;stroke-linejoin:round;stroke-miterlimit:10" /><text
     class="st8 st6 st7"
     id="text68"
     style="font-style:normal;font-variant:normal;font-weight:normal;font-stretch:normal;font-size:10.63904572px;font-family:sans-serif;-inkscape-font-specification:sans-serif;fill:#666666;stroke-width:1;"
     x="144.1832"
     y="48.180653">20</text>
<line
     class="st8"
     x1="163.46222"
     y1="16.885582"
     x2="159.73856"
     y2="16.885582"
     id="line70"
     style="fill:#666666;stroke-width:1" /><line
     class="st9"
     x1="163.46222"
     y1="16.885582"
     x2="159.73856"
     y2="16.885582"
     id="line72"
     style="fill:none;stroke:#666666;stroke-width:0.5;stroke-linejoin:round;stroke-miterlimit:10" /><text
     class="st8 st6 st7"
     id="text74"
     style="font-style:normal;font-variant:normal;font-weight:normal;font-stretch:normal;font-size:10.63904572px;font-family:sans-serif;-inkscape-font-specification:sans-serif;fill:#666666;stroke-width:1;"
     x="144.1832"
     y="20.695211">25</text>
<text
     transform="rotate(-90)"
     class="st10 st6 st7"
     id="text76"
     style="font-style:normal;font-variant:normal;font-weight:normal;font-stretch:normal;font-size:10.63904572px;font-family:sans-serif;-inkscape-font-specification:sans-serif;fill:#333333;stroke-width:1;"
     x="-147.86351"
     y="137.68349">Velocity magnitude [mm/s]</text>
<polyline
     class="st0"
     points="190.27,137.72 191.7,138.9 193.13,139.05 195.04,137.04 196.47,138.2 203.63,133.62 205.06,134.57   206.5,134.15 207.93,131.2 208.88,96.64 210.79,77.41 212.22,64.37 213.66,60.31 215.09,66.8 216.52,78.3 217.95,95.74   219.38,91.51 221.01,66.49 222.44,46.24 223.87,22.42 225.3,9.95 226.74,22.64 228.17,42.35 229.6,51.69 231.51,48.76 232.94,50.35   234.37,62.79 236.28,68.12 237.71,75.66 239.15,63.19 240.1,47.69 242.01,49.63 243.44,48.35 244.87,57.87 246.31,64.83   247.74,74.59 249.17,77.89 250.6,76.09 252.03,74.5 253.94,79.87 255.37,75.98 257.28,86.61 258.72,90.45 260.63,95.96   262.06,97.97 263.97,99.68 265.4,104.78 266.83,104.16 268.26,104.18 269.69,111.09 271.6,115.45 273.04,114.83 274.95,117.18   276.38,120.94 277.81,122.07 279.24,123.2 280.67,123.68 282.58,121.9 284.01,122.77 285.92,121.75 287.35,123.53 289.26,126.13   290.7,129.56 292.13,128.96 294.04,128.73 295.47,130.22 297.38,128.36 298.81,130.97 300.24,129.69 301.68,131.69 303.58,129.77   305.01,129.7 306.45,131.69 308.36,131.74 309.79,132.4 311.22,132.44 313.13,131.59 "
     id="polyline78"
     transform="matrix(1.0639046,0,0,1.0639046,-32.423895,6.2146186)"
     style="fill:none;stroke:#058299;stroke-width:0.93993396;stroke-linecap:square;stroke-linejoin:round;stroke-miterlimit:10" /><rect
     x="163.46222"
     y="9.9382849"
     class="st11"
     width="143.7867"
     height="151.07445"
     id="rect80"
     style="fill:none;stroke-width:1" /><polyline
     class="st2"
     points="190.27,138.3 192.18,138.98 193.13,136.96 194.56,138.11 196.47,137.93 197.9,138.89 199.34,139.01   201.24,132.12 202.68,120.22 204.59,99.44 206.02,82.22 207.45,71.44 208.88,64.53 210.42,59.86 212.02,58.3 213.94,67.32   215.37,80.39 217.28,89.17 218.71,87.46 220.14,82.29 222.05,76.13 223.48,63.31 224.91,67.48 226.34,84.4 228.25,104.12   229.69,110.35 231.59,110.56 233.03,110.56 234.46,105.91 235.89,108.1 238.28,100.61 239.71,109.09 241.14,102.41 242.09,107.96   244,108.4 245.91,119.02 247.35,115.24 248.78,111.32 250.69,116.69 252.12,120.3 253.55,123.63 255.47,122 256.89,119.46   258.8,119.52 259.75,124.04 261.66,126.98 263.1,129.47 264.53,133.36 266.44,135.44 267.87,135.38 269.78,136.11 271.21,135.8   272.64,135.26 274.07,137.12 275.98,136.8 277.42,137.09 279.32,136.7 280.76,137.29 282.19,137.02 284.1,137.03 286.01,137.11   287.44,136.66 288.87,136.17 "
     id="polyline82"
     transform="matrix(1.0639046,0,0,1.0639046,-32.423895,6.2146186)"
     style="fill:none;stroke:#c65250;stroke-width:0.93993396;stroke-linecap:square;stroke-linejoin:round;stroke-miterlimit:10" /><rect
     x="163.46222"
     y="9.9382849"
     class="st11"
     width="143.7867"
     height="151.07445"
     id="rect84"
     style="fill:none;stroke-width:1" /><polyline
     class="st3"
     points="190.27,138.48 191.7,138.18 193.13,137.65 195.04,138.12 196.47,137.81 197.9,137.14 199.34,136.73   200.77,132.07 202.68,117.2 204.59,100.65 206.02,90.96 207.93,84.79 209.36,78.91 210.79,80.63 212.22,87.26 214.13,90.85   215.56,88.91 217.47,73.51 218.91,64.14 220.34,69.49 221.77,78.51 223.68,90.59 225.11,98.67 227.02,105.19 228.45,103.98   230.36,96.46 231.32,98.58 233.22,99.96 234.66,101.63 236.09,92.1 238,94.36 239.43,97.2 240.86,104.13 242.77,108.76   244.2,111.29 246.11,116.09 247.54,114.96 248.98,113.68 250.41,111.61 252.32,109.18 253.75,114.71 255.66,120.04 257.09,125.79   258.52,129 260.43,131.74 261.86,132.29 263.29,133.74 264.73,134.44 266.64,134.59 268.07,134.58 269.5,132.05 271.41,132.38   272.84,133.5 274.75,134.27 276.18,134.63 277.61,135.55 279.05,135.64 280.95,137.92 282.39,137.85 283.82,138.51 285.73,138.17   287.16,137.7 "
     id="polyline86"
     transform="matrix(1.0639046,0,0,1.0639046,-32.423895,6.2146186)"
     style="fill:none;stroke:#ac7730;stroke-width:0.93993396;stroke-linecap:square;stroke-linejoin:round;stroke-miterlimit:10" /><rect
     x="163.46222"
     y="9.9382849"
     class="st11"
     width="143.7867"
     height="151.07445"
     id="rect88"
     style="fill:none;stroke-width:1" /><polyline
     class="st4"
     points="190.27,138.13 192.18,134.9 193.61,127.65 195.52,123.59 196.95,121.97 198.38,122.12 200.29,122.52   201.73,120.83 203.15,113.39 205.06,100.12 206.5,91.87 207.93,92.31 209.84,98.29 211.27,102.57 213.18,103.34 214.61,99.28   216.52,89.53 222.72,80.21 224.16,84.35 225.59,92.12 227.02,98.93 228.45,83.83 230.36,81.39 231.79,87.09 233.22,92.35   234.66,93.8 236.09,95.52 237.52,97.27 238.95,103.54 240.86,109.58 242.29,114.82 243.73,118.82 245.16,117.83 247.07,117.54   248.5,114.03 249.93,111.45 251.36,113.64 252.79,118.47 253.75,120.95 255.18,125.43 256.61,127 258.04,129.12 259.48,129.1   260.91,128.92 262.34,129.52 263.77,132 265.68,130.94 267.11,131.88 268.54,131.78 270.45,132.82 271.89,133.82 273.32,134.38   275.23,133.61 277.14,134.19 278.57,134.18 280,136.65 281.43,134.28 283.34,135.11 "
     id="polyline90"
     transform="matrix(1.0639046,0,0,1.0639046,-32.423895,6.2146186)"
     style="fill:none;stroke:#8a4ea6;stroke-width:0.93993396;stroke-linecap:square;stroke-linejoin:round;stroke-miterlimit:10" /><rect
     x="163.46222"
     y="9.9382849"
     class="st11"
     width="143.7867"
     height="151.07445"
     id="rect92"
     style="fill:none;stroke-width:1" /><polyline
     class="st5"
     points="190.27,137.82 191.7,138.51 193.3,137.99 195.25,138.11 196.68,138.12 198.11,137.96 200.02,135.85   201.45,129.2 202.88,120.19 204.32,105.16 206.23,91.96 207.66,83.35 209.57,80.57 211,85.12 212.43,89.09 214.34,96.62   215.77,94.59 217.68,69.12 219.11,42.1 221.02,25.87 222.45,25.43 223.89,43.2 225.32,59.09 226.75,75.9 228.66,85.8 230.09,80.88   232,82.24 233.43,78.27 234.86,81.79 236.3,83.61 238.2,83.56 239.64,76.52 241.07,77.57 242.98,71.43 244.41,76.44 245.84,81.77   247.75,94.18 249.66,100.91 251.09,107.06 252.52,109.81 254.43,118.2 255.87,122.46 257.3,121.27 258.73,124.74 260.64,125.74   262.07,123.07 263.98,118.37 265.41,118.86 266.84,122.36 268.27,124.79 270.18,129.47 271.62,132.23 273.52,131.72 274.96,130.74   276.39,128.64 278.3,128.93 279.73,128.01 281.16,129.02 282.59,129.32 284.5,131.08 285.94,132.18 287.84,132.11 289.28,132.26   290.71,131.79 292.14,133.46 294.05,134.22 295.48,134.64 "
     id="polyline94"
     transform="matrix(1.0639046,0,0,1.0639046,-32.423895,6.2146186)"
     style="fill:none;stroke:#5a8f40;stroke-width:0.93993396;stroke-linecap:square;stroke-linejoin:round;stroke-miterlimit:10" /><rect
     x="163.46222"
     y="9.9382849"
     class="st11"
     width="143.7867"
     height="151.07445"
     id="rect96"
     style="fill:none;stroke-width:1" /><line
     class="st1"
     x1="163.46222"
     y1="154.32079"
     x2="163.46222"
     y2="16.885582"
     id="line98"
     style="fill:none;stroke:#666666;stroke-width:0.5;stroke-linecap:square;stroke-miterlimit:10" /><line
     class="st1"
     x1="170.00523"
     y1="161.01274"
     x2="271.83154"
     y2="161.01274"
     id="line100"
     style="fill:none;stroke:#666666;stroke-width:0.5;stroke-linecap:square;stroke-miterlimit:10" /><line
     class="st8"
     x1="370.13632"
     y1="161.01274"
     x2="370.13632"
     y2="164.7364"
     id="line102"
     style="fill:#666666;stroke-width:1" /><line
     class="st9"
     x1="370.13632"
     y1="161.01274"
     x2="370.13632"
     y2="164.7364"
     id="line104"
     style="fill:none;stroke:#666666;stroke-width:0.5;stroke-linejoin:round;stroke-miterlimit:10" /><text
     class="st8 st6 st7"
     id="text106"
     style="font-style:normal;font-variant:normal;font-weight:normal;font-stretch:normal;font-size:10.63904572px;font-family:sans-serif;-inkscape-font-specification:sans-serif;fill:#666666;stroke-width:1;"
     x="362.73557"
     y="176.07368">0.0</text>
<line
     class="st8"
     x1="421.04419"
     y1="161.01274"
     x2="421.04419"
     y2="164.7364"
     id="line108"
     style="fill:#666666;stroke-width:1" /><line
     class="st9"
     x1="421.04419"
     y1="161.01274"
     x2="421.04419"
     y2="164.7364"
     id="line110"
     style="fill:none;stroke:#666666;stroke-width:0.5;stroke-linejoin:round;stroke-miterlimit:10" /><text
     class="st8 st6 st7"
     id="text112"
     style="font-style:normal;font-variant:normal;font-weight:normal;font-stretch:normal;font-size:10.63904572px;font-family:sans-serif;-inkscape-font-specification:sans-serif;fill:#666666;stroke-width:1;"
     x="413.6514"
     y="176.07368">0.1</text>
<line
     class="st8"
     x1="471.96265"
     y1="161.01274"
     x2="471.96265"
     y2="164.7364"
     id="line114"
     style="fill:#666666;stroke-width:1" /><line
     class="st9"
     x1="471.96265"
     y1="161.01274"
     x2="471.96265"
     y2="164.7364"
     id="line116"
     style="fill:none;stroke:#666666;stroke-width:0.5;stroke-linejoin:round;stroke-miterlimit:10" /><text
     class="st8 st6 st7"
     id="text118"
     style="font-style:normal;font-variant:normal;font-weight:normal;font-stretch:normal;font-size:10.63904572px;font-family:sans-serif;-inkscape-font-specification:sans-serif;fill:#666666;stroke-width:1;"
     x="464.56711"
     y="176.07368">0.2</text>
<text
     class="st10 st6 st7"
     id="text120"
     style="font-style:normal;font-variant:normal;font-weight:normal;font-stretch:normal;font-size:10.63904572px;font-family:sans-serif;-inkscape-font-specification:sans-serif;fill:#333333;stroke-width:1;"
     x="406.99677"
     y="190.05403">Time [s]</text>
<line
     class="st8"
     x1="363.59332"
     y1="125.30811"
     x2="359.86966"
     y2="125.30811"
     id="line122"
     style="fill:#666666;stroke-width:1" /><line
     class="st9"
     x1="363.59332"
     y1="125.30811"
     x2="359.86966"
     y2="125.30811"
     id="line124"
     style="fill:none;stroke:#666666;stroke-width:0.5;stroke-linejoin:round;stroke-miterlimit:10" /><text
     class="st8 st6 st7"
     id="text126"
     style="font-style:normal;font-variant:normal;font-weight:normal;font-stretch:normal;font-size:10.63904572px;font-family:sans-serif;-inkscape-font-specification:sans-serif;fill:#666666;stroke-width:1;"
     x="333.13748"
     y="129.11539">−0.5</text>
<line
     class="st8"
     x1="363.59332"
     y1="85.496788"
     x2="359.86966"
     y2="85.496788"
     id="line128"
     style="fill:#666666;stroke-width:1" /><line
     class="st9"
     x1="363.59332"
     y1="85.496788"
     x2="359.86966"
     y2="85.496788"
     id="line130"
     style="fill:none;stroke:#666666;stroke-width:0.5;stroke-linejoin:round;stroke-miterlimit:10" /><text
     class="st8 st6 st7"
     id="text132"
     style="font-style:normal;font-variant:normal;font-weight:normal;font-stretch:normal;font-size:10.63904572px;font-family:sans-serif;-inkscape-font-specification:sans-serif;fill:#666666;stroke-width:1;"
     x="341.79208"
     y="89.3078">0.0</text>
<line
     class="st8"
     x1="363.59332"
     y1="45.696117"
     x2="359.86966"
     y2="45.696117"
     id="line134"
     style="fill:#666666;stroke-width:1" /><line
     class="st9"
     x1="363.59332"
     y1="45.696117"
     x2="359.86966"
     y2="45.696117"
     id="line136"
     style="fill:none;stroke:#666666;stroke-width:0.5;stroke-linejoin:round;stroke-miterlimit:10" /><text
     class="st8 st6 st7"
     id="text138"
     style="font-style:normal;font-variant:normal;font-weight:normal;font-stretch:normal;font-size:10.63904572px;font-family:sans-serif;-inkscape-font-specification:sans-serif;fill:#666666;stroke-width:1;"
     x="341.84406"
     y="49.500641">0.5</text>
<text
     transform="rotate(-90)"
     class="st10 st6 st7"
     id="text140"
     style="font-style:normal;font-variant:normal;font-weight:normal;font-stretch:normal;font-size:10.63904572px;font-family:sans-serif;-inkscape-font-specification:sans-serif;fill:#333333;stroke-width:1;"
     x="-131.31586"
     y="328.63785">Relative angle [rad]</text>
<polyline
     class="st0"
     points="378.38,74.52 379.81,74.44 381.24,74.39 383.15,71.25 384.58,73.23 391.74,70.91 393.17,69.95   394.61,68.7 396.04,64.69 396.99,50.94 398.9,37.21 400.33,28.43 401.76,18.78 403.2,12.27 404.63,9.95 406.06,14.91 407.49,23.18   409.12,29.85 410.55,40.32 411.98,46.78 413.41,49.33 414.85,51.71 416.28,47.03 417.71,42.27 419.62,36.92 421.05,26.07   422.48,22.03 424.39,23.4 425.82,29.52 427.26,33.81 428.21,41.73 430.12,42.72 431.55,44.75 432.98,41.64 434.42,39.9   435.85,36.48 437.28,35.59 438.71,29.97 440.14,29.6 442.05,31.23 443.48,34.44 445.39,32.73 446.83,35.3 448.74,36.81 450.17,40.1   452.08,40.67 453.51,35.3 454.94,34.86 456.37,34.34 457.8,34.13 459.71,34.28 461.14,36.53 463.06,37.41 464.49,37.71 465.92,37.9   467.35,38.06 468.78,33.26 470.69,33.3 472.12,33.43 474.03,33.56 475.46,33.6 477.37,33.75 478.8,33.78 480.24,33.72 482.15,33.66   483.58,33.76 485.49,35.52 486.92,35.97 488.35,36.06 489.79,35.86 491.69,35.67 493.12,35.65 494.56,35.55 496.46,35.52   497.9,35.53 499.33,35.54 501.24,35.44 "
     id="polyline142"
     transform="matrix(1.0639046,0,0,1.0639046,-32.423895,6.2146186)"
     style="fill:none;stroke:#058299;stroke-width:0.93993396;stroke-linecap:square;stroke-linejoin:round;stroke-miterlimit:10" /><rect
     x="363.59332"
     y="9.9382849"
     class="st11"
     width="143.7867"
     height="151.07445"
     id="rect144"
     style="fill:none;stroke-width:1" /><polyline
     class="st2"
     points="378.38,74.52 380.29,71.4 381.24,70.21 382.67,69.96 384.58,73.19 386.01,71.13 387.45,70.8   389.35,73.93 390.79,81.85 392.69,91.44 394.13,102.81 395.56,108.87 396.99,118.35 398.53,129.78 400.13,139.05 402.05,137.49   403.48,136.81 405.38,135.18 406.82,131.73 408.25,127.99 410.16,124.44 411.59,122.15 413.02,121 414.45,121.31 416.36,122.82   417.8,124.85 419.7,126.43 421.14,127.22 422.57,127.44 424,126.92 426.39,126.13 427.82,125.2 429.25,123.86 430.2,123.65   432.11,124.52 434.02,126.05 435.45,127.43 436.89,128.68 438.8,130 440.23,130.82 441.66,130.91 443.57,130.41 445,130.23   446.91,130.08 447.86,125.35 449.77,124.09 451.21,124.38 452.64,125.1 454.55,125.67 455.98,126.17 457.89,126.41 459.32,126.53   460.75,126.62 462.18,126.73 464.09,126.8 465.52,126.98 467.43,127.11 468.87,127.25 470.3,127.32 472.21,127.5 474.12,127.7   475.55,127.85 476.98,128.01 "
     id="polyline146"
     transform="matrix(1.0639046,0,0,1.0639046,-32.423895,6.2146186)"
     style="fill:none;stroke:#c65250;stroke-width:0.93993396;stroke-linecap:square;stroke-linejoin:round;stroke-miterlimit:10" /><rect
     x="363.59332"
     y="9.9382849"
     class="st11"
     width="143.7867"
     height="151.07445"
     id="rect148"
     style="fill:none;stroke-width:1" /><polyline
     class="st3"
     points="378.38,74.52 379.81,74.48 381.24,74.37 383.15,77.81 384.58,78.96 386.01,79.35 387.45,77.87   388.88,81.35 390.79,85.1 392.7,96.38 394.13,106.89 396.04,116.36 397.47,122.71 398.9,120.6 400.33,119.24 402.24,119.41   403.67,115.53 405.58,109.07 407.02,106.37 408.45,103.94 409.88,100.97 411.79,102.11 413.22,105.11 415.13,112.31 416.56,116.36   418.47,118.41 419.43,118.54 421.33,116.9 422.77,115.22 424.2,111.7 426.11,109.57 427.54,110.61 428.97,110.91 430.88,111.41   432.31,112.16 434.22,113.04 435.65,112.53 437.09,113.1 438.52,114.19 440.43,113.33 441.86,112.84 443.77,112.65 445.2,112.51   446.63,112.81 448.54,113.32 449.97,113.9 451.4,114.4 452.84,114.76 454.74,114.85 456.18,114.86 457.61,114.74 459.52,112.88   460.95,112.29 462.86,112.24 464.29,112.33 465.72,112.55 467.16,112.69 469.06,112.72 470.5,112.79 471.93,112.78 473.84,112.79   475.27,112.79 "
     id="polyline150"
     transform="matrix(1.0639046,0,0,1.0639046,-32.423895,6.2146186)"
     style="fill:none;stroke:#ac7730;stroke-width:0.93993396;stroke-linecap:square;stroke-linejoin:round;stroke-miterlimit:10" /><rect
     x="363.59332"
     y="9.9382849"
     class="st11"
     width="143.7867"
     height="151.07445"
     id="rect152"
     style="fill:none;stroke-width:1" /><polyline
     class="st4"
     points="378.38,74.52 380.29,73.77 381.72,67.79 383.63,63.87 385.06,61.01 386.49,59.39 388.4,59.32   389.84,62.35 391.26,67.17 393.17,72.72 394.61,75.19 396.04,77.61 397.95,77.84 399.38,73.43 401.29,73.64 402.72,70.12   404.63,63.25 410.83,63.42 412.27,60.57 413.7,61.54 415.13,64.81 416.56,72.64 418.47,76.38 419.9,74.85 421.33,72.6 422.77,67.31   424.2,64.42 425.63,66.82 427.06,64.67 428.97,64.22 430.4,64.85 431.83,70.78 433.27,73.72 435.18,75.09 436.61,73.28 438.04,72.8   439.47,72.74 440.9,69.93 441.86,68.65 443.29,68.21 444.72,68.23 446.15,68.34 447.59,68.65 449.02,68.94 450.45,69.17   451.88,69.22 453.79,73.14 455.22,74.38 456.65,74.42 458.56,74.12 460,73.85 461.43,71.23 463.34,70.4 465.25,70.23 466.68,70.22   468.11,70.23 469.54,70.21 471.45,70.18 "
     id="polyline154"
     transform="matrix(1.0639046,0,0,1.0639046,-32.423895,6.2146186)"
     style="fill:none;stroke:#8a4ea6;stroke-width:0.93993396;stroke-linecap:square;stroke-linejoin:round;stroke-miterlimit:10" /><rect
     x="363.59332"
     y="9.9382849"
     class="st11"
     width="143.7867"
     height="151.07445"
     id="rect156"
     style="fill:none;stroke-width:1" /><polyline
     class="st5"
     points="378.38,74.52 379.81,74.57 381.41,74.56 383.36,74.56 384.79,74.46 386.22,74.55 388.13,73.14   389.56,69.1 390.99,62.67 392.43,56.07 394.34,47.26 395.77,38.09 397.68,35.73 399.11,34.02 400.54,29.97 402.45,32.2   403.88,41.94 405.79,49.08 407.22,57.02 409.13,61.93 410.56,63.17 412,62.32 413.43,61.31 414.86,56.46 416.77,50.22 418.2,46.49   420.11,44.75 421.54,46.9 422.97,50.41 424.41,52.86 426.31,56.35 427.75,61.63 429.18,63.25 431.09,60.78 432.52,56.19   433.95,52.83 435.86,55.17 437.77,52.96 439.2,51.38 440.63,50.56 442.54,50.8 443.98,48.86 445.41,49.18 446.84,49.9 448.75,50.23   450.18,54.77 452.09,56.04 453.52,53.41 454.95,52.1 456.38,51.27 458.29,50.68 459.73,50.47 461.63,50.62 463.07,50.74   464.5,51.08 466.41,51.2 467.84,51.36 469.27,51.3 470.7,51.43 472.61,48.64 474.04,52.9 475.95,54.56 477.39,54.88 478.82,54.82   480.25,54.79 482.16,54.71 483.59,54.65 "
     id="polyline158"
     transform="matrix(1.0639046,0,0,1.0639046,-32.423895,6.2146186)"
     style="fill:none;stroke:#5a8f40;stroke-width:0.93993396;stroke-linecap:square;stroke-linejoin:round;stroke-miterlimit:10" /><rect
     x="363.59332"
     y="9.9382849"
     class="st11"
     width="143.7867"
     height="151.07445"
     id="rect160"
     style="fill:none;stroke-width:1" /><line
     class="st1"
     x1="363.59332"
     y1="125.30811"
     x2="363.59332"
     y2="45.696117"
     id="line162"
     style="fill:none;stroke:#666666;stroke-width:0.5;stroke-linecap:square;stroke-miterlimit:10" /><line
     class="st1"
     x1="370.13632"
     y1="161.01274"
     x2="471.96265"
     y2="161.01274"
     id="line164"
     style="fill:none;stroke:#666666;stroke-width:0.5;stroke-linecap:square;stroke-miterlimit:10" /><g
     id="g186"
     transform="matrix(1.0639046,0,0,1.0639046,-32.423895,6.2146186)"
     style="stroke-width:0.93993396"><defs
       id="defs167"><rect
         id="SVGID_1_"
         x="31.32"
         y="50.639999"
         width="72.43"
         height="40.470001" /></defs><clipPath
       id="SVGID_2_"><use
         xlink:href="#SVGID_1_"
         style="overflow:visible"
         id="use169"
         x="0"
         y="0"
         width="100%"
         height="100%" /></clipPath><g
       class="st12"
       clip-path="url(#SVGID_2_)"
       id="g184"
       style="opacity:0.38999999;stroke-width:0.88347584"><path
         class="st13"
         d="m -63.24,70.84 c 0,0 107.94,3.58 111.65,3.82 1.16,0.88 4.6,2.4 6.49,2.67 1.89,0.26 2.62,-0.7 3.18,-0.66 0.56,0.03 1.97,0.93 3.34,0.93 0.67,0 1.59,0.13 3.15,-0.93 -0.14,0.82 0.41,1.66 1.03,2.4 0.28,0.33 0.57,0.64 0.83,0.91 0.83,0.89 5.65,2 11.69,2.2 0.7,0.02 9.75,0.74 11.56,0.55 1.1,-0.11 5.01,-1.23 7.28,-4.51 1.53,-2.2 2.76,-4.35 2.76,-7.38 0,-3.23 -1.24,-5.18 -2.76,-7.38 -2.27,-3.28 -6.18,-4.4 -7.28,-4.51 -1.81,-0.19 -10.86,0.53 -11.56,0.55 -6.03,0.21 -10.86,1.31 -11.69,2.2 -0.26,0.28 -0.55,0.59 -0.83,0.91 -0.62,0.74 -1.17,1.57 -1.03,2.4 -1.56,-1.06 -2.48,-0.93 -3.15,-0.93 -1.37,0 -2.78,0.89 -3.34,0.93 -0.56,0.03 -1.29,-0.93 -3.18,-0.66 -1.89,0.26 -5.33,1.79 -6.49,2.67 -3.71,0.25 -111.65,3.82 -111.65,3.82 z"
         id="path172"
         inkscape:connector-curvature="0"
         style="opacity:0.16000001;stroke-width:0.93993396" /><path
         class="st13"
         d="m 65.6,62.62 c 0,0 0,0 0,0 -1.33,-1.69 -2.15,-2.18 -3.87,-2.82 -2.49,-0.92 -9.19,0.58 -9.57,0.55 -0.38,-0.03 -0.28,0.38 0,0.4 0.28,0.02 7.23,-0.41 9.34,0.83 1.09,0.64 2.25,1.89 3.08,3.44 -0.15,-0.83 0.4,-1.67 1.02,-2.4 z"
         id="path174"
         inkscape:connector-curvature="0"
         style="opacity:0.16000001;stroke-width:0.93993396" /><path
         class="st10"
         d="m 91.04,61.85 c 0,2.86 -2.85,5.17 -6.36,5.17 -3.51,0 -6.36,-2.32 -6.36,-5.17 0,-2.85 2.85,-4.38 6.36,-4.38 3.51,0 6.36,1.52 6.36,4.38 z"
         id="path176"
         inkscape:connector-curvature="0"
         style="fill:#333333;stroke-width:0.93993396" /><path
         class="st13"
         d="m 65.6,79.07 c 0,0 0,0 0,0 -1.33,1.69 -2.15,2.18 -3.87,2.82 -2.49,0.92 -9.19,-0.58 -9.57,-0.55 -0.38,0.03 -0.28,-0.38 0,-0.4 0.28,-0.02 7.23,0.41 9.34,-0.83 1.09,-0.64 2.25,-1.89 3.08,-3.44 -0.15,0.82 0.4,1.66 1.02,2.4 z"
         id="path178"
         inkscape:connector-curvature="0"
         style="opacity:0.16000001;stroke-width:0.93993396" /><path
         class="st14"
         d="m 55.01,65.96 c -2.6,0 -7.28,2.57 -7.28,4.88 0,2.32 4.68,4.88 7.28,4.88 2.24,0 5.24,-1.64 5.24,-4.88 0,-3.24 -3,-4.88 -5.24,-4.88 z"
         id="path180"
         inkscape:connector-curvature="0"
         style="fill:#808080;stroke-width:0.93993396" /><path
         class="st10"
         d="m 91.04,79.84 c 0,-2.86 -2.85,-5.17 -6.36,-5.17 -3.51,0 -6.36,2.32 -6.36,5.17 0,2.86 2.85,4.38 6.36,4.38 3.51,0 6.36,-1.52 6.36,-4.38 z"
         id="path182"
         inkscape:connector-curvature="0"
         style="fill:#333333;stroke-width:0.93993396" /></g></g></svg>