<?xml version="1.0" encoding="UTF-8" standalone="no"?>
<!-- Created with matplotlib (https://matplotlib.org/) -->

<svg
   xmlns:dc="http://purl.org/dc/elements/1.1/"
   xmlns:cc="http://creativecommons.org/ns#"
   xmlns:rdf="http://www.w3.org/1999/02/22-rdf-syntax-ns#"
   xmlns:svg="http://www.w3.org/2000/svg"
   xmlns="http://www.w3.org/2000/svg"
   xmlns:xlink="http://www.w3.org/1999/xlink"
   xmlns:sodipodi="http://sodipodi.sourceforge.net/DTD/sodipodi-0.dtd"
   xmlns:inkscape="http://www.inkscape.org/namespaces/inkscape"
   height="144pt"
   version="1.1"
   viewBox="0 0 144 144"
   width="144pt"
   id="svg302"
   sodipodi:docname="framerates.svg"
   inkscape:version="0.92.1 r15371">
  <metadata
     id="metadata306">
    <rdf:RDF>
      <cc:Work
         rdf:about="">
        <dc:format>image/svg+xml</dc:format>
        <dc:type
           rdf:resource="http://purl.org/dc/dcmitype/StillImage" />
      </cc:Work>
    </rdf:RDF>
  </metadata>
  <sodipodi:namedview
     pagecolor="#ffffff"
     bordercolor="#666666"
     borderopacity="1"
     objecttolerance="10"
     gridtolerance="10"
     guidetolerance="10"
     inkscape:pageopacity="0"
     inkscape:pageshadow="2"
     inkscape:window-width="2923"
     inkscape:window-height="2090"
     id="namedview304"
     showgrid="false"
     inkscape:zoom="1.2291667"
     inkscape:cx="112.27119"
     inkscape:cy="96"
     inkscape:window-x="0"
     inkscape:window-y="0"
     inkscape:window-maximized="0"
     inkscape:current-layer="patch_1" />
  <defs
     id="defs4">
    <style
       type="text/css"
       id="style2">
*{stroke-linecap:butt;stroke-linejoin:round;}
  </style>
  </defs>
  <g
     id="figure_1">
    <g
       id="patch_1" />
    <g
       id="axes_1">
      <g
         id="patch_2">
        <path
           d="M 47.18 104.6275  L 130.68 104.6275  L 130.68 13.32  L 47.18 13.32  z "
           style="fill:none;"
           id="path9" />
      </g>
      <g
         id="patch_3">
        <path
           clip-path="url(#pfad07191ea)"
           d="M 50.975455 104.6275  L 53.505758 104.6275  L 53.505758 104.6275  L 50.975455 104.6275  z "
           style="fill:#058299;"
           id="path12" />
      </g>
      <g
         id="patch_4">
        <path
           clip-path="url(#pfad07191ea)"
           d="M 53.505758 104.6275  L 56.036061 104.6275  L 56.036061 104.389581  L 53.505758 104.389581  z "
           style="fill:#058299;"
           id="path15" />
      </g>
      <g
         id="patch_5">
        <path
           clip-path="url(#pfad07191ea)"
           d="M 56.036061 104.6275  L 58.566364 104.6275  L 58.566364 104.6275  L 56.036061 104.6275  z "
           style="fill:#058299;"
           id="path18" />
      </g>
      <g
         id="patch_6">
        <path
           clip-path="url(#pfad07191ea)"
           d="M 58.566364 104.6275  L 61.096667 104.6275  L 61.096667 104.6275  L 58.566364 104.6275  z "
           style="fill:#058299;"
           id="path21" />
      </g>
      <g
         id="patch_7">
        <path
           clip-path="url(#pfad07191ea)"
           d="M 61.096667 104.6275  L 63.62697 104.6275  L 63.62697 104.6275  L 61.096667 104.6275  z "
           style="fill:#058299;"
           id="path24" />
      </g>
      <g
         id="patch_8">
        <path
           clip-path="url(#pfad07191ea)"
           d="M 63.62697 104.6275  L 66.157273 104.6275  L 66.157273 104.6275  L 63.62697 104.6275  z "
           style="fill:#058299;"
           id="path27" />
      </g>
      <g
         id="patch_9">
        <path
           clip-path="url(#pfad07191ea)"
           d="M 66.157273 104.6275  L 68.687576 104.6275  L 68.687576 104.6275  L 66.157273 104.6275  z "
           style="fill:#058299;"
           id="path30" />
      </g>
      <g
         id="patch_10">
        <path
           clip-path="url(#pfad07191ea)"
           d="M 68.687576 104.6275  L 71.217879 104.6275  L 71.217879 104.6275  L 68.687576 104.6275  z "
           style="fill:#058299;"
           id="path33" />
      </g>
      <g
         id="patch_11">
        <path
           clip-path="url(#pfad07191ea)"
           d="M 71.217879 104.6275  L 73.748182 104.6275  L 73.748182 104.50854  L 71.217879 104.50854  z "
           style="fill:#058299;"
           id="path36" />
      </g>
      <g
         id="patch_12">
        <path
           clip-path="url(#pfad07191ea)"
           d="M 73.748182 104.6275  L 76.278485 104.6275  L 76.278485 104.6275  L 73.748182 104.6275  z "
           style="fill:#058299;"
           id="path39" />
      </g>
      <g
         id="patch_13">
        <path
           clip-path="url(#pfad07191ea)"
           d="M 76.278485 104.6275  L 78.808788 104.6275  L 78.808788 104.50854  L 76.278485 104.50854  z "
           style="fill:#058299;"
           id="path42" />
      </g>
      <g
         id="patch_14">
        <path
           clip-path="url(#pfad07191ea)"
           d="M 78.808788 104.6275  L 81.339091 104.6275  L 81.339091 104.50854  L 78.808788 104.50854  z "
           style="fill:#058299;"
           id="path45" />
      </g>
      <g
         id="patch_15">
        <path
           clip-path="url(#pfad07191ea)"
           d="M 81.339091 104.6275  L 83.869394 104.6275  L 83.869394 104.6275  L 81.339091 104.6275  z "
           style="fill:#058299;"
           id="path48" />
      </g>
      <g
         id="patch_16">
        <path
           clip-path="url(#pfad07191ea)"
           d="M 83.869394 104.6275  L 86.399697 104.6275  L 86.399697 104.6275  L 83.869394 104.6275  z "
           style="fill:#058299;"
           id="path51" />
      </g>
      <g
         id="patch_17">
        <path
           clip-path="url(#pfad07191ea)"
           d="M 86.399697 104.6275  L 88.93 104.6275  L 88.93 104.6275  L 86.399697 104.6275  z "
           style="fill:#058299;"
           id="path54" />
      </g>
      <g
         id="patch_18">
        <path
           clip-path="url(#pfad07191ea)"
           d="M 88.93 104.6275  L 91.460303 104.6275  L 91.460303 104.6275  L 88.93 104.6275  z "
           style="fill:#058299;"
           id="path57" />
      </g>
      <g
         id="patch_19">
        <path
           clip-path="url(#pfad07191ea)"
           d="M 91.460303 104.6275  L 93.990606 104.6275  L 93.990606 103.794782  L 91.460303 103.794782  z "
           style="fill:#058299;"
           id="path60" />
      </g>
      <g
         id="patch_20">
        <path
           clip-path="url(#pfad07191ea)"
           d="M 93.990606 104.6275  L 96.520909 104.6275  L 96.520909 104.6275  L 93.990606 104.6275  z "
           style="fill:#058299;"
           id="path63" />
      </g>
      <g
         id="patch_21">
        <path
           clip-path="url(#pfad07191ea)"
           d="M 96.520909 104.6275  L 99.051212 104.6275  L 99.051212 101.296629  L 96.520909 101.296629  z "
           style="fill:#058299;"
           id="path66" />
      </g>
      <g
         id="patch_22">
        <path
           clip-path="url(#pfad07191ea)"
           d="M 99.051212 104.6275  L 101.581515 104.6275  L 101.581515 95.586565  L 99.051212 95.586565  z "
           style="fill:#058299;"
           id="path69" />
      </g>
      <g
         id="patch_23">
        <path
           clip-path="url(#pfad07191ea)"
           d="M 101.581515 104.6275  L 104.111818 104.6275  L 104.111818 99.988073  L 101.581515 99.988073  z "
           style="fill:#058299;"
           id="path72" />
      </g>
      <g
         id="patch_24">
        <path
           clip-path="url(#pfad07191ea)"
           d="M 104.111818 104.6275  L 106.642121 104.6275  L 106.642121 17.667976  L 104.111818 17.667976  z "
           style="fill:#058299;"
           id="path75" />
      </g>
      <g
         id="patch_25">
        <path
           clip-path="url(#pfad07191ea)"
           d="M 106.642121 104.6275  L 109.172424 104.6275  L 109.172424 104.6275  L 106.642121 104.6275  z "
           style="fill:#058299;"
           id="path78" />
      </g>
      <g
         id="patch_26">
        <path
           clip-path="url(#pfad07191ea)"
           d="M 109.172424 104.6275  L 111.702727 104.6275  L 111.702727 81.192444  L 109.172424 81.192444  z "
           style="fill:#058299;"
           id="path81" />
      </g>
      <g
         id="patch_27">
        <path
           clip-path="url(#pfad07191ea)"
           d="M 111.702727 104.6275  L 114.23303 104.6275  L 114.23303 101.415589  L 111.702727 101.415589  z "
           style="fill:#058299;"
           id="path84" />
      </g>
      <g
         id="patch_28">
        <path
           clip-path="url(#pfad07191ea)"
           d="M 114.23303 104.6275  L 116.763333 104.6275  L 116.763333 102.248306  L 114.23303 102.248306  z "
           style="fill:#058299;"
           id="path87" />
      </g>
      <g
         id="patch_29">
        <path
           clip-path="url(#pfad07191ea)"
           d="M 116.763333 104.6275  L 119.293636 104.6275  L 119.293636 58.946984  L 116.763333 58.946984  z "
           style="fill:#058299;"
           id="path90" />
      </g>
      <g
         id="patch_30">
        <path
           clip-path="url(#pfad07191ea)"
           d="M 119.293636 104.6275  L 121.823939 104.6275  L 121.823939 104.6275  L 119.293636 104.6275  z "
           style="fill:#058299;"
           id="path93" />
      </g>
      <g
         id="patch_31">
        <path
           clip-path="url(#pfad07191ea)"
           d="M 121.823939 104.6275  L 124.354242 104.6275  L 124.354242 102.724145  L 121.823939 102.724145  z "
           style="fill:#058299;"
           id="path96" />
      </g>
      <g
         id="patch_32">
        <path
           clip-path="url(#pfad07191ea)"
           d="M 124.354242 104.6275  L 126.884545 104.6275  L 126.884545 104.6275  L 124.354242 104.6275  z "
           style="fill:#058299;"
           id="path99" />
      </g>
      <g
         id="matplotlib.axis_1">
        <g
           id="xtick_1">
          <g
             id="line2d_1">
            <defs
               id="defs103">
              <path
                 d="M 0 0  L 0 3.5  "
                 id="m862e16e997"
                 style="stroke:#666666;stroke-width:0.5;" />
            </defs>
            <g
               id="g107">
              <use
                 style="fill:#666666;stroke:#666666;stroke-width:0.5;"
                 x="84.712828"
                 xlink:href="#m862e16e997"
                 y="104.6275"
                 id="use105" />
            </g>
          </g>
          <g
             id="text_1">
            <!-- 15 -->
            <defs
               id="defs112">
              <path
                 d="M 37.25 0  L 28.46875 0  L 28.46875 56  Q 25.296875 52.984375 20.140625 49.953125  Q 14.984375 46.921875 10.890625 45.40625  L 10.890625 53.90625  Q 18.265625 57.375 23.78125 62.296875  Q 29.296875 67.234375 31.59375 71.875  L 37.25 71.875  z "
                 id="ArialMT-49" />
              <path
                 d="M 4.15625 18.75  L 13.375 19.53125  Q 14.40625 12.796875 18.140625 9.390625  Q 21.875 6 27.15625 6  Q 33.5 6 37.890625 10.78125  Q 42.28125 15.578125 42.28125 23.484375  Q 42.28125 31 38.0625 35.34375  Q 33.84375 39.703125 27 39.703125  Q 22.75 39.703125 19.328125 37.765625  Q 15.921875 35.84375 13.96875 32.765625  L 5.71875 33.84375  L 12.640625 70.609375  L 48.25 70.609375  L 48.25 62.203125  L 19.671875 62.203125  L 15.828125 42.96875  Q 22.265625 47.46875 29.34375 47.46875  Q 38.71875 47.46875 45.15625 40.96875  Q 51.609375 34.46875 51.609375 24.265625  Q 51.609375 14.546875 45.953125 7.46875  Q 39.0625 -1.21875 27.15625 -1.21875  Q 17.390625 -1.21875 11.203125 4.25  Q 5.03125 9.71875 4.15625 18.75  z "
                 id="ArialMT-53" />
            </defs>
            <g
               style="fill:#666666;"
               transform="translate(79.151891 118.785312)scale(0.1 -0.1)"
               id="g118">
              <use
                 xlink:href="#ArialMT-49"
                 id="use114" />
              <use
                 x="55.615234"
                 xlink:href="#ArialMT-53"
                 id="use116" />
            </g>
          </g>
        </g>
        <g
           id="xtick_2">
          <g
             id="line2d_2">
            <g
               id="g124">
              <use
                 style="fill:#666666;stroke:#666666;stroke-width:0.5;"
                 x="126.884545"
                 xlink:href="#m862e16e997"
                 y="104.6275"
                 id="use122" />
            </g>
          </g>
          <g
             id="text_2">
            <!-- 20 -->
            <defs
               id="defs129">
              <path
                 d="M 50.34375 8.453125  L 50.34375 0  L 3.03125 0  Q 2.9375 3.171875 4.046875 6.109375  Q 5.859375 10.9375 9.828125 15.625  Q 13.8125 20.3125 21.34375 26.46875  Q 33.015625 36.03125 37.109375 41.625  Q 41.21875 47.21875 41.21875 52.203125  Q 41.21875 57.421875 37.46875 61  Q 33.734375 64.59375 27.734375 64.59375  Q 21.390625 64.59375 17.578125 60.78125  Q 13.765625 56.984375 13.71875 50.25  L 4.6875 51.171875  Q 5.609375 61.28125 11.65625 66.578125  Q 17.71875 71.875 27.9375 71.875  Q 38.234375 71.875 44.234375 66.15625  Q 50.25 60.453125 50.25 52  Q 50.25 47.703125 48.484375 43.546875  Q 46.734375 39.40625 42.65625 34.8125  Q 38.578125 30.21875 29.109375 22.21875  Q 21.1875 15.578125 18.9375 13.203125  Q 16.703125 10.84375 15.234375 8.453125  z "
                 id="ArialMT-50" />
              <path
                 d="M 4.15625 35.296875  Q 4.15625 48 6.765625 55.734375  Q 9.375 63.484375 14.515625 67.671875  Q 19.671875 71.875 27.484375 71.875  Q 33.25 71.875 37.59375 69.546875  Q 41.9375 67.234375 44.765625 62.859375  Q 47.609375 58.5 49.21875 52.21875  Q 50.828125 45.953125 50.828125 35.296875  Q 50.828125 22.703125 48.234375 14.96875  Q 45.65625 7.234375 40.5 3  Q 35.359375 -1.21875 27.484375 -1.21875  Q 17.140625 -1.21875 11.234375 6.203125  Q 4.15625 15.140625 4.15625 35.296875  z M 13.1875 35.296875  Q 13.1875 17.671875 17.3125 11.828125  Q 21.4375 6 27.484375 6  Q 33.546875 6 37.671875 11.859375  Q 41.796875 17.71875 41.796875 35.296875  Q 41.796875 52.984375 37.671875 58.78125  Q 33.546875 64.59375 27.390625 64.59375  Q 21.34375 64.59375 17.71875 59.46875  Q 13.1875 52.9375 13.1875 35.296875  z "
                 id="ArialMT-48" />
            </defs>
            <g
               style="fill:#666666;"
               transform="translate(121.323608 118.785312)scale(0.1 -0.1)"
               id="g135">
              <use
                 xlink:href="#ArialMT-50"
                 id="use131" />
              <use
                 x="55.615234"
                 xlink:href="#ArialMT-48"
                 id="use133" />
            </g>
          </g>
        </g>
        <g
           id="text_3">
          <!-- dt [ms] -->
          <defs
             id="defs146">
            <path
               d="M 40.234375 0  L 40.234375 6.546875  Q 35.296875 -1.171875 25.734375 -1.171875  Q 19.53125 -1.171875 14.328125 2.25  Q 9.125 5.671875 6.265625 11.796875  Q 3.421875 17.921875 3.421875 25.875  Q 3.421875 33.640625 6 39.96875  Q 8.59375 46.296875 13.765625 49.65625  Q 18.953125 53.03125 25.34375 53.03125  Q 30.03125 53.03125 33.6875 51.046875  Q 37.359375 49.078125 39.65625 45.90625  L 39.65625 71.578125  L 48.390625 71.578125  L 48.390625 0  z M 12.453125 25.875  Q 12.453125 15.921875 16.640625 10.984375  Q 20.84375 6.0625 26.5625 6.0625  Q 32.328125 6.0625 36.34375 10.765625  Q 40.375 15.484375 40.375 25.140625  Q 40.375 35.796875 36.265625 40.765625  Q 32.171875 45.75 26.171875 45.75  Q 20.3125 45.75 16.375 40.96875  Q 12.453125 36.1875 12.453125 25.875  z "
               id="ArialMT-100" />
            <path
               d="M 25.78125 7.859375  L 27.046875 0.09375  Q 23.34375 -0.6875 20.40625 -0.6875  Q 15.625 -0.6875 12.984375 0.828125  Q 10.359375 2.34375 9.28125 4.8125  Q 8.203125 7.28125 8.203125 15.1875  L 8.203125 45.015625  L 1.765625 45.015625  L 1.765625 51.859375  L 8.203125 51.859375  L 8.203125 64.703125  L 16.9375 69.96875  L 16.9375 51.859375  L 25.78125 51.859375  L 25.78125 45.015625  L 16.9375 45.015625  L 16.9375 14.703125  Q 16.9375 10.9375 17.40625 9.859375  Q 17.875 8.796875 18.921875 8.15625  Q 19.96875 7.515625 21.921875 7.515625  Q 23.390625 7.515625 25.78125 7.859375  z "
               id="ArialMT-116" />
            <path
               id="ArialMT-32" />
            <path
               d="M 6.78125 -19.875  L 6.78125 71.578125  L 26.171875 71.578125  L 26.171875 64.3125  L 15.578125 64.3125  L 15.578125 -12.59375  L 26.171875 -12.59375  L 26.171875 -19.875  z "
               id="ArialMT-91" />
            <path
               d="M 6.59375 0  L 6.59375 51.859375  L 14.453125 51.859375  L 14.453125 44.578125  Q 16.890625 48.390625 20.9375 50.703125  Q 25 53.03125 30.171875 53.03125  Q 35.9375 53.03125 39.625 50.640625  Q 43.3125 48.25 44.828125 43.953125  Q 50.984375 53.03125 60.84375 53.03125  Q 68.5625 53.03125 72.703125 48.75  Q 76.859375 44.484375 76.859375 35.59375  L 76.859375 0  L 68.109375 0  L 68.109375 32.671875  Q 68.109375 37.9375 67.25 40.25  Q 66.40625 42.578125 64.15625 43.984375  Q 61.921875 45.40625 58.890625 45.40625  Q 53.421875 45.40625 49.796875 41.765625  Q 46.1875 38.140625 46.1875 30.125  L 46.1875 0  L 37.40625 0  L 37.40625 33.6875  Q 37.40625 39.546875 35.25 42.46875  Q 33.109375 45.40625 28.21875 45.40625  Q 24.515625 45.40625 21.359375 43.453125  Q 18.21875 41.5 16.796875 37.734375  Q 15.375 33.984375 15.375 26.90625  L 15.375 0  z "
               id="ArialMT-109" />
            <path
               d="M 3.078125 15.484375  L 11.765625 16.84375  Q 12.5 11.625 15.84375 8.84375  Q 19.1875 6.0625 25.203125 6.0625  Q 31.25 6.0625 34.171875 8.515625  Q 37.109375 10.984375 37.109375 14.3125  Q 37.109375 17.28125 34.515625 19  Q 32.71875 20.171875 25.53125 21.96875  Q 15.875 24.421875 12.140625 26.203125  Q 8.40625 27.984375 6.46875 31.125  Q 4.546875 34.28125 4.546875 38.09375  Q 4.546875 41.546875 6.125 44.5  Q 7.71875 47.46875 10.453125 49.421875  Q 12.5 50.921875 16.03125 51.96875  Q 19.578125 53.03125 23.640625 53.03125  Q 29.734375 53.03125 34.34375 51.265625  Q 38.96875 49.515625 41.15625 46.5  Q 43.359375 43.5 44.1875 38.484375  L 35.59375 37.3125  Q 35.015625 41.3125 32.203125 43.546875  Q 29.390625 45.796875 24.265625 45.796875  Q 18.21875 45.796875 15.625 43.796875  Q 13.03125 41.796875 13.03125 39.109375  Q 13.03125 37.40625 14.109375 36.03125  Q 15.1875 34.625 17.484375 33.6875  Q 18.796875 33.203125 25.25 31.453125  Q 34.578125 28.953125 38.25 27.359375  Q 41.9375 25.78125 44.03125 22.75  Q 46.140625 19.734375 46.140625 15.234375  Q 46.140625 10.84375 43.578125 6.953125  Q 41.015625 3.078125 36.171875 0.953125  Q 31.34375 -1.171875 25.25 -1.171875  Q 15.140625 -1.171875 9.84375 3.03125  Q 4.546875 7.234375 3.078125 15.484375  z "
               id="ArialMT-115" />
            <path
               d="M 21.296875 -19.875  L 1.90625 -19.875  L 1.90625 -12.59375  L 12.5 -12.59375  L 12.5 64.3125  L 1.90625 64.3125  L 1.90625 71.578125  L 21.296875 71.578125  z "
               id="ArialMT-93" />
          </defs>
          <g
             style="fill:#333333;"
             transform="translate(73.928438 131.930625)scale(0.1 -0.1)"
             id="g162">
            <use
               xlink:href="#ArialMT-100"
               id="use148" />
            <use
               x="55.615234"
               xlink:href="#ArialMT-116"
               id="use150" />
            <use
               x="83.398438"
               xlink:href="#ArialMT-32"
               id="use152" />
            <use
               x="111.181641"
               xlink:href="#ArialMT-91"
               id="use154" />
            <use
               x="138.964844"
               xlink:href="#ArialMT-109"
               id="use156" />
            <use
               x="222.265625"
               xlink:href="#ArialMT-115"
               id="use158" />
            <use
               x="272.265625"
               xlink:href="#ArialMT-93"
               id="use160" />
          </g>
        </g>
      </g>
      <g
         id="matplotlib.axis_2">
        <g
           id="ytick_1">
          <g
             id="line2d_3">
            <defs
               id="defs167">
              <path
                 d="M 0 0  L -3.5 0  "
                 id="m424c220aaf"
                 style="stroke:#666666;stroke-width:0.5;" />
            </defs>
            <g
               id="g171">
              <use
                 style="fill:#666666;stroke:#666666;stroke-width:0.5;"
                 x="47.18"
                 xlink:href="#m424c220aaf"
                 y="104.6275"
                 id="use169" />
            </g>
          </g>
          <g
             id="text_4">
            <!-- 0 -->
            <g
               style="fill:#666666;"
               transform="translate(34.619062 108.206406)scale(0.1 -0.1)"
               id="g176">
              <use
                 xlink:href="#ArialMT-48"
                 id="use174" />
            </g>
          </g>
        </g>
        <g
           id="ytick_2">
          <g
             id="line2d_4">
            <g
               id="g182">
              <use
                 style="fill:#666666;stroke:#666666;stroke-width:0.5;"
                 x="47.18"
                 xlink:href="#m424c220aaf"
                 y="80.835565"
                 id="use180" />
            </g>
          </g>
          <g
             id="text_5">
            <!-- 200 -->
            <g
               style="fill:#666666;"
               transform="translate(23.497187 84.414471)scale(0.1 -0.1)"
               id="g191">
              <use
                 xlink:href="#ArialMT-50"
                 id="use185" />
              <use
                 x="55.615234"
                 xlink:href="#ArialMT-48"
                 id="use187" />
              <use
                 x="111.230469"
                 xlink:href="#ArialMT-48"
                 id="use189" />
            </g>
          </g>
        </g>
        <g
           id="ytick_3">
          <g
             id="line2d_5">
            <g
               id="g197">
              <use
                 style="fill:#666666;stroke:#666666;stroke-width:0.5;"
                 x="47.18"
                 xlink:href="#m424c220aaf"
                 y="57.043629"
                 id="use195" />
            </g>
          </g>
          <g
             id="text_6">
            <!-- 400 -->
            <defs
               id="defs201">
              <path
                 d="M 32.328125 0  L 32.328125 17.140625  L 1.265625 17.140625  L 1.265625 25.203125  L 33.9375 71.578125  L 41.109375 71.578125  L 41.109375 25.203125  L 50.78125 25.203125  L 50.78125 17.140625  L 41.109375 17.140625  L 41.109375 0  z M 32.328125 25.203125  L 32.328125 57.46875  L 9.90625 25.203125  z "
                 id="ArialMT-52" />
            </defs>
            <g
               style="fill:#666666;"
               transform="translate(23.497187 60.622535)scale(0.1 -0.1)"
               id="g209">
              <use
                 xlink:href="#ArialMT-52"
                 id="use203" />
              <use
                 x="55.615234"
                 xlink:href="#ArialMT-48"
                 id="use205" />
              <use
                 x="111.230469"
                 xlink:href="#ArialMT-48"
                 id="use207" />
            </g>
          </g>
        </g>
        <g
           id="ytick_4">
          <g
             id="line2d_6">
            <g
               id="g215">
              <use
                 style="fill:#666666;stroke:#666666;stroke-width:0.5;"
                 x="47.18"
                 xlink:href="#m424c220aaf"
                 y="33.251694"
                 id="use213" />
            </g>
          </g>
          <g
             id="text_7">
            <!-- 600 -->
            <defs
               id="defs219">
              <path
                 d="M 49.75 54.046875  L 41.015625 53.375  Q 39.84375 58.546875 37.703125 60.890625  Q 34.125 64.65625 28.90625 64.65625  Q 24.703125 64.65625 21.53125 62.3125  Q 17.390625 59.28125 14.984375 53.46875  Q 12.59375 47.65625 12.5 36.921875  Q 15.671875 41.75 20.265625 44.09375  Q 24.859375 46.4375 29.890625 46.4375  Q 38.671875 46.4375 44.84375 39.96875  Q 51.03125 33.5 51.03125 23.25  Q 51.03125 16.5 48.125 10.71875  Q 45.21875 4.9375 40.140625 1.859375  Q 35.0625 -1.21875 28.609375 -1.21875  Q 17.625 -1.21875 10.6875 6.859375  Q 3.765625 14.9375 3.765625 33.5  Q 3.765625 54.25 11.421875 63.671875  Q 18.109375 71.875 29.4375 71.875  Q 37.890625 71.875 43.28125 67.140625  Q 48.6875 62.40625 49.75 54.046875  z M 13.875 23.1875  Q 13.875 18.65625 15.796875 14.5  Q 17.71875 10.359375 21.1875 8.171875  Q 24.65625 6 28.46875 6  Q 34.03125 6 38.03125 10.484375  Q 42.046875 14.984375 42.046875 22.703125  Q 42.046875 30.125 38.078125 34.390625  Q 34.125 38.671875 28.125 38.671875  Q 22.171875 38.671875 18.015625 34.390625  Q 13.875 30.125 13.875 23.1875  z "
                 id="ArialMT-54" />
            </defs>
            <g
               style="fill:#666666;"
               transform="translate(23.497187 36.8306)scale(0.1 -0.1)"
               id="g227">
              <use
                 xlink:href="#ArialMT-54"
                 id="use221" />
              <use
                 x="55.615234"
                 xlink:href="#ArialMT-48"
                 id="use223" />
              <use
                 x="111.230469"
                 xlink:href="#ArialMT-48"
                 id="use225" />
            </g>
          </g>
        </g>
        <g
           id="text_8">
          <!-- # transitions -->
          <defs
             id="defs237">
            <path
               d="M 5.03125 -1.21875  L 9.28125 19.578125  L 1.03125 19.578125  L 1.03125 26.859375  L 10.75 26.859375  L 14.359375 44.578125  L 1.03125 44.578125  L 1.03125 51.859375  L 15.828125 51.859375  L 20.0625 72.796875  L 27.390625 72.796875  L 23.140625 51.859375  L 38.53125 51.859375  L 42.78125 72.796875  L 50.140625 72.796875  L 45.90625 51.859375  L 54.34375 51.859375  L 54.34375 44.578125  L 44.4375 44.578125  L 40.765625 26.859375  L 54.34375 26.859375  L 54.34375 19.578125  L 39.3125 19.578125  L 35.0625 -1.21875  L 27.734375 -1.21875  L 31.9375 19.578125  L 16.609375 19.578125  L 12.359375 -1.21875  z M 18.0625 26.859375  L 33.40625 26.859375  L 37.0625 44.578125  L 21.6875 44.578125  z "
               id="ArialMT-35" />
            <path
               d="M 6.5 0  L 6.5 51.859375  L 14.40625 51.859375  L 14.40625 44  Q 17.4375 49.515625 20 51.265625  Q 22.5625 53.03125 25.640625 53.03125  Q 30.078125 53.03125 34.671875 50.203125  L 31.640625 42.046875  Q 28.421875 43.953125 25.203125 43.953125  Q 22.3125 43.953125 20.015625 42.21875  Q 17.71875 40.484375 16.75 37.40625  Q 15.28125 32.71875 15.28125 27.15625  L 15.28125 0  z "
               id="ArialMT-114" />
            <path
               d="M 40.4375 6.390625  Q 35.546875 2.25 31.03125 0.53125  Q 26.515625 -1.171875 21.34375 -1.171875  Q 12.796875 -1.171875 8.203125 3  Q 3.609375 7.171875 3.609375 13.671875  Q 3.609375 17.484375 5.34375 20.625  Q 7.078125 23.78125 9.890625 25.6875  Q 12.703125 27.59375 16.21875 28.5625  Q 18.796875 29.25 24.03125 29.890625  Q 34.671875 31.15625 39.703125 32.90625  Q 39.75 34.71875 39.75 35.203125  Q 39.75 40.578125 37.25 42.78125  Q 33.890625 45.75 27.25 45.75  Q 21.046875 45.75 18.09375 43.578125  Q 15.140625 41.40625 13.71875 35.890625  L 5.125 37.0625  Q 6.296875 42.578125 8.984375 45.96875  Q 11.671875 49.359375 16.75 51.1875  Q 21.828125 53.03125 28.515625 53.03125  Q 35.15625 53.03125 39.296875 51.46875  Q 43.453125 49.90625 45.40625 47.53125  Q 47.359375 45.171875 48.140625 41.546875  Q 48.578125 39.3125 48.578125 33.453125  L 48.578125 21.734375  Q 48.578125 9.46875 49.140625 6.21875  Q 49.703125 2.984375 51.375 0  L 42.1875 0  Q 40.828125 2.734375 40.4375 6.390625  z M 39.703125 26.03125  Q 34.90625 24.078125 25.34375 22.703125  Q 19.921875 21.921875 17.671875 20.9375  Q 15.4375 19.96875 14.203125 18.09375  Q 12.984375 16.21875 12.984375 13.921875  Q 12.984375 10.40625 15.640625 8.0625  Q 18.3125 5.71875 23.4375 5.71875  Q 28.515625 5.71875 32.46875 7.9375  Q 36.421875 10.15625 38.28125 14.015625  Q 39.703125 17 39.703125 22.796875  z "
               id="ArialMT-97" />
            <path
               d="M 6.59375 0  L 6.59375 51.859375  L 14.5 51.859375  L 14.5 44.484375  Q 20.21875 53.03125 31 53.03125  Q 35.6875 53.03125 39.625 51.34375  Q 43.5625 49.65625 45.515625 46.921875  Q 47.46875 44.1875 48.25 40.4375  Q 48.734375 37.984375 48.734375 31.890625  L 48.734375 0  L 39.9375 0  L 39.9375 31.546875  Q 39.9375 36.921875 38.90625 39.578125  Q 37.890625 42.234375 35.28125 43.8125  Q 32.671875 45.40625 29.15625 45.40625  Q 23.53125 45.40625 19.453125 41.84375  Q 15.375 38.28125 15.375 28.328125  L 15.375 0  z "
               id="ArialMT-110" />
            <path
               d="M 6.640625 61.46875  L 6.640625 71.578125  L 15.4375 71.578125  L 15.4375 61.46875  z M 6.640625 0  L 6.640625 51.859375  L 15.4375 51.859375  L 15.4375 0  z "
               id="ArialMT-105" />
            <path
               d="M 3.328125 25.921875  Q 3.328125 40.328125 11.328125 47.265625  Q 18.015625 53.03125 27.640625 53.03125  Q 38.328125 53.03125 45.109375 46.015625  Q 51.90625 39.015625 51.90625 26.65625  Q 51.90625 16.65625 48.90625 10.90625  Q 45.90625 5.171875 40.15625 2  Q 34.421875 -1.171875 27.640625 -1.171875  Q 16.75 -1.171875 10.03125 5.8125  Q 3.328125 12.796875 3.328125 25.921875  z M 12.359375 25.921875  Q 12.359375 15.96875 16.703125 11.015625  Q 21.046875 6.0625 27.640625 6.0625  Q 34.1875 6.0625 38.53125 11.03125  Q 42.875 16.015625 42.875 26.21875  Q 42.875 35.84375 38.5 40.796875  Q 34.125 45.75 27.640625 45.75  Q 21.046875 45.75 16.703125 40.8125  Q 12.359375 35.890625 12.359375 25.921875  z "
               id="ArialMT-111" />
          </defs>
          <g
             style="fill:#333333;"
             transform="translate(17.509687 85.93)rotate(-90)scale(0.1 -0.1)"
             id="g265">
            <use
               xlink:href="#ArialMT-35"
               id="use239" />
            <use
               x="55.615234"
               xlink:href="#ArialMT-32"
               id="use241" />
            <use
               x="83.398438"
               xlink:href="#ArialMT-116"
               id="use243" />
            <use
               x="111.181641"
               xlink:href="#ArialMT-114"
               id="use245" />
            <use
               x="144.482422"
               xlink:href="#ArialMT-97"
               id="use247" />
            <use
               x="200.097656"
               xlink:href="#ArialMT-110"
               id="use249" />
            <use
               x="255.712891"
               xlink:href="#ArialMT-115"
               id="use251" />
            <use
               x="305.712891"
               xlink:href="#ArialMT-105"
               id="use253" />
            <use
               x="327.929688"
               xlink:href="#ArialMT-116"
               id="use255" />
            <use
               x="355.712891"
               xlink:href="#ArialMT-105"
               id="use257" />
            <use
               x="377.929688"
               xlink:href="#ArialMT-111"
               id="use259" />
            <use
               x="433.544922"
               xlink:href="#ArialMT-110"
               id="use261" />
            <use
               x="489.160156"
               xlink:href="#ArialMT-115"
               id="use263" />
          </g>
        </g>
      </g>
      <g
         id="line2d_7">
        <path
           clip-path="url(#pfad07191ea)"
           d="M 98.770067 104.6275  L 98.770067 13.32  "
           style="fill:none;stroke:#000000;stroke-linecap:square;"
           id="path269" />
      </g>
      <g
         id="patch_33">
        <path
           d="M 47.18 104.6275  L 47.18 13.32  "
           style="fill:none;stroke:#666666;stroke-linecap:square;stroke-linejoin:miter;stroke-width:0.5;"
           id="path272" />
      </g>
      <g
         id="patch_34">
        <path
           d="M 47.18 104.6275  L 130.68 104.6275  "
           style="fill:none;stroke:#666666;stroke-linecap:square;stroke-linejoin:miter;stroke-width:0.5;"
           id="path275" />
      </g>
      <g
         id="text_9">
        <!-- 60 Hz -->
        <defs
           id="defs280">
          <path
             d="M 8.015625 0  L 8.015625 71.578125  L 17.484375 71.578125  L 17.484375 42.1875  L 54.6875 42.1875  L 54.6875 71.578125  L 64.15625 71.578125  L 64.15625 0  L 54.6875 0  L 54.6875 33.734375  L 17.484375 33.734375  L 17.484375 0  z "
             id="ArialMT-72" />
          <path
             d="M 1.953125 0  L 1.953125 7.125  L 34.96875 45.015625  Q 29.34375 44.734375 25.046875 44.734375  L 3.90625 44.734375  L 3.90625 51.859375  L 46.296875 51.859375  L 46.296875 46.046875  L 18.21875 13.140625  L 12.796875 7.125  Q 18.703125 7.5625 23.875 7.5625  L 47.859375 7.5625  L 47.859375 0  z "
             id="ArialMT-122" />
        </defs>
        <g
           transform="translate(67.844141 20.166129)scale(0.1 -0.1)"
           id="g292">
          <use
             xlink:href="#ArialMT-54"
             id="use282" />
          <use
             x="55.615234"
             xlink:href="#ArialMT-48"
             id="use284" />
          <use
             x="111.230469"
             xlink:href="#ArialMT-32"
             id="use286" />
          <use
             x="139.013672"
             xlink:href="#ArialMT-72"
             id="use288" />
          <use
             x="211.230469"
             xlink:href="#ArialMT-122"
             id="use290" />
        </g>
      </g>
    </g>
  </g>
  <defs
     id="defs300">
    <clipPath
       id="pfad07191ea">
      <rect
         height="91.3075"
         width="83.5"
         x="47.18"
         y="13.32"
         id="rect297" />
    </clipPath>
  </defs>
</svg>
