<?xml version="1.0" encoding="UTF-8" standalone="no"?>
<!-- Created with Inkscape (http://www.inkscape.org/) -->

<svg
   xmlns:dc="http://purl.org/dc/elements/1.1/"
   xmlns:cc="http://creativecommons.org/ns#"
   xmlns:rdf="http://www.w3.org/1999/02/22-rdf-syntax-ns#"
   xmlns:svg="http://www.w3.org/2000/svg"
   xmlns="http://www.w3.org/2000/svg"
   xmlns:sodipodi="http://sodipodi.sourceforge.net/DTD/sodipodi-0.dtd"
   xmlns:inkscape="http://www.inkscape.org/namespaces/inkscape"
   width="48"
   height="48"
   viewBox="0 0 12.7 12.7"
   version="1.1"
   id="svg8"
   inkscape:version="0.92.1 r15371"
   sodipodi:docname="edit_tracking.svg">
  <defs
     id="defs2">
    <marker
       inkscape:stockid="Arrow2Send"
       orient="auto"
       refY="0"
       refX="0"
       id="marker4808"
       style="overflow:visible"
       inkscape:isstock="true">
      <path
         id="path4576"
         style="fill:#ffffff;fill-opacity:1;fill-rule:evenodd;stroke:#ffffff;stroke-width:0.625;stroke-linejoin:round;stroke-opacity:1"
         d="M 8.7185878,4.0337352 -2.2072895,0.01601326 8.7185884,-4.0017078 c -1.7454984,2.3720609 -1.7354408,5.6174519 -6e-7,8.035443 z"
         transform="matrix(-0.3,0,0,-0.3,0.69,0)"
         inkscape:connector-curvature="0" />
    </marker>
    <marker
       inkscape:stockid="TriangleInS"
       orient="auto"
       refY="0"
       refX="0"
       id="TriangleInS"
       style="overflow:visible"
       inkscape:isstock="true">
      <path
         id="path4682"
         d="M 5.77,0 -2.88,5 V -5 Z"
         style="fill:#ffffff;fill-opacity:1;fill-rule:evenodd;stroke:#ffffff;stroke-width:1.00000003pt;stroke-opacity:1"
         transform="scale(-0.2)"
         inkscape:connector-curvature="0" />
    </marker>
    <marker
       inkscape:stockid="Arrow2Send"
       orient="auto"
       refY="0"
       refX="0"
       id="Arrow2Send"
       style="overflow:visible"
       inkscape:isstock="true">
      <path
         id="path5108"
         style="fill:#ffffff;fill-opacity:1;fill-rule:evenodd;stroke:#ffffff;stroke-width:0.625;stroke-linejoin:round;stroke-opacity:1"
         d="M 8.7185878,4.0337352 -2.2072895,0.01601326 8.7185884,-4.0017078 c -1.7454984,2.3720609 -1.7354408,5.6174519 -6e-7,8.035443 z"
         transform="matrix(-0.3,0,0,-0.3,0.69,0)"
         inkscape:connector-curvature="0" />
    </marker>
    <marker
       inkscape:stockid="Arrow2Mend"
       orient="auto"
       refY="0"
       refX="0"
       id="marker6067"
       style="overflow:visible"
       inkscape:isstock="true">
      <path
         id="path6065"
         style="fill:#000000;fill-opacity:1;fill-rule:evenodd;stroke:#000000;stroke-width:0.625;stroke-linejoin:round;stroke-opacity:1"
         d="M 8.7185878,4.0337352 -2.2072895,0.01601326 8.7185884,-4.0017078 c -1.7454984,2.3720609 -1.7354408,5.6174519 -6e-7,8.035443 z"
         transform="scale(-0.6)"
         inkscape:connector-curvature="0" />
    </marker>
    <marker
       inkscape:stockid="Arrow1Send"
       orient="auto"
       refY="0"
       refX="0"
       id="Arrow1Send"
       style="overflow:visible"
       inkscape:isstock="true">
      <path
         id="path5090"
         d="M 0,0 5,-5 -12.5,0 5,5 Z"
         style="fill:#000000;fill-opacity:1;fill-rule:evenodd;stroke:#000000;stroke-width:1.00000003pt;stroke-opacity:1"
         transform="matrix(-0.2,0,0,-0.2,-1.2,0)"
         inkscape:connector-curvature="0" />
    </marker>
    <marker
       inkscape:stockid="Arrow2Mend"
       orient="auto"
       refY="0"
       refX="0"
       id="Arrow2Mend"
       style="overflow:visible"
       inkscape:isstock="true">
      <path
         id="path5102"
         style="fill:#000000;fill-opacity:1;fill-rule:evenodd;stroke:#000000;stroke-width:0.625;stroke-linejoin:round;stroke-opacity:1"
         d="M 8.7185878,4.0337352 -2.2072895,0.01601326 8.7185884,-4.0017078 c -1.7454984,2.3720609 -1.7354408,5.6174519 -6e-7,8.035443 z"
         transform="scale(-0.6)"
         inkscape:connector-curvature="0" />
    </marker>
    <marker
       inkscape:stockid="TriangleOutL"
       orient="auto"
       refY="0"
       refX="0"
       id="TriangleOutL"
       style="overflow:visible"
       inkscape:isstock="true">
      <path
         id="path5217"
         d="M 5.77,0 -2.88,5 V -5 Z"
         style="fill:#000000;fill-opacity:1;fill-rule:evenodd;stroke:#000000;stroke-width:1.00000003pt;stroke-opacity:1"
         transform="scale(0.8)"
         inkscape:connector-curvature="0" />
    </marker>
  </defs>
  <sodipodi:namedview
     id="base"
     pagecolor="#3f3f3f"
     bordercolor="#666666"
     borderopacity="1.0"
     inkscape:pageopacity="0"
     inkscape:pageshadow="2"
     inkscape:zoom="11.021246"
     inkscape:cx="102.44061"
     inkscape:cy="22.051597"
     inkscape:document-units="px"
     inkscape:current-layer="g6454"
     showgrid="true"
     units="px"
     inkscape:pagecheckerboard="false"
     inkscape:snap-grids="false"
     inkscape:snap-bbox="true"
     inkscape:bbox-nodes="true"
     inkscape:snap-bbox-edge-midpoints="true"
     inkscape:lockguides="true"
     inkscape:window-width="3840"
     inkscape:window-height="2055"
     inkscape:window-x="-13"
     inkscape:window-y="-13"
     inkscape:window-maximized="1"
     inkscape:snap-global="false">
    <inkscape:grid
       type="xygrid"
       id="grid5036"
       empcolor="#dfdfff"
       empopacity="0.25098039"
       color="#f2f2ff"
       opacity="0.1254902" />
  </sodipodi:namedview>
  <metadata
     id="metadata5">
    <rdf:RDF>
      <cc:Work
         rdf:about="">
        <dc:format>image/svg+xml</dc:format>
        <dc:type
           rdf:resource="http://purl.org/dc/dcmitype/StillImage" />
        <dc:title></dc:title>
      </cc:Work>
    </rdf:RDF>
  </metadata>
  <g
     inkscape:label="Layer 1"
     inkscape:groupmode="layer"
     id="layer1"
     transform="translate(0,-284.29998)">
    <g
       id="g6454"
       transform="matrix(0.27148671,-0.14151741,0.14151741,0.27148671,-47.324856,300.83656)"
       style="stroke-width:0.86420757">
      <g
         id="Layer_2"
         style="stroke-width:1.15110362"
         transform="matrix(0.75076434,0,0,0.75076434,32.836102,11.32359)">
        <g
           id="g6504"
           transform="matrix(-0.17934663,0.32751826,-0.32751826,-0.17934663,194.37469,34.799727)"
           style="stroke-width:3.08269787">
          <g
             id="g6514"
             transform="matrix(1.3121568,0.07843394,-0.07843394,1.3121568,-34.99482,-10.115595)"
             style="stroke-width:2.34515047">
            <path
               sodipodi:nodetypes="csscsssccccccsccccccssscssc"
               id="path6378"
               d="m 63.140887,-34.473001 c 0,0 23.001633,-0.103924 37.236773,12.983991 16.17364,14.8701831 23.24161,40.225023 13.25978,54.746034 -8.26804,12.027884 -21.932076,16.89584 -38.615115,15.293791 -1.423648,0.704297 -5.479116,1.272086 -7.567578,1.096098 -2.088462,-0.175989 -2.501336,-1.347696 -3.169162,-1.517663 -0.667825,-0.169971 -2.258429,0.491839 -3.761037,0.109412 -0.667826,-0.169972 -1.712057,-0.257964 -3.084179,-1.851575 -0.0455,0.877274 -0.925788,1.542088 -1.639117,2.249396 -0.418896,0.24893 -0.837793,0.497859 -1.089732,0.78928 -1.089735,0.789281 -6.562828,0.640729 -12.949662,-0.807001 C 41.09403,48.448789 31.365051,46.861545 29.446554,46.017729 28.320352,45.55333 24.443885,43.32234 22.956335,39.388326 c -1.074681,-2.762308 -1.69099,-5.230187 -0.883646,-8.402361 0.849836,-3.33913 2.737881,-5.16963 4.792891,-6.957635 3.229714,-2.911203 7.701066,-3.017605 8.86976,-2.720162 1.879015,0.300456 11.225565,3.390312 12.060353,3.602772 6.30185,1.781644 11.013103,4.225093 11.759891,5.481783 0.24893,0.418896 0.330903,0.795301 0.579832,1.214198 0.455368,1.004751 0.743778,1.967007 0.364362,2.759299 1.967007,-0.743779 2.926254,-0.321871 3.594081,-0.151904 1.502607,0.382427 2.750265,1.766592 3.251135,1.894067 0.667824,0.169971 1.590602,-0.661805 3.509096,0.18201 1.918495,0.843815 5.209112,3.281242 6.122857,4.580425 14.788091,2.511123 24.122203,1.100774 32.989813,-9.6127 9.06617,-10.953357 4.57431,-34.7015749 -10.169225,-50.2686 C 86.881541,-32.647891 63.140887,-34.473001 63.140887,-34.473001 Z"
               class="st1"
               inkscape:connector-curvature="0"
               style="opacity:1;fill:#919191;fill-opacity:1;stroke:none;stroke-width:2.34515047" />
            <path
               id="path6382"
               d="m 33.677329,23.806495 c -0.764853,3.005216 1.602987,6.274416 5.276033,7.209236 3.673043,0.93482 7.315637,-0.804675 8.080489,-3.809892 0.764852,-3.005217 -1.815445,-5.439634 -5.488488,-6.374454 -3.673047,-0.93482 -7.103183,-0.03011 -7.868034,2.97511 z"
               class="st2"
               inkscape:connector-curvature="0"
               style="opacity:1;vector-effect:none;fill:#d33006;fill-opacity:1;stroke:none;stroke-width:2.34984112;stroke-linecap:butt;stroke-linejoin:miter;stroke-miterlimit:4;stroke-dasharray:none;stroke-dashoffset:0;stroke-opacity:1" />
            <path
               id="path6386"
               d="m 70.471665,37.793001 c 2.671304,0.679869 7.000131,4.625927 6.362752,7.130275 -0.637376,2.504347 -6.158983,3.943389 -8.997244,3.221028 -2.337391,-0.594885 -5.084646,-3.071794 -4.192319,-6.57788 0.892329,-3.506088 4.48942,-4.368308 6.826811,-3.773423 z"
               class="st3"
               inkscape:connector-curvature="0"
               style="opacity:1;vector-effect:none;fill:#d33006;fill-opacity:1;stroke:none;stroke-width:2.34984112;stroke-linecap:butt;stroke-linejoin:miter;stroke-miterlimit:4;stroke-dasharray:none;stroke-dashoffset:0;stroke-opacity:1" />
            <path
               id="path6388"
               d="m 28.875756,42.672578 c 0.764851,-3.005217 4.407445,-4.744712 8.080492,-3.809892 3.673043,0.93482 6.040883,4.204019 5.27603,7.209236 -0.764853,3.005218 -4.194987,3.90993 -7.86803,2.97511 -3.673047,-0.934821 -6.253346,-3.369238 -5.488492,-6.374454 z"
               class="st2"
               inkscape:connector-curvature="0"
               style="opacity:1;vector-effect:none;fill:#d33006;fill-opacity:1;stroke:none;stroke-width:2.34984112;stroke-linecap:butt;stroke-linejoin:miter;stroke-miterlimit:4;stroke-dasharray:none;stroke-dashoffset:0;stroke-opacity:1" />
            <circle
               style="opacity:1;fill:#d33006;fill-opacity:1;stroke:none;stroke-width:2.34984112;stroke-linejoin:miter;stroke-miterlimit:4;stroke-dasharray:none;stroke-opacity:1"
               id="path6516"
               cx="-16.936157"
               cy="103.70189"
               r="5.7378507"
               transform="rotate(-74.740915)" />
            <circle
               style="opacity:1;fill:#d33006;fill-opacity:1;stroke:none;stroke-width:2.34984088;stroke-linejoin:miter;stroke-miterlimit:4;stroke-dasharray:none;stroke-opacity:1"
               id="path6516-2"
               cx="10.895221"
               cy="116.2175"
               r="5.7378507"
               transform="rotate(-74.740915)" />
            <circle
               style="opacity:1;fill:#d33006;fill-opacity:1;stroke:none;stroke-width:2.34984088;stroke-linejoin:miter;stroke-miterlimit:4;stroke-dasharray:none;stroke-opacity:1"
               id="path6516-8"
               cx="40.179649"
               cy="98.958427"
               r="5.7378507"
               transform="rotate(-74.740915)" />
            <circle
               style="opacity:1;fill:#d33006;fill-opacity:1;stroke:none;stroke-width:2.34984088;stroke-linejoin:miter;stroke-miterlimit:4;stroke-dasharray:none;stroke-opacity:1"
               id="path6516-5"
               cx="50.217041"
               cy="55.47261"
               r="5.7378507"
               transform="rotate(-74.740915)" />
          </g>
        </g>
        <g
           id="g6390"
           style="stroke-width:1.15110362" />
        <g
           id="g6392"
           style="stroke-width:1.15110362" />
        <g
           id="g6394"
           style="stroke-width:1.15110362" />
        <g
           id="g6396"
           style="stroke-width:1.15110362" />
        <g
           id="g6398"
           style="stroke-width:1.15110362" />
        <g
           id="g6400"
           style="stroke-width:1.15110362" />
        <g
           id="g6402"
           style="stroke-width:1.15110362" />
        <g
           id="g6404"
           style="stroke-width:1.15110362" />
        <g
           id="g6406"
           style="stroke-width:1.15110362" />
        <g
           id="g6408"
           style="stroke-width:1.15110362" />
        <g
           id="g6410"
           style="stroke-width:1.15110362" />
        <g
           id="g6412"
           style="stroke-width:1.15110362" />
        <g
           id="g6414"
           style="stroke-width:1.15110362" />
        <g
           id="g6416"
           style="stroke-width:1.15110362" />
        <g
           id="g6418"
           style="stroke-width:1.15110362" />
      </g>
      <rect
         style="opacity:1;vector-effect:none;fill:#d33006;fill-opacity:1;stroke:none;stroke-width:0.86593604;stroke-linecap:butt;stroke-linejoin:miter;stroke-miterlimit:4;stroke-dasharray:none;stroke-dashoffset:0;stroke-opacity:1"
         id="rect4506-3"
         width="5.2318707"
         height="22.422266"
         x="122.26479"
         y="-147.43665"
         transform="rotate(61.98013)" />
      <path
         sodipodi:type="star"
         style="opacity:1;fill:#ffffff;fill-opacity:1;stroke:none;stroke-width:0.74887532;stroke-linejoin:miter;stroke-miterlimit:2.29999995;stroke-dasharray:none;stroke-opacity:1"
         id="path4510-6"
         sodipodi:sides="3"
         sodipodi:cx="11.377083"
         sodipodi:cy="294.44785"
         sodipodi:r1="1.774879"
         sodipodi:r2="0.88743949"
         sodipodi:arg1="-0.52359878"
         sodipodi:arg2="0.52359878"
         inkscape:flatsided="true"
         inkscape:rounded="0"
         inkscape:randomized="0"
         d="m 12.914173,293.56041 -1.53709,2.66231 -1.5370905,-2.66231 z"
         inkscape:transform-center-y="0.089941974"
         transform="matrix(0.79950291,1.5023893,-2.4937408,1.327055,891.33467,-354.79867)"
         inkscape:transform-center-x="-0.11314822" />
    </g>
  </g>
  <style
     id="style6373"
     type="text/css">
	.st0{display:none;}
	.st1{opacity:0.16;}
	.st2{fill:#333333;}
	.st3{fill:#808080;}
</style>
</svg>
