<?xml version="1.0" encoding="UTF-8" standalone="no"?>
<!-- Created with Inkscape (http://www.inkscape.org/) -->

<svg
   xmlns:dc="http://purl.org/dc/elements/1.1/"
   xmlns:cc="http://creativecommons.org/ns#"
   xmlns:rdf="http://www.w3.org/1999/02/22-rdf-syntax-ns#"
   xmlns:svg="http://www.w3.org/2000/svg"
   xmlns="http://www.w3.org/2000/svg"
   xmlns:sodipodi="http://sodipodi.sourceforge.net/DTD/sodipodi-0.dtd"
   xmlns:inkscape="http://www.inkscape.org/namespaces/inkscape"
   width="64"
   height="64"
   viewBox="0 0 16.933333 16.933334"
   version="1.1"
   id="svg8"
   inkscape:version="0.92.1 r15371"
   sodipodi:docname="edit_fish.svg">
  <defs
     id="defs2">
    <marker
       inkscape:stockid="Arrow2Send"
       orient="auto"
       refY="0.0"
       refX="0.0"
       id="marker4808"
       style="overflow:visible;"
       inkscape:isstock="true">
      <path
         id="path4576"
         style="fill-rule:evenodd;stroke-width:0.625;stroke-linejoin:round;stroke:#ffffff;stroke-opacity:1;fill:#ffffff;fill-opacity:1"
         d="M 8.7185878,4.0337352 L -2.2072895,0.016013256 L 8.7185884,-4.0017078 C 6.9730900,-1.6296469 6.9831476,1.6157441 8.7185878,4.0337352 z "
         transform="scale(0.3) rotate(180) translate(-2.3,0)" />
    </marker>
    <marker
       inkscape:stockid="TriangleInS"
       orient="auto"
       refY="0.0"
       refX="0.0"
       id="TriangleInS"
       style="overflow:visible"
       inkscape:isstock="true">
      <path
         id="path4682"
         d="M 5.77,0.0 L -2.88,5.0 L -2.88,-5.0 L 5.77,0.0 z "
         style="fill-rule:evenodd;stroke:#ffffff;stroke-width:1pt;stroke-opacity:1;fill:#ffffff;fill-opacity:1"
         transform="scale(-0.2)" />
    </marker>
    <marker
       inkscape:stockid="Arrow2Send"
       orient="auto"
       refY="0.0"
       refX="0.0"
       id="Arrow2Send"
       style="overflow:visible;"
       inkscape:isstock="true">
      <path
         id="path5108"
         style="fill-rule:evenodd;stroke-width:0.625;stroke-linejoin:round;stroke:#ffffff;stroke-opacity:1;fill:#ffffff;fill-opacity:1"
         d="M 8.7185878,4.0337352 L -2.2072895,0.016013256 L 8.7185884,-4.0017078 C 6.9730900,-1.6296469 6.9831476,1.6157441 8.7185878,4.0337352 z "
         transform="scale(0.3) rotate(180) translate(-2.3,0)" />
    </marker>
    <marker
       inkscape:stockid="Arrow2Mend"
       orient="auto"
       refY="0.0"
       refX="0.0"
       id="marker6067"
       style="overflow:visible;"
       inkscape:isstock="true">
      <path
         id="path6065"
         style="fill-rule:evenodd;stroke-width:0.625;stroke-linejoin:round;stroke:#000000;stroke-opacity:1;fill:#000000;fill-opacity:1"
         d="M 8.7185878,4.0337352 L -2.2072895,0.016013256 L 8.7185884,-4.0017078 C 6.9730900,-1.6296469 6.9831476,1.6157441 8.7185878,4.0337352 z "
         transform="scale(0.6) rotate(180) translate(0,0)" />
    </marker>
    <marker
       inkscape:stockid="Arrow1Send"
       orient="auto"
       refY="0.0"
       refX="0.0"
       id="Arrow1Send"
       style="overflow:visible;"
       inkscape:isstock="true">
      <path
         id="path5090"
         d="M 0.0,0.0 L 5.0,-5.0 L -12.5,0.0 L 5.0,5.0 L 0.0,0.0 z "
         style="fill-rule:evenodd;stroke:#000000;stroke-width:1pt;stroke-opacity:1;fill:#000000;fill-opacity:1"
         transform="scale(0.2) rotate(180) translate(6,0)" />
    </marker>
    <marker
       inkscape:stockid="Arrow2Mend"
       orient="auto"
       refY="0.0"
       refX="0.0"
       id="Arrow2Mend"
       style="overflow:visible;"
       inkscape:isstock="true">
      <path
         id="path5102"
         style="fill-rule:evenodd;stroke-width:0.625;stroke-linejoin:round;stroke:#000000;stroke-opacity:1;fill:#000000;fill-opacity:1"
         d="M 8.7185878,4.0337352 L -2.2072895,0.016013256 L 8.7185884,-4.0017078 C 6.9730900,-1.6296469 6.9831476,1.6157441 8.7185878,4.0337352 z "
         transform="scale(0.6) rotate(180) translate(0,0)" />
    </marker>
    <marker
       inkscape:stockid="TriangleOutL"
       orient="auto"
       refY="0.0"
       refX="0.0"
       id="TriangleOutL"
       style="overflow:visible"
       inkscape:isstock="true">
      <path
         id="path5217"
         d="M 5.77,0.0 L -2.88,5.0 L -2.88,-5.0 L 5.77,0.0 z "
         style="fill-rule:evenodd;stroke:#000000;stroke-width:1pt;stroke-opacity:1;fill:#000000;fill-opacity:1"
         transform="scale(0.8)" />
    </marker>
  </defs>
  <sodipodi:namedview
     id="base"
     pagecolor="#3f3f3f"
     bordercolor="#666666"
     borderopacity="1.0"
     inkscape:pageopacity="0"
     inkscape:pageshadow="2"
     inkscape:zoom="22.4"
     inkscape:cx="54.524565"
     inkscape:cy="35.033116"
     inkscape:document-units="px"
     inkscape:current-layer="layer1"
     showgrid="true"
     units="px"
     inkscape:pagecheckerboard="false"
     inkscape:snap-grids="false"
     inkscape:snap-bbox="true"
     inkscape:bbox-nodes="true"
     inkscape:snap-bbox-edge-midpoints="true"
     inkscape:lockguides="true"
     inkscape:window-width="3840"
     inkscape:window-height="2055"
     inkscape:window-x="-13"
     inkscape:window-y="-13"
     inkscape:window-maximized="1"
     inkscape:snap-global="false">
    <inkscape:grid
       type="xygrid"
       id="grid5036"
       empcolor="#dfdfff"
       empopacity="0.25098039"
       color="#f2f2ff"
       opacity="0.1254902" />
  </sodipodi:namedview>
  <metadata
     id="metadata5">
    <rdf:RDF>
      <cc:Work
         rdf:about="">
        <dc:format>image/svg+xml</dc:format>
        <dc:type
           rdf:resource="http://purl.org/dc/dcmitype/StillImage" />
        <dc:title />
      </cc:Work>
    </rdf:RDF>
  </metadata>
  <g
     inkscape:label="Layer 1"
     inkscape:groupmode="layer"
     id="layer1"
     transform="translate(0,-280.06665)">
    <g
       id="g6454"
       transform="matrix(0.27148671,-0.14151741,0.14151741,0.27148671,-47.324856,300.83656)"
       style="stroke-width:0.86420757">
      <g
         id="Layer_2"
         style="stroke-width:0.78331888"
         transform="matrix(1.103264,0,0,1.103264,-15.445647,-6.3180203)">
        <g
           id="g6504"
           transform="matrix(-0.17934663,0.32751826,-0.32751826,-0.17934663,194.37469,34.799727)"
           style="stroke-width:2.09775686">
          <g
             id="g6514"
             transform="matrix(1.3121568,0.07843394,-0.07843394,1.3121568,-34.99482,-10.115595)"
             style="stroke-width:1.59586036">
            <path
               sodipodi:nodetypes="cscsssccccccsccccccssscsc"
               id="path6378"
               d="m 63.514419,-19.66505 c 0,0 -45.238085,13.4656589 -33.784411,44.552669 5.045984,13.695567 18.059079,18.211403 34.621844,20.773644 1.205953,1.033674 4.996089,2.584184 7.063436,2.928742 2.067347,0.344558 2.756462,-0.689116 3.445578,-0.689116 0.689116,0 2.067347,1.033674 3.617857,1.033674 0.689116,0 1.722789,0.172279 3.445578,-1.033674 -0.172279,0.861395 0.516837,1.722789 1.033674,2.584184 0.344558,0.344558 0.689115,0.689116 0.861394,1.033673 0.861395,1.033674 6.202041,2.239626 12.748635,2.411905 0.68912,0 10.509016,0.861395 12.576366,0.516837 1.20595,-0.172279 5.51292,-1.378231 7.92482,-4.82381 1.72279,-2.411904 2.92875,-4.65153 2.92875,-7.924829 0,-3.445579 -1.37823,-5.685205 -2.92875,-7.92483 -2.4119,-3.617857 -6.71887,-4.82381 -7.92482,-4.82381 -1.89507,-0.172279 -11.714966,0.516837 -12.576366,0.516837 -6.546594,0.172279 -11.714961,1.378231 -12.748635,2.411905 -0.344558,0.344557 -0.516836,0.689115 -0.861394,1.033673 -0.689116,0.861395 -1.205953,1.722789 -1.033674,2.584184 -1.722789,-1.205953 -2.756462,-1.033674 -3.445578,-1.033674 -1.55051,0 -3.10102,1.033674 -3.617857,1.033674 -0.689116,0 -1.378231,-1.033674 -3.445578,-0.689116 -2.067347,0.344558 -5.857483,1.895068 -7.063436,2.928742 C 49.40127,36.522564 39.457559,36.497944 33.506324,23.928295 22.091555,-0.18092495 63.514419,-19.66505 63.514419,-19.66505 Z"
               class="st1"
               inkscape:connector-curvature="0"
               style="opacity:1;fill:#f0f0f0;fill-opacity:1;stroke:none;stroke-width:1.59586036" />
            <path
               id="path6382"
               d="m 110.5226,31.878951 c 0,3.10102 -3.10102,5.685204 -6.89116,5.685204 -3.790136,0 -6.891156,-2.584184 -6.891156,-5.685204 0,-3.101021 3.10102,-4.82381 6.891156,-4.82381 3.79014,0 6.89116,1.722789 6.89116,4.82381 z"
               class="st2"
               inkscape:connector-curvature="0"
               style="fill:#236375;fill-opacity:1;stroke-width:1.59586036" />
            <path
               id="path6386"
               d="m 71.415288,36.358202 c -2.756463,0 -7.92483,2.756463 -7.92483,5.340647 0,2.584183 4.996088,5.340646 7.92483,5.340646 2.411905,0 5.685204,-1.722789 5.685204,-5.340646 0,-3.617858 -3.273299,-5.340647 -5.685204,-5.340647 z"
               class="st3"
               inkscape:connector-curvature="0"
               style="fill:#1c9475;fill-opacity:1;stroke-width:1.59586036" />
            <path
               id="path6388"
               d="m 110.5226,51.346467 c 0,-3.10102 -3.10102,-5.685204 -6.89116,-5.685204 -3.790136,0 -6.891156,2.584184 -6.891156,5.685204 0,3.101021 3.10102,4.82381 6.891156,4.82381 3.79014,0 6.89116,-1.722789 6.89116,-4.82381 z"
               class="st2"
               inkscape:connector-curvature="0"
               style="fill:#236375;fill-opacity:1;stroke-width:1.59586036" />
          </g>
        </g>
        <g
           id="g6390"
           style="stroke-width:0.78331888" />
        <g
           id="g6392"
           style="stroke-width:0.78331888" />
        <g
           id="g6394"
           style="stroke-width:0.78331888" />
        <g
           id="g6396"
           style="stroke-width:0.78331888" />
        <g
           id="g6398"
           style="stroke-width:0.78331888" />
        <g
           id="g6400"
           style="stroke-width:0.78331888" />
        <g
           id="g6402"
           style="stroke-width:0.78331888" />
        <g
           id="g6404"
           style="stroke-width:0.78331888" />
        <g
           id="g6406"
           style="stroke-width:0.78331888" />
        <g
           id="g6408"
           style="stroke-width:0.78331888" />
        <g
           id="g6410"
           style="stroke-width:0.78331888" />
        <g
           id="g6412"
           style="stroke-width:0.78331888" />
        <g
           id="g6414"
           style="stroke-width:0.78331888" />
        <g
           id="g6416"
           style="stroke-width:0.78331888" />
        <g
           id="g6418"
           style="stroke-width:0.78331888" />
      </g>
    </g>
    <rect
       style="opacity:1;fill:#65c6bf;fill-opacity:1;stroke:none;stroke-width:0.50270832;stroke-linejoin:miter;stroke-miterlimit:2.29999995;stroke-dasharray:none;stroke-opacity:1"
       id="rect4506"
       width="2.1335254"
       height="9.1436644"
       x="170.63911"
       y="224.37805"
       transform="rotate(34.448529)" />
    <path
       sodipodi:type="star"
       style="opacity:1;fill:#ffffff;fill-opacity:1;stroke:none;stroke-width:0.56222892;stroke-linejoin:miter;stroke-miterlimit:2.29999995;stroke-dasharray:none;stroke-opacity:1"
       id="path4510"
       sodipodi:sides="3"
       sodipodi:cx="11.377083"
       sodipodi:cy="294.44785"
       sodipodi:r1="1.774879"
       sodipodi:r2="0.88743949"
       sodipodi:arg1="-0.52359878"
       sodipodi:arg2="0.52359878"
       inkscape:flatsided="true"
       inkscape:rounded="0"
       inkscape:randomized="0"
       d="m 12.914173,293.56041 -1.53709,2.66231 -1.5370905,-2.66231 z"
       inkscape:transform-center-y="0.11979419"
       transform="matrix(0.57230829,0.39258008,-0.65162404,0.94994592,194.1068,6.6166632)"
       inkscape:transform-center-x="-0.15070915" />
  </g>
  <style
     id="style6373"
     type="text/css">
	.st0{display:none;}
	.st1{opacity:0.16;}
	.st2{fill:#333333;}
	.st3{fill:#808080;}
</style>
</svg>
